G04 #@! TF.FileFunction,Copper,L1,Top,Signal*
%FSLAX46Y46*%
G04 Gerber Fmt 4.6, Leading zero omitted, Abs format (unit mm)*
G04 Created by KiCad (PCBNEW 4.0.2-stable) date 2-3-2016 14:42:16*
%MOMM*%
G01*
G04 APERTURE LIST*
%ADD10C,0.100000*%
%ADD11C,0.125000*%
%ADD12C,1.727200*%
%ADD13R,1.727200X1.727200*%
%ADD14O,1.727200X1.727200*%
%ADD15R,1.200000X0.750000*%
%ADD16R,0.750000X1.200000*%
%ADD17R,1.200000X0.900000*%
%ADD18R,0.900000X1.200000*%
%ADD19R,0.800100X0.800100*%
%ADD20R,1.143000X0.508000*%
%ADD21R,1.600200X2.999740*%
%ADD22R,2.999740X1.600200*%
%ADD23R,3.599180X1.600200*%
%ADD24C,1.524000*%
%ADD25R,1.800860X1.597660*%
%ADD26R,2.400000X2.300000*%
%ADD27O,2.000000X4.500000*%
%ADD28O,4.500000X2.000000*%
%ADD29C,0.600000*%
%ADD30C,0.250000*%
%ADD31C,0.750000*%
%ADD32C,0.500000*%
%ADD33C,0.254000*%
G04 APERTURE END LIST*
D10*
D11*
X1146190Y15897143D02*
X646190Y15897143D01*
X1003333Y16147143D01*
X646190Y16397143D01*
X1146190Y16397143D01*
X812857Y16682858D02*
X1146190Y16861429D01*
X812857Y17040001D02*
X1146190Y16861429D01*
X1265238Y16790001D01*
X1289048Y16754286D01*
X1312857Y16682858D01*
X1122381Y17290001D02*
X1146190Y17361430D01*
X1146190Y17504287D01*
X1122381Y17575715D01*
X1074762Y17611430D01*
X1050952Y17611430D01*
X1003333Y17575715D01*
X979524Y17504287D01*
X979524Y17397144D01*
X955714Y17325715D01*
X908095Y17290001D01*
X884286Y17290001D01*
X836667Y17325715D01*
X812857Y17397144D01*
X812857Y17504287D01*
X836667Y17575715D01*
X1122381Y18218573D02*
X1146190Y18147144D01*
X1146190Y18004287D01*
X1122381Y17932858D01*
X1074762Y17897144D01*
X884286Y17897144D01*
X836667Y17932858D01*
X812857Y18004287D01*
X812857Y18147144D01*
X836667Y18218573D01*
X884286Y18254287D01*
X931905Y18254287D01*
X979524Y17897144D01*
X812857Y18575715D02*
X1146190Y18575715D01*
X860476Y18575715D02*
X836667Y18611430D01*
X812857Y18682858D01*
X812857Y18790001D01*
X836667Y18861430D01*
X884286Y18897144D01*
X1146190Y18897144D01*
X1122381Y19218572D02*
X1146190Y19290001D01*
X1146190Y19432858D01*
X1122381Y19504286D01*
X1074762Y19540001D01*
X1050952Y19540001D01*
X1003333Y19504286D01*
X979524Y19432858D01*
X979524Y19325715D01*
X955714Y19254286D01*
X908095Y19218572D01*
X884286Y19218572D01*
X836667Y19254286D01*
X812857Y19325715D01*
X812857Y19432858D01*
X836667Y19504286D01*
X1146190Y19968572D02*
X1122381Y19897144D01*
X1098571Y19861429D01*
X1050952Y19825715D01*
X908095Y19825715D01*
X860476Y19861429D01*
X836667Y19897144D01*
X812857Y19968572D01*
X812857Y20075715D01*
X836667Y20147144D01*
X860476Y20182858D01*
X908095Y20218572D01*
X1050952Y20218572D01*
X1098571Y20182858D01*
X1122381Y20147144D01*
X1146190Y20075715D01*
X1146190Y19968572D01*
X1146190Y20540000D02*
X812857Y20540000D01*
X908095Y20540000D02*
X860476Y20575715D01*
X836667Y20611429D01*
X812857Y20682858D01*
X812857Y20754286D01*
X1122381Y20968572D02*
X1146190Y21040001D01*
X1146190Y21182858D01*
X1122381Y21254286D01*
X1074762Y21290001D01*
X1050952Y21290001D01*
X1003333Y21254286D01*
X979524Y21182858D01*
X979524Y21075715D01*
X955714Y21004286D01*
X908095Y20968572D01*
X884286Y20968572D01*
X836667Y21004286D01*
X812857Y21075715D01*
X812857Y21182858D01*
X836667Y21254286D01*
X955714Y21611429D02*
X955714Y22182858D01*
X646190Y22468572D02*
X1146190Y22647143D01*
X789048Y22790000D01*
X1146190Y22932858D01*
X646190Y23111429D01*
X1146190Y23718572D02*
X884286Y23718572D01*
X836667Y23682858D01*
X812857Y23611429D01*
X812857Y23468572D01*
X836667Y23397143D01*
X1122381Y23718572D02*
X1146190Y23647143D01*
X1146190Y23468572D01*
X1122381Y23397143D01*
X1074762Y23361429D01*
X1027143Y23361429D01*
X979524Y23397143D01*
X955714Y23468572D01*
X955714Y23647143D01*
X931905Y23718572D01*
X812857Y23968572D02*
X812857Y24254286D01*
X646190Y24075714D02*
X1074762Y24075714D01*
X1122381Y24111429D01*
X1146190Y24182857D01*
X1146190Y24254286D01*
X1122381Y24790000D02*
X1146190Y24718571D01*
X1146190Y24575714D01*
X1122381Y24504285D01*
X1074762Y24468571D01*
X884286Y24468571D01*
X836667Y24504285D01*
X812857Y24575714D01*
X812857Y24718571D01*
X836667Y24790000D01*
X884286Y24825714D01*
X931905Y24825714D01*
X979524Y24468571D01*
X1146190Y25147142D02*
X812857Y25147142D01*
X908095Y25147142D02*
X860476Y25182857D01*
X836667Y25218571D01*
X812857Y25290000D01*
X812857Y25361428D01*
X1146190Y25611428D02*
X812857Y25611428D01*
X860476Y25611428D02*
X836667Y25647143D01*
X812857Y25718571D01*
X812857Y25825714D01*
X836667Y25897143D01*
X884286Y25932857D01*
X1146190Y25932857D01*
X884286Y25932857D02*
X836667Y25968571D01*
X812857Y26040000D01*
X812857Y26147143D01*
X836667Y26218571D01*
X884286Y26254286D01*
X1146190Y26254286D01*
X1122381Y26897143D02*
X1146190Y26825714D01*
X1146190Y26682857D01*
X1122381Y26611428D01*
X1074762Y26575714D01*
X884286Y26575714D01*
X836667Y26611428D01*
X812857Y26682857D01*
X812857Y26825714D01*
X836667Y26897143D01*
X884286Y26932857D01*
X931905Y26932857D01*
X979524Y26575714D01*
X812857Y27147143D02*
X812857Y27432857D01*
X646190Y27254285D02*
X1074762Y27254285D01*
X1122381Y27290000D01*
X1146190Y27361428D01*
X1146190Y27432857D01*
X1122381Y27968571D02*
X1146190Y27897142D01*
X1146190Y27754285D01*
X1122381Y27682856D01*
X1074762Y27647142D01*
X884286Y27647142D01*
X836667Y27682856D01*
X812857Y27754285D01*
X812857Y27897142D01*
X836667Y27968571D01*
X884286Y28004285D01*
X931905Y28004285D01*
X979524Y27647142D01*
X1146190Y28325713D02*
X812857Y28325713D01*
X908095Y28325713D02*
X860476Y28361428D01*
X836667Y28397142D01*
X812857Y28468571D01*
X812857Y28539999D01*
X955714Y28789999D02*
X955714Y29361428D01*
X1146190Y30147142D02*
X908095Y29897142D01*
X1146190Y29718570D02*
X646190Y29718570D01*
X646190Y30004285D01*
X670000Y30075713D01*
X693810Y30111428D01*
X741429Y30147142D01*
X812857Y30147142D01*
X860476Y30111428D01*
X884286Y30075713D01*
X908095Y30004285D01*
X908095Y29718570D01*
X1122381Y30754285D02*
X1146190Y30682856D01*
X1146190Y30539999D01*
X1122381Y30468570D01*
X1074762Y30432856D01*
X884286Y30432856D01*
X836667Y30468570D01*
X812857Y30539999D01*
X812857Y30682856D01*
X836667Y30754285D01*
X884286Y30789999D01*
X931905Y30789999D01*
X979524Y30432856D01*
X812857Y31039999D02*
X1146190Y31218570D01*
X812857Y31397142D01*
X1098571Y31682856D02*
X1122381Y31718571D01*
X1146190Y31682856D01*
X1122381Y31647142D01*
X1098571Y31682856D01*
X1146190Y31682856D01*
X646190Y32182857D02*
X646190Y32254285D01*
X670000Y32325714D01*
X693810Y32361428D01*
X741429Y32397142D01*
X836667Y32432857D01*
X955714Y32432857D01*
X1050952Y32397142D01*
X1098571Y32361428D01*
X1122381Y32325714D01*
X1146190Y32254285D01*
X1146190Y32182857D01*
X1122381Y32111428D01*
X1098571Y32075714D01*
X1050952Y32039999D01*
X955714Y32004285D01*
X836667Y32004285D01*
X741429Y32039999D01*
X693810Y32075714D01*
X670000Y32111428D01*
X646190Y32182857D01*
X1098571Y32754285D02*
X1122381Y32790000D01*
X1146190Y32754285D01*
X1122381Y32718571D01*
X1098571Y32754285D01*
X1146190Y32754285D01*
X1146190Y33504286D02*
X1146190Y33075714D01*
X1146190Y33290000D02*
X646190Y33290000D01*
X717619Y33218571D01*
X765238Y33147143D01*
X789048Y33075714D01*
X646190Y33968572D02*
X646190Y34040000D01*
X670000Y34111429D01*
X693810Y34147143D01*
X741429Y34182857D01*
X836667Y34218572D01*
X955714Y34218572D01*
X1050952Y34182857D01*
X1098571Y34147143D01*
X1122381Y34111429D01*
X1146190Y34040000D01*
X1146190Y33968572D01*
X1122381Y33897143D01*
X1098571Y33861429D01*
X1050952Y33825714D01*
X955714Y33790000D01*
X836667Y33790000D01*
X741429Y33825714D01*
X693810Y33861429D01*
X670000Y33897143D01*
X646190Y33968572D01*
D12*
X52701900Y18651600D03*
D13*
X50161900Y18651600D03*
D14*
X52701900Y16111600D03*
X50161900Y16111600D03*
X52701900Y13571600D03*
X50161900Y13571600D03*
X52701900Y11031600D03*
X50161900Y11031600D03*
D15*
X32506400Y24303100D03*
X30606400Y24303100D03*
D16*
X36585600Y24579920D03*
X36585600Y26479920D03*
X55870000Y18200000D03*
X55870000Y20100000D03*
D15*
X34132000Y12771500D03*
X32232000Y12771500D03*
D16*
X56984360Y32597840D03*
X56984360Y30697840D03*
X45774360Y22727840D03*
X45774360Y24627840D03*
D13*
X43557900Y7843900D03*
D14*
X46097900Y7843900D03*
X43557900Y5303900D03*
X46097900Y5303900D03*
X43557900Y2763900D03*
X46097900Y2763900D03*
D17*
X30634200Y18575400D03*
X32834200Y18575400D03*
X29104360Y12747840D03*
X26904360Y12747840D03*
X59250000Y22040000D03*
X57050000Y22040000D03*
X59250000Y24080000D03*
X57050000Y24080000D03*
D18*
X45790560Y32725920D03*
X45790560Y30525920D03*
D19*
X32836560Y20495600D03*
X32836560Y22395600D03*
X30837580Y21445600D03*
D20*
X35163200Y10574400D03*
X35163200Y9304400D03*
X35163200Y8034400D03*
X35163200Y6764400D03*
X28813200Y6764400D03*
X28813200Y8034400D03*
X28813200Y9304400D03*
X28813200Y10574400D03*
X55183480Y32006920D03*
X55183480Y30736920D03*
X55183480Y29466920D03*
X55183480Y28196920D03*
X48833480Y28196920D03*
X48833480Y29466920D03*
X48833480Y30736920D03*
X48833480Y32006920D03*
D21*
X19092620Y4740020D03*
X19092620Y9139300D03*
D22*
X15943020Y21747860D03*
X20342300Y21747860D03*
D21*
X44688200Y18755740D03*
X44688200Y14356460D03*
D23*
X14479980Y14854300D03*
X19981620Y14854300D03*
D24*
X63103200Y27643200D03*
X63103200Y25103200D03*
X63103200Y30183200D03*
D12*
X39138300Y2040000D03*
X39138300Y4580000D03*
X39138300Y7120000D03*
X39138300Y9660000D03*
X39138300Y12200000D03*
X39138300Y14740000D03*
X39138300Y17280000D03*
X39138300Y19820000D03*
X39138300Y22360000D03*
X39138300Y24900000D03*
X39138300Y27440000D03*
X39138300Y29980000D03*
X36598300Y2040000D03*
X34058300Y2040000D03*
X31518300Y2040000D03*
D13*
X23898300Y29980000D03*
D12*
X23898300Y27440000D03*
X23898300Y24900000D03*
X23898300Y22360000D03*
X23898300Y19820000D03*
X23898300Y17280000D03*
X23898300Y14740000D03*
X23898300Y12200000D03*
X23898300Y9660000D03*
X23898300Y7120000D03*
X23898300Y4580000D03*
X23898300Y2040000D03*
X36598300Y21090000D03*
X36598300Y18550000D03*
X53960100Y22728300D03*
X53960100Y25268300D03*
X48460100Y22728300D03*
X48460100Y25268300D03*
D13*
X43148960Y30000320D03*
D14*
X43148960Y27460320D03*
X43148960Y24920320D03*
X43148960Y22380320D03*
D25*
X18869100Y29164660D03*
X18869100Y26324940D03*
X59242400Y28242640D03*
X59242400Y31082360D03*
D26*
X11860000Y20570000D03*
X7660000Y20570000D03*
D27*
X14380000Y29630000D03*
X8080000Y29630000D03*
D28*
X11380000Y25030000D03*
D18*
X55890000Y12400000D03*
X55890000Y14600000D03*
D29*
X56960000Y29040000D03*
X1660000Y13510000D03*
X7916620Y9174860D03*
X8140140Y15796640D03*
X63789000Y33028000D03*
X60868000Y22842600D03*
X27844360Y18387840D03*
X30040000Y22900000D03*
X64690700Y18867500D03*
X58720000Y13250000D03*
X4600000Y32800000D03*
X4600000Y26730000D03*
X50650000Y29480000D03*
X47832720Y18687160D03*
X27204360Y4657840D03*
X34439300Y14714600D03*
X34574360Y21977840D03*
X34574360Y18557840D03*
X41249040Y31526860D03*
X27164740Y27945460D03*
X36052200Y31526860D03*
X21160000Y4470000D03*
X47494900Y9863200D03*
X44690000Y9860000D03*
X51139800Y7805800D03*
X41550000Y1700000D03*
X46783700Y14371700D03*
X21734220Y24287860D03*
X30344360Y9337840D03*
X46567800Y28737940D03*
X27352700Y10574400D03*
X14484360Y17251840D03*
X18889420Y24402160D03*
X59255100Y32634300D03*
X53170000Y29460000D03*
X46245220Y21161120D03*
X16382440Y4844160D03*
X16644360Y19537840D03*
D30*
X56984360Y30697840D02*
X56984360Y29064360D01*
X56984360Y29064360D02*
X56960000Y29040000D01*
X1660000Y13510000D02*
X1666740Y13503260D01*
X19981620Y12774040D02*
X19847000Y12639420D01*
X19847000Y12639420D02*
X16857420Y12639420D01*
X19981620Y14854300D02*
X19981620Y12774040D01*
X10962080Y9174860D02*
X7916620Y9174860D01*
X16857420Y12639420D02*
X14426640Y12639420D01*
X14426640Y12639420D02*
X10962080Y9174860D01*
X27844360Y18387840D02*
X26184360Y18387840D01*
X25531296Y17734776D02*
X25531296Y17734912D01*
X26184360Y18387840D02*
X25531296Y17734776D01*
X22348900Y10930000D02*
X25168300Y10930000D01*
X25523900Y11285600D02*
X25531296Y17734912D01*
X25168300Y10930000D02*
X25523900Y11285600D01*
X21813875Y10394975D02*
X22348900Y10930000D01*
X21813875Y9146920D02*
X21813875Y10394975D01*
X64690700Y18867500D02*
X64690700Y19019900D01*
X64690700Y19019900D02*
X64690700Y18867500D01*
X60868000Y22842600D02*
X64690700Y19019900D01*
X60868000Y22842600D02*
X60868000Y21728000D01*
X57160000Y19750000D02*
X58720000Y13250000D01*
X58170000Y20760000D02*
X57160000Y19750000D01*
X59900000Y20760000D02*
X58170000Y20760000D01*
X60868000Y21728000D02*
X59900000Y20760000D01*
X4600000Y26730000D02*
X4600000Y32800000D01*
X48833480Y29466920D02*
X50636920Y29466920D01*
X50636920Y29466920D02*
X50650000Y29480000D01*
X32232000Y12771500D02*
X32232000Y14405480D01*
X32232000Y14405480D02*
X32541120Y14714600D01*
X25894360Y3322700D02*
X25894360Y3347840D01*
X25894360Y3347840D02*
X27204360Y4657840D01*
X34439300Y14714600D02*
X34439300Y18382780D01*
X32541120Y14714600D02*
X34439300Y14714600D01*
X34574360Y18517840D02*
X34574360Y18557840D01*
X34439300Y18382780D02*
X34574360Y18517840D01*
X44688200Y14356460D02*
X46768460Y14356460D01*
X46768460Y14356460D02*
X46783700Y14371700D01*
X21162720Y32296480D02*
X27055520Y32296480D01*
X27055520Y32296480D02*
X27075840Y32316800D01*
X27157120Y32235520D02*
X27164740Y27945460D01*
X27075840Y32316800D02*
X27157120Y32235520D01*
X46783700Y14371700D02*
X46783700Y10315320D01*
X47235820Y9863200D02*
X47494900Y9863200D01*
X46783700Y10315320D02*
X47235820Y9863200D01*
X21813875Y9146920D02*
X19100240Y9146920D01*
X19100240Y9146920D02*
X19092620Y9139300D01*
X21155100Y24988900D02*
X21155100Y32288860D01*
X20342300Y24176100D02*
X21155100Y24988900D01*
X20342300Y21747860D02*
X20342300Y24176100D01*
X21155100Y32288860D02*
X21162720Y32296480D01*
X21813875Y7044186D02*
X21813875Y9146920D01*
X22183800Y3322700D02*
X21752000Y3754500D01*
X25894360Y3322700D02*
X22183800Y3322700D01*
X21134600Y4444600D02*
X21160000Y4470000D01*
X21752000Y3754500D02*
X21134600Y4444600D01*
X21160000Y4470000D02*
X21198100Y4431900D01*
X21160000Y4520800D02*
X21172700Y4508100D01*
X21813875Y7044186D02*
X21160000Y4520800D01*
X47494900Y9863200D02*
X47494900Y9736200D01*
X47494900Y9736200D02*
X49425300Y7805800D01*
X49425300Y7805800D02*
X51139800Y7805800D01*
X41284600Y2725800D02*
X41284600Y2243200D01*
X33499500Y5037200D02*
X34972700Y3564000D01*
X34972700Y3564000D02*
X37665100Y3564000D01*
X37665100Y3564000D02*
X37931800Y3297300D01*
X37931800Y3297300D02*
X40713100Y3297300D01*
X40713100Y3297300D02*
X41284600Y2725800D01*
X31111900Y5037200D02*
X33499500Y5037200D01*
X41284600Y2243200D02*
X41550000Y1700000D01*
X46783700Y14447900D02*
X46783700Y14371700D01*
X46793860Y14458060D02*
X46783700Y14447900D01*
X28813200Y5430900D02*
X28813200Y6764400D01*
X29181500Y5062600D02*
X28813200Y5430900D01*
X31086500Y5062600D02*
X29181500Y5062600D01*
X31111900Y5037200D02*
X31086500Y5062600D01*
X18869100Y22537800D02*
X18856400Y22525100D01*
D31*
X14380000Y29630000D02*
X14700000Y29630000D01*
X14700000Y29630000D02*
X15330000Y29000000D01*
X15330000Y29000000D02*
X15330000Y24820000D01*
X15330000Y24820000D02*
X11860000Y21350000D01*
X11860000Y21350000D02*
X11860000Y20570000D01*
D30*
X21734220Y24287860D02*
X22346360Y24900000D01*
X22346360Y24900000D02*
X23898300Y24900000D01*
X30344360Y9337840D02*
X28846640Y9337840D01*
X28846640Y9337840D02*
X28813200Y9304400D01*
X43545200Y7856600D02*
X42262500Y7856600D01*
X41525900Y7120000D02*
X42262500Y7856600D01*
X41525900Y7120000D02*
X39138300Y7120000D01*
X43545200Y7856600D02*
X43557900Y7843900D01*
X28851300Y9342500D02*
X28813200Y9304400D01*
X30344360Y9337840D02*
X30312610Y9306090D01*
X28819550Y9310750D02*
X28813200Y9304400D01*
X43557900Y7843900D02*
X43557900Y7831200D01*
X37634360Y8037840D02*
X37634360Y6337840D01*
X42033900Y5316600D02*
X43545200Y5316600D01*
X41513200Y5837300D02*
X42033900Y5316600D01*
X40446400Y5837300D02*
X38135000Y5837300D01*
X40446400Y5837300D02*
X41513200Y5837300D01*
X38134900Y5837300D02*
X37634360Y6337840D01*
X38135000Y5837300D02*
X38134900Y5837300D01*
X39138300Y9660000D02*
X38266520Y9660000D01*
X37634360Y9027840D02*
X37634360Y8037840D01*
X37634360Y9027840D02*
X38266520Y9660000D01*
X35163200Y8034400D02*
X37634360Y8034400D01*
X37634360Y8034400D02*
X37634360Y8037840D01*
X43545200Y5316600D02*
X43557900Y5303900D01*
X35175900Y8047100D02*
X35163200Y8034400D01*
X53620000Y13571600D02*
X53620000Y13570000D01*
X54260000Y12930000D02*
X54260000Y8170000D01*
X53620000Y13570000D02*
X54260000Y12930000D01*
X54260000Y8170000D02*
X51393900Y5303900D01*
X35694360Y5217840D02*
X38154360Y5217840D01*
X35694360Y5217840D02*
X35163200Y5749000D01*
X35163200Y6764400D02*
X35163200Y5749000D01*
X38154360Y5217840D02*
X38792200Y4580000D01*
X39138300Y4580000D02*
X38792200Y4580000D01*
X52701900Y13571600D02*
X53620000Y13571600D01*
X51393900Y5303900D02*
X46097900Y5303900D01*
X42097400Y4033900D02*
X41983100Y4033900D01*
X44713600Y4033900D02*
X42097400Y4033900D01*
X45983600Y5303900D02*
X44713600Y4033900D01*
X41449700Y4567300D02*
X39151000Y4567300D01*
X41983100Y4033900D02*
X41449700Y4567300D01*
X39151000Y4567300D02*
X39138300Y4580000D01*
X35239400Y6688200D02*
X35163200Y6764400D01*
X46097900Y5303900D02*
X45983600Y5303900D01*
X46097900Y5303900D02*
X46110600Y5303900D01*
X46097900Y5303900D02*
X46097900Y5037200D01*
X39151000Y4567300D02*
X39138300Y4580000D01*
X32836560Y20495600D02*
X32836560Y18577760D01*
X32836560Y18577760D02*
X32834200Y18575400D01*
X32836560Y20495600D02*
X34386000Y20495600D01*
X35061600Y19820000D02*
X39138300Y19820000D01*
X34386000Y20495600D02*
X35061600Y19820000D01*
X50536780Y27076780D02*
X51533220Y27076780D01*
X54096360Y30736920D02*
X53030000Y30736920D01*
X45760080Y28710000D02*
X45760080Y27716860D01*
X50536780Y27076780D02*
X46400160Y27076780D01*
X46400160Y27076780D02*
X45760080Y27716860D01*
X54096360Y30736920D02*
X55183480Y30736920D01*
X52360000Y30066920D02*
X53030000Y30736920D01*
X52360000Y27903560D02*
X52360000Y30066920D01*
X51533220Y27076780D02*
X52360000Y27903560D01*
X45760080Y28710000D02*
X45760080Y30495440D01*
X45760080Y30495440D02*
X45790560Y30525920D01*
X46567800Y28737940D02*
X46539860Y28710000D01*
X46539860Y28710000D02*
X45760080Y28710000D01*
X27352700Y10574400D02*
X27352700Y12299500D01*
X27352700Y12299500D02*
X26904360Y12747840D01*
X28813200Y10574400D02*
X27352700Y10574400D01*
X52701900Y16111600D02*
X52748400Y16111600D01*
X52748400Y16111600D02*
X54260000Y14600000D01*
X54260000Y14600000D02*
X55890000Y14600000D01*
D31*
X14484360Y17251840D02*
X14484360Y17305640D01*
X7660000Y18870000D02*
X7660000Y20570000D01*
X8470000Y18060000D02*
X7660000Y18870000D01*
X13730000Y18060000D02*
X8470000Y18060000D01*
X14484360Y17305640D02*
X13730000Y18060000D01*
X14484360Y17251840D02*
X14484360Y14858680D01*
X14484360Y14858680D02*
X14479980Y14854300D01*
D32*
X14479980Y17247840D02*
X14480360Y17247840D01*
X14480360Y17247840D02*
X14484360Y17251840D01*
D30*
X50230480Y24670480D02*
X50230480Y23513960D01*
X52752700Y27097100D02*
X53875380Y27097100D01*
X49464360Y22747840D02*
X50230480Y23513960D01*
X48460100Y22728300D02*
X49464360Y22728300D01*
X49464360Y22728300D02*
X49464360Y22747840D01*
X53875380Y27097100D02*
X55140000Y27097100D01*
X52752700Y27097100D02*
X52690000Y27097100D01*
X52657100Y27097100D02*
X50230480Y24670480D01*
X52690000Y27097100D02*
X52657100Y27097100D01*
X55140000Y27097100D02*
X55140000Y28153440D01*
X55140000Y28153440D02*
X55183480Y28196920D01*
X55897600Y27097100D02*
X55912900Y27097100D01*
X55912900Y27097100D02*
X57050000Y25960000D01*
X57050000Y25960000D02*
X57050000Y24080000D01*
X55140000Y27097100D02*
X55897600Y27097100D01*
X43794360Y20815680D02*
X43812200Y20815680D01*
X45204360Y22727840D02*
X45774360Y22727840D01*
X44734360Y22257840D02*
X45204360Y22727840D01*
X44734360Y21737840D02*
X44734360Y22257840D01*
X43812200Y20815680D02*
X44734360Y21737840D01*
X48460100Y22728300D02*
X45774820Y22728300D01*
X45774820Y22728300D02*
X45774360Y22727840D01*
X43270880Y20815680D02*
X42458080Y20815680D01*
X40649600Y12728320D02*
X40121280Y12200000D01*
X40649600Y17869280D02*
X40649600Y12728320D01*
X41665600Y18885280D02*
X40649600Y17869280D01*
X41665600Y20023200D02*
X41665600Y18885280D01*
X42458080Y20815680D02*
X41665600Y20023200D01*
X43794360Y20815680D02*
X43270880Y20815680D01*
X40121280Y12200000D02*
X39138300Y12200000D01*
X18869100Y26324940D02*
X18869100Y24422480D01*
X18869100Y24422480D02*
X18889420Y24402160D01*
X59242400Y32647000D02*
X59242400Y32748600D01*
X59255100Y32634300D02*
X59242400Y32647000D01*
X59242400Y31082360D02*
X59242400Y32748600D01*
X57050000Y22040000D02*
X54648400Y22040000D01*
X54648400Y22040000D02*
X53960100Y22728300D01*
X53176920Y29466920D02*
X53170000Y29460000D01*
X53176920Y29466920D02*
X55183480Y29466920D01*
X55794500Y17155500D02*
X55794500Y18124500D01*
X55794500Y18124500D02*
X55870000Y18200000D01*
X56990000Y12400000D02*
X55890000Y12400000D01*
D32*
X55559400Y8569400D02*
X55569400Y8569400D01*
X52701900Y18651600D02*
X54198000Y17155500D01*
X47614797Y624797D02*
X55559400Y8569400D01*
X20923960Y637920D02*
X47614797Y594797D01*
X19092620Y2469260D02*
X19092620Y4740020D01*
X19092620Y2469260D02*
X20923960Y637920D01*
X47614797Y594797D02*
X47614797Y624797D01*
X55794500Y17155500D02*
X54198000Y17155500D01*
X56990000Y15960000D02*
X55794500Y17155500D01*
X56990000Y9990000D02*
X56990000Y12400000D01*
X56990000Y12400000D02*
X56990000Y15960000D01*
X55569400Y8569400D02*
X56990000Y9990000D01*
X46245220Y20376260D02*
X46245220Y20312760D01*
X46245220Y20312760D02*
X44688200Y18755740D01*
X46245220Y21161120D02*
X46245220Y20376260D01*
X46247760Y20378800D02*
X52092300Y20378800D01*
X46245220Y20376260D02*
X46247760Y20378800D01*
X44688200Y19604100D02*
X44688200Y18755740D01*
X52701900Y19769200D02*
X52092300Y20378800D01*
X52701900Y18651600D02*
X52701900Y19769200D01*
X18988480Y4844160D02*
X16382440Y4844160D01*
X18988480Y4844160D02*
X19092620Y4740020D01*
X45059040Y18755740D02*
X44688200Y18755740D01*
D30*
X44878700Y18829400D02*
X44878700Y18781140D01*
D32*
X52701900Y18651600D02*
X52714600Y18651600D01*
X61236300Y30259400D02*
X61236300Y32418400D01*
X59694912Y33959788D02*
X57004281Y33959788D01*
X61236300Y32418400D02*
X59694912Y33959788D01*
X59250000Y24080000D02*
X59250000Y22040000D01*
X59242400Y28242640D02*
X59242400Y24087600D01*
X59242400Y24087600D02*
X59250000Y24080000D01*
D30*
X30634200Y12787840D02*
X29144360Y12787840D01*
X29144360Y12787840D02*
X29104360Y12747840D01*
X38384360Y10904600D02*
X38291120Y10904600D01*
X37960920Y10574400D02*
X35870920Y10574400D01*
X38291120Y10904600D02*
X37960920Y10574400D01*
D32*
X28396640Y23545560D02*
X28396640Y20812960D01*
X28396640Y26037840D02*
X28396640Y23545560D01*
X28396640Y20812960D02*
X30634200Y18575400D01*
X28396640Y26037840D02*
X32194360Y26037840D01*
X32506400Y25725800D02*
X32506400Y24303100D01*
X32194360Y26037840D02*
X32506400Y25725800D01*
X30634200Y18575400D02*
X30634200Y14617840D01*
X30634200Y14617840D02*
X30634200Y12787840D01*
X30634200Y12787840D02*
X30634200Y11138000D01*
D30*
X34132000Y12771500D02*
X34132000Y10612040D01*
X34132000Y10612040D02*
X34094360Y10574400D01*
X35163200Y10574400D02*
X34094360Y10574400D01*
D32*
X34094360Y10574400D02*
X32144360Y10574400D01*
X32144360Y10574400D02*
X31197800Y10574400D01*
D30*
X31197800Y10574400D02*
X31197800Y8651280D01*
X28813200Y8034400D02*
X30580920Y8034400D01*
X31197800Y8651280D02*
X30580920Y8034400D01*
D32*
X31197800Y10574400D02*
X30744360Y11027840D01*
D30*
X35163200Y10574400D02*
X34737800Y10574400D01*
X45374000Y10904600D02*
X38384360Y10904600D01*
X46097900Y10180700D02*
X45374000Y10904600D01*
X46097900Y10180700D02*
X46097900Y7843900D01*
X35163200Y10574400D02*
X35870920Y10574400D01*
D32*
X57004281Y33959788D02*
X57004281Y32617761D01*
X57004281Y32617761D02*
X56984360Y32597840D01*
X15943020Y21747860D02*
X15943020Y20239180D01*
X15943020Y20239180D02*
X16644360Y19537840D01*
X28396640Y33952600D02*
X45826026Y33952600D01*
X28396640Y33952600D02*
X28396640Y26037840D01*
D30*
X36598300Y23376000D02*
X36598300Y24567220D01*
X36598300Y24567220D02*
X36585600Y24579920D01*
D32*
X32836560Y23376000D02*
X36598300Y23376000D01*
X36725300Y23249000D02*
X37614300Y22360000D01*
X37614300Y22360000D02*
X39138300Y22360000D01*
X36598300Y23376000D02*
X36725300Y23249000D01*
X55076739Y33957683D02*
X55076739Y32113661D01*
X55076739Y32113661D02*
X55183480Y32006920D01*
X45831039Y33947587D02*
X45831039Y32766399D01*
X45831039Y32766399D02*
X45790560Y32725920D01*
X15943020Y21747860D02*
X15943020Y21498940D01*
X16661840Y29268800D02*
X16661840Y22466680D01*
X16661840Y22466680D02*
X15943020Y21747860D01*
X32531800Y24277700D02*
X32506400Y24303100D01*
D30*
X28805400Y8042200D02*
X28813200Y8034400D01*
D32*
X45831039Y33947587D02*
X55076739Y33957683D01*
X55076739Y33957683D02*
X57004281Y33959788D01*
X28396640Y33952600D02*
X18155400Y33952600D01*
X16661840Y32459040D02*
X16661840Y29268800D01*
X18155400Y33952600D02*
X16661840Y32459040D01*
X30608800Y18550000D02*
X30634200Y18575400D01*
X16661840Y29268800D02*
X18764960Y29268800D01*
X18764960Y29268800D02*
X18869100Y29164660D01*
X61236300Y30259400D02*
X63027000Y30259400D01*
X63027000Y30259400D02*
X63103200Y30183200D01*
X61236300Y28837000D02*
X61236300Y30259400D01*
X60641940Y28242640D02*
X59242400Y28242640D01*
X61236300Y28837000D02*
X60641940Y28242640D01*
D30*
X30532600Y18677000D02*
X30634200Y18575400D01*
D32*
X32836560Y22395600D02*
X32836560Y22944200D01*
X32836560Y22944200D02*
X32836560Y23376000D01*
X32836560Y23376000D02*
X32836560Y23972940D01*
D30*
X35163200Y10574400D02*
X35163200Y9304400D01*
X28805400Y8042200D02*
X28813200Y8034400D01*
X40174620Y21090000D02*
X41016520Y21090000D01*
X42284360Y24907840D02*
X42284360Y24920320D01*
X42204360Y24907840D02*
X42284360Y24907840D01*
X41644360Y24347840D02*
X42204360Y24907840D01*
X41644360Y21717840D02*
X41644360Y24347840D01*
X41016520Y21090000D02*
X41644360Y21717840D01*
X36598300Y21090000D02*
X40174620Y21090000D01*
X42284360Y24920320D02*
X43148960Y24920320D01*
X36598300Y18550000D02*
X40537840Y18550000D01*
X41165220Y20396580D02*
X43148960Y22380320D01*
X41165220Y19177380D02*
X41165220Y20396580D01*
X40537840Y18550000D02*
X41165220Y19177380D01*
D33*
G36*
X65626900Y18405823D02*
X50397813Y703400D01*
X48944980Y703400D01*
X56165051Y7923472D01*
X56195190Y7943610D01*
X57615787Y9364208D01*
X57615790Y9364210D01*
X57807633Y9651325D01*
X57828607Y9756767D01*
X57875001Y9990000D01*
X57875000Y9990005D01*
X57875000Y15960000D01*
X57807633Y16298675D01*
X57615790Y16585790D01*
X57615787Y16585792D01*
X56997188Y17204391D01*
X59098557Y17204391D01*
X59400118Y16474557D01*
X59958020Y15915681D01*
X60687327Y15612846D01*
X61477009Y15612157D01*
X62206843Y15913718D01*
X62765719Y16471620D01*
X63068554Y17200927D01*
X63069243Y17990609D01*
X62767682Y18720443D01*
X62209780Y19279319D01*
X61480473Y19582154D01*
X60690791Y19582843D01*
X59960957Y19281282D01*
X59402081Y18723380D01*
X59099246Y17994073D01*
X59098557Y17204391D01*
X56997188Y17204391D01*
X56843458Y17358121D01*
X56892440Y17600000D01*
X56892440Y18800000D01*
X56848162Y19035317D01*
X56781671Y19138646D01*
X56783327Y19140302D01*
X56880000Y19373691D01*
X56880000Y19814250D01*
X56721250Y19973000D01*
X55997000Y19973000D01*
X55997000Y19953000D01*
X55743000Y19953000D01*
X55743000Y19973000D01*
X55018750Y19973000D01*
X54860000Y19814250D01*
X54860000Y19373691D01*
X54956673Y19140302D01*
X54958043Y19138932D01*
X54898569Y19051890D01*
X54847560Y18800000D01*
X54847560Y18040500D01*
X54564579Y18040500D01*
X54200285Y18404795D01*
X54200759Y18948382D01*
X53973092Y19499380D01*
X53557826Y19915371D01*
X53519534Y20107874D01*
X53381779Y20314039D01*
X53327690Y20394990D01*
X53327687Y20394992D01*
X52718090Y21004590D01*
X52671542Y21035692D01*
X52430975Y21196433D01*
X52374784Y21207610D01*
X52092300Y21263801D01*
X52092295Y21263800D01*
X48840037Y21263800D01*
X49307880Y21457108D01*
X49729810Y21878303D01*
X49805027Y22059446D01*
X50001761Y22190899D01*
X50041108Y22249786D01*
X50767881Y22976559D01*
X50932628Y23223120D01*
X50990480Y23513960D01*
X50990480Y24355678D01*
X52629713Y25994911D01*
X52449852Y25500270D01*
X52476042Y24904665D01*
X52653584Y24476041D01*
X52906295Y24394100D01*
X53780495Y25268300D01*
X53766353Y25282442D01*
X53945958Y25462047D01*
X53960100Y25447905D01*
X53974243Y25462047D01*
X54153848Y25282442D01*
X54139705Y25268300D01*
X55013905Y24394100D01*
X55266616Y24476041D01*
X55470348Y25036330D01*
X55444158Y25631935D01*
X55266616Y26060559D01*
X55013907Y26142499D01*
X55128575Y26257167D01*
X55048642Y26337100D01*
X55598098Y26337100D01*
X56290000Y25645198D01*
X56290000Y25147334D01*
X56214683Y25133162D01*
X55998559Y24994090D01*
X55853569Y24781890D01*
X55802560Y24530000D01*
X55802560Y23630000D01*
X55846838Y23394683D01*
X55985910Y23178559D01*
X56161232Y23058767D01*
X55998559Y22954090D01*
X55893274Y22800000D01*
X55458763Y22800000D01*
X55458959Y23025082D01*
X55231292Y23576080D01*
X54810097Y23998010D01*
X54769563Y24014841D01*
X54834300Y24214495D01*
X53960100Y25088695D01*
X53085900Y24214495D01*
X53150499Y24015267D01*
X53112320Y23999492D01*
X52690390Y23578297D01*
X52461761Y23027698D01*
X52461241Y22431518D01*
X52688908Y21880520D01*
X53110103Y21458590D01*
X53660702Y21229961D01*
X54256882Y21229441D01*
X54466711Y21316140D01*
X54648400Y21280000D01*
X55235908Y21280000D01*
X55135301Y21238327D01*
X54956673Y21059698D01*
X54860000Y20826309D01*
X54860000Y20385750D01*
X55018750Y20227000D01*
X55743000Y20227000D01*
X55743000Y20247000D01*
X55997000Y20247000D01*
X55997000Y20227000D01*
X56721250Y20227000D01*
X56880000Y20385750D01*
X56880000Y20826309D01*
X56831847Y20942560D01*
X57650000Y20942560D01*
X57885317Y20986838D01*
X58101441Y21125910D01*
X58149134Y21195711D01*
X58185910Y21138559D01*
X58398110Y20993569D01*
X58650000Y20942560D01*
X59850000Y20942560D01*
X60085317Y20986838D01*
X60301441Y21125910D01*
X60446431Y21338110D01*
X60497440Y21590000D01*
X60497440Y22490000D01*
X60453162Y22725317D01*
X60314090Y22941441D01*
X60138768Y23061233D01*
X60301441Y23165910D01*
X60446431Y23378110D01*
X60497440Y23630000D01*
X60497440Y24122987D01*
X62302592Y24122987D01*
X62372057Y23880803D01*
X62895502Y23694056D01*
X63450568Y23721838D01*
X63834343Y23880803D01*
X63903808Y24122987D01*
X63103200Y24923595D01*
X62302592Y24122987D01*
X60497440Y24122987D01*
X60497440Y24530000D01*
X60453162Y24765317D01*
X60314090Y24981441D01*
X60127400Y25109001D01*
X60127400Y25310898D01*
X61694056Y25310898D01*
X61721838Y24755832D01*
X61880803Y24372057D01*
X62122987Y24302592D01*
X62923595Y25103200D01*
X63282805Y25103200D01*
X64083413Y24302592D01*
X64325597Y24372057D01*
X64512344Y24895502D01*
X64484562Y25450568D01*
X64325597Y25834343D01*
X64083413Y25903808D01*
X63282805Y25103200D01*
X62923595Y25103200D01*
X62122987Y25903808D01*
X61880803Y25834343D01*
X61694056Y25310898D01*
X60127400Y25310898D01*
X60127400Y26796370D01*
X60142830Y26796370D01*
X60378147Y26840648D01*
X60594271Y26979720D01*
X60739261Y27191920D01*
X60778313Y27384766D01*
X60924424Y27413830D01*
X60980615Y27425007D01*
X61267730Y27616850D01*
X61801072Y28150193D01*
X61706443Y27922300D01*
X61705958Y27366539D01*
X61918190Y26852897D01*
X62310830Y26459571D01*
X62502927Y26379805D01*
X62372057Y26325597D01*
X62302592Y26083413D01*
X63103200Y25282805D01*
X63903808Y26083413D01*
X63834343Y26325597D01*
X63693882Y26375709D01*
X63893503Y26458190D01*
X64286829Y26850830D01*
X64499957Y27364100D01*
X64500442Y27919861D01*
X64288210Y28433503D01*
X63895570Y28826829D01*
X63687688Y28913149D01*
X63893503Y28998190D01*
X64286829Y29390830D01*
X64499957Y29904100D01*
X64500442Y30459861D01*
X64288210Y30973503D01*
X63895570Y31366829D01*
X63382300Y31579957D01*
X62826539Y31580442D01*
X62312897Y31368210D01*
X62121300Y31176947D01*
X62121300Y32418395D01*
X62121301Y32418400D01*
X62053933Y32757074D01*
X62053933Y32757075D01*
X61862090Y33044190D01*
X61862087Y33044192D01*
X60808380Y34097900D01*
X65626900Y34097900D01*
X65626900Y18405823D01*
X65626900Y18405823D01*
G37*
X65626900Y18405823D02*
X50397813Y703400D01*
X48944980Y703400D01*
X56165051Y7923472D01*
X56195190Y7943610D01*
X57615787Y9364208D01*
X57615790Y9364210D01*
X57807633Y9651325D01*
X57828607Y9756767D01*
X57875001Y9990000D01*
X57875000Y9990005D01*
X57875000Y15960000D01*
X57807633Y16298675D01*
X57615790Y16585790D01*
X57615787Y16585792D01*
X56997188Y17204391D01*
X59098557Y17204391D01*
X59400118Y16474557D01*
X59958020Y15915681D01*
X60687327Y15612846D01*
X61477009Y15612157D01*
X62206843Y15913718D01*
X62765719Y16471620D01*
X63068554Y17200927D01*
X63069243Y17990609D01*
X62767682Y18720443D01*
X62209780Y19279319D01*
X61480473Y19582154D01*
X60690791Y19582843D01*
X59960957Y19281282D01*
X59402081Y18723380D01*
X59099246Y17994073D01*
X59098557Y17204391D01*
X56997188Y17204391D01*
X56843458Y17358121D01*
X56892440Y17600000D01*
X56892440Y18800000D01*
X56848162Y19035317D01*
X56781671Y19138646D01*
X56783327Y19140302D01*
X56880000Y19373691D01*
X56880000Y19814250D01*
X56721250Y19973000D01*
X55997000Y19973000D01*
X55997000Y19953000D01*
X55743000Y19953000D01*
X55743000Y19973000D01*
X55018750Y19973000D01*
X54860000Y19814250D01*
X54860000Y19373691D01*
X54956673Y19140302D01*
X54958043Y19138932D01*
X54898569Y19051890D01*
X54847560Y18800000D01*
X54847560Y18040500D01*
X54564579Y18040500D01*
X54200285Y18404795D01*
X54200759Y18948382D01*
X53973092Y19499380D01*
X53557826Y19915371D01*
X53519534Y20107874D01*
X53381779Y20314039D01*
X53327690Y20394990D01*
X53327687Y20394992D01*
X52718090Y21004590D01*
X52671542Y21035692D01*
X52430975Y21196433D01*
X52374784Y21207610D01*
X52092300Y21263801D01*
X52092295Y21263800D01*
X48840037Y21263800D01*
X49307880Y21457108D01*
X49729810Y21878303D01*
X49805027Y22059446D01*
X50001761Y22190899D01*
X50041108Y22249786D01*
X50767881Y22976559D01*
X50932628Y23223120D01*
X50990480Y23513960D01*
X50990480Y24355678D01*
X52629713Y25994911D01*
X52449852Y25500270D01*
X52476042Y24904665D01*
X52653584Y24476041D01*
X52906295Y24394100D01*
X53780495Y25268300D01*
X53766353Y25282442D01*
X53945958Y25462047D01*
X53960100Y25447905D01*
X53974243Y25462047D01*
X54153848Y25282442D01*
X54139705Y25268300D01*
X55013905Y24394100D01*
X55266616Y24476041D01*
X55470348Y25036330D01*
X55444158Y25631935D01*
X55266616Y26060559D01*
X55013907Y26142499D01*
X55128575Y26257167D01*
X55048642Y26337100D01*
X55598098Y26337100D01*
X56290000Y25645198D01*
X56290000Y25147334D01*
X56214683Y25133162D01*
X55998559Y24994090D01*
X55853569Y24781890D01*
X55802560Y24530000D01*
X55802560Y23630000D01*
X55846838Y23394683D01*
X55985910Y23178559D01*
X56161232Y23058767D01*
X55998559Y22954090D01*
X55893274Y22800000D01*
X55458763Y22800000D01*
X55458959Y23025082D01*
X55231292Y23576080D01*
X54810097Y23998010D01*
X54769563Y24014841D01*
X54834300Y24214495D01*
X53960100Y25088695D01*
X53085900Y24214495D01*
X53150499Y24015267D01*
X53112320Y23999492D01*
X52690390Y23578297D01*
X52461761Y23027698D01*
X52461241Y22431518D01*
X52688908Y21880520D01*
X53110103Y21458590D01*
X53660702Y21229961D01*
X54256882Y21229441D01*
X54466711Y21316140D01*
X54648400Y21280000D01*
X55235908Y21280000D01*
X55135301Y21238327D01*
X54956673Y21059698D01*
X54860000Y20826309D01*
X54860000Y20385750D01*
X55018750Y20227000D01*
X55743000Y20227000D01*
X55743000Y20247000D01*
X55997000Y20247000D01*
X55997000Y20227000D01*
X56721250Y20227000D01*
X56880000Y20385750D01*
X56880000Y20826309D01*
X56831847Y20942560D01*
X57650000Y20942560D01*
X57885317Y20986838D01*
X58101441Y21125910D01*
X58149134Y21195711D01*
X58185910Y21138559D01*
X58398110Y20993569D01*
X58650000Y20942560D01*
X59850000Y20942560D01*
X60085317Y20986838D01*
X60301441Y21125910D01*
X60446431Y21338110D01*
X60497440Y21590000D01*
X60497440Y22490000D01*
X60453162Y22725317D01*
X60314090Y22941441D01*
X60138768Y23061233D01*
X60301441Y23165910D01*
X60446431Y23378110D01*
X60497440Y23630000D01*
X60497440Y24122987D01*
X62302592Y24122987D01*
X62372057Y23880803D01*
X62895502Y23694056D01*
X63450568Y23721838D01*
X63834343Y23880803D01*
X63903808Y24122987D01*
X63103200Y24923595D01*
X62302592Y24122987D01*
X60497440Y24122987D01*
X60497440Y24530000D01*
X60453162Y24765317D01*
X60314090Y24981441D01*
X60127400Y25109001D01*
X60127400Y25310898D01*
X61694056Y25310898D01*
X61721838Y24755832D01*
X61880803Y24372057D01*
X62122987Y24302592D01*
X62923595Y25103200D01*
X63282805Y25103200D01*
X64083413Y24302592D01*
X64325597Y24372057D01*
X64512344Y24895502D01*
X64484562Y25450568D01*
X64325597Y25834343D01*
X64083413Y25903808D01*
X63282805Y25103200D01*
X62923595Y25103200D01*
X62122987Y25903808D01*
X61880803Y25834343D01*
X61694056Y25310898D01*
X60127400Y25310898D01*
X60127400Y26796370D01*
X60142830Y26796370D01*
X60378147Y26840648D01*
X60594271Y26979720D01*
X60739261Y27191920D01*
X60778313Y27384766D01*
X60924424Y27413830D01*
X60980615Y27425007D01*
X61267730Y27616850D01*
X61801072Y28150193D01*
X61706443Y27922300D01*
X61705958Y27366539D01*
X61918190Y26852897D01*
X62310830Y26459571D01*
X62502927Y26379805D01*
X62372057Y26325597D01*
X62302592Y26083413D01*
X63103200Y25282805D01*
X63903808Y26083413D01*
X63834343Y26325597D01*
X63693882Y26375709D01*
X63893503Y26458190D01*
X64286829Y26850830D01*
X64499957Y27364100D01*
X64500442Y27919861D01*
X64288210Y28433503D01*
X63895570Y28826829D01*
X63687688Y28913149D01*
X63893503Y28998190D01*
X64286829Y29390830D01*
X64499957Y29904100D01*
X64500442Y30459861D01*
X64288210Y30973503D01*
X63895570Y31366829D01*
X63382300Y31579957D01*
X62826539Y31580442D01*
X62312897Y31368210D01*
X62121300Y31176947D01*
X62121300Y32418395D01*
X62121301Y32418400D01*
X62053933Y32757074D01*
X62053933Y32757075D01*
X61862090Y33044190D01*
X61862087Y33044192D01*
X60808380Y34097900D01*
X65626900Y34097900D01*
X65626900Y18405823D01*
G36*
X16036050Y33084830D02*
X15844207Y32797715D01*
X15844207Y32797714D01*
X15776839Y32459040D01*
X15776840Y32459035D01*
X15776840Y31732376D01*
X15536120Y32092640D01*
X15005687Y32447063D01*
X14380000Y32571520D01*
X13754313Y32447063D01*
X13223880Y32092640D01*
X12869457Y31562207D01*
X12745000Y30936520D01*
X12745000Y28323480D01*
X12869457Y27697793D01*
X13223880Y27167360D01*
X13754313Y26812937D01*
X14320000Y26700415D01*
X14320000Y25238356D01*
X14238646Y25157002D01*
X14100778Y25157002D01*
X14220124Y25410434D01*
X14189144Y25538355D01*
X13875922Y26096317D01*
X13373020Y26491942D01*
X12757000Y26665000D01*
X11507000Y26665000D01*
X11507000Y25157000D01*
X11527000Y25157000D01*
X11527000Y24903000D01*
X11507000Y24903000D01*
X11507000Y23395000D01*
X12476644Y23395000D01*
X11449084Y22367440D01*
X10660000Y22367440D01*
X10424683Y22323162D01*
X10208559Y22184090D01*
X10063569Y21971890D01*
X10012560Y21720000D01*
X10012560Y19420000D01*
X10056838Y19184683D01*
X10130634Y19070000D01*
X9389395Y19070000D01*
X9456431Y19168110D01*
X9507440Y19420000D01*
X9507440Y21720000D01*
X9463162Y21955317D01*
X9324090Y22171441D01*
X9111890Y22316431D01*
X8860000Y22367440D01*
X6460000Y22367440D01*
X6224683Y22323162D01*
X6008559Y22184090D01*
X5863569Y21971890D01*
X5812560Y21720000D01*
X5812560Y19420000D01*
X5856838Y19184683D01*
X5995910Y18968559D01*
X6208110Y18823569D01*
X6460000Y18772560D01*
X6669382Y18772560D01*
X6726882Y18483490D01*
X6945822Y18155822D01*
X7755822Y17345822D01*
X8083490Y17126882D01*
X8470000Y17050000D01*
X13311644Y17050000D01*
X13474360Y16887284D01*
X13474360Y16301840D01*
X12680390Y16301840D01*
X12445073Y16257562D01*
X12228949Y16118490D01*
X12083959Y15906290D01*
X12032950Y15654400D01*
X12032950Y14054200D01*
X12077228Y13818883D01*
X12216300Y13602759D01*
X12428500Y13457769D01*
X12680390Y13406760D01*
X16279570Y13406760D01*
X16514887Y13451038D01*
X16731011Y13590110D01*
X16876001Y13802310D01*
X16927010Y14054200D01*
X16927010Y14568550D01*
X17547030Y14568550D01*
X17547030Y13927890D01*
X17643703Y13694501D01*
X17822332Y13515873D01*
X18055721Y13419200D01*
X19695870Y13419200D01*
X19854620Y13577950D01*
X19854620Y14727300D01*
X17705780Y14727300D01*
X17547030Y14568550D01*
X16927010Y14568550D01*
X16927010Y15654400D01*
X16903244Y15780710D01*
X17547030Y15780710D01*
X17547030Y15140050D01*
X17705780Y14981300D01*
X19854620Y14981300D01*
X19854620Y16130650D01*
X19695870Y16289400D01*
X18055721Y16289400D01*
X17822332Y16192727D01*
X17643703Y16014099D01*
X17547030Y15780710D01*
X16903244Y15780710D01*
X16882732Y15889717D01*
X16743660Y16105841D01*
X16531460Y16250831D01*
X16279570Y16301840D01*
X15494360Y16301840D01*
X15494360Y17305640D01*
X15417478Y17692150D01*
X15198538Y18019818D01*
X14444178Y18774178D01*
X14116510Y18993118D01*
X13730000Y19070000D01*
X13589395Y19070000D01*
X13656431Y19168110D01*
X13707440Y19420000D01*
X13707440Y21720000D01*
X13699667Y21761311D01*
X13795710Y21857354D01*
X13795710Y20947760D01*
X13839988Y20712443D01*
X13979060Y20496319D01*
X14191260Y20351329D01*
X14443150Y20300320D01*
X15058020Y20300320D01*
X15058020Y20239185D01*
X15058019Y20239180D01*
X15107297Y19991450D01*
X15125387Y19900505D01*
X15237737Y19732361D01*
X15317230Y19613390D01*
X15801615Y19129005D01*
X15851243Y19008897D01*
X16114033Y18745648D01*
X16457561Y18603002D01*
X16829527Y18602678D01*
X17173303Y18744723D01*
X17436552Y19007513D01*
X17579198Y19351041D01*
X17579522Y19723007D01*
X17437477Y20066783D01*
X17204347Y20300320D01*
X17442890Y20300320D01*
X17678207Y20344598D01*
X17894331Y20483670D01*
X18039321Y20695870D01*
X18090330Y20947760D01*
X18090330Y21462110D01*
X18207430Y21462110D01*
X18207430Y20821450D01*
X18304103Y20588061D01*
X18482732Y20409433D01*
X18716121Y20312760D01*
X20056550Y20312760D01*
X20215300Y20471510D01*
X20215300Y21620860D01*
X20469300Y21620860D01*
X20469300Y20471510D01*
X20628050Y20312760D01*
X21968479Y20312760D01*
X22201868Y20409433D01*
X22380497Y20588061D01*
X22477170Y20821450D01*
X22477170Y21462110D01*
X22318420Y21620860D01*
X20469300Y21620860D01*
X20215300Y21620860D01*
X18366180Y21620860D01*
X18207430Y21462110D01*
X18090330Y21462110D01*
X18090330Y22547960D01*
X18066564Y22674270D01*
X18207430Y22674270D01*
X18207430Y22033610D01*
X18366180Y21874860D01*
X20215300Y21874860D01*
X20215300Y23024210D01*
X20469300Y23024210D01*
X20469300Y21874860D01*
X22318420Y21874860D01*
X22421764Y21978204D01*
X22591784Y21567741D01*
X22844495Y21485800D01*
X23718695Y22360000D01*
X24077905Y22360000D01*
X24952105Y21485800D01*
X25204816Y21567741D01*
X25408548Y22128030D01*
X25382358Y22723635D01*
X25204816Y23152259D01*
X24952105Y23234200D01*
X24077905Y22360000D01*
X23718695Y22360000D01*
X22844495Y23234200D01*
X22591784Y23152259D01*
X22445649Y22750369D01*
X22380497Y22907659D01*
X22201868Y23086287D01*
X21968479Y23182960D01*
X20628050Y23182960D01*
X20469300Y23024210D01*
X20215300Y23024210D01*
X20056550Y23182960D01*
X18716121Y23182960D01*
X18482732Y23086287D01*
X18304103Y22907659D01*
X18207430Y22674270D01*
X18066564Y22674270D01*
X18046052Y22783277D01*
X17906980Y22999401D01*
X17694780Y23144391D01*
X17546840Y23174350D01*
X17546840Y25045794D01*
X17716780Y24929679D01*
X17968670Y24878670D01*
X18074881Y24878670D01*
X17954582Y24588959D01*
X17954258Y24216993D01*
X18096303Y23873217D01*
X18359093Y23609968D01*
X18702621Y23467322D01*
X19074587Y23466998D01*
X19418363Y23609043D01*
X19681612Y23871833D01*
X19777473Y24102693D01*
X20799058Y24102693D01*
X20941103Y23758917D01*
X21203893Y23495668D01*
X21547421Y23353022D01*
X21919387Y23352698D01*
X22263163Y23494743D01*
X22526412Y23757533D01*
X22642412Y24036890D01*
X23048303Y23630290D01*
X23088837Y23613459D01*
X23024100Y23413805D01*
X23898300Y22539605D01*
X24772500Y23413805D01*
X24707901Y23613033D01*
X24746080Y23628808D01*
X25168010Y24050003D01*
X25396639Y24600602D01*
X25397159Y25196782D01*
X25169492Y25747780D01*
X24748297Y26169710D01*
X24747369Y26170095D01*
X25168010Y26590003D01*
X25396639Y27140602D01*
X25397159Y27736782D01*
X25169492Y28287780D01*
X24952775Y28504876D01*
X24997217Y28513238D01*
X25213341Y28652310D01*
X25358331Y28864510D01*
X25409340Y29116400D01*
X25409340Y30843600D01*
X25365062Y31078917D01*
X25225990Y31295041D01*
X25013790Y31440031D01*
X24761900Y31491040D01*
X23034700Y31491040D01*
X22799383Y31446762D01*
X22583259Y31307690D01*
X22438269Y31095490D01*
X22387260Y30843600D01*
X22387260Y29116400D01*
X22431538Y28881083D01*
X22570610Y28664959D01*
X22782810Y28519969D01*
X22846120Y28507148D01*
X22628590Y28289997D01*
X22399961Y27739398D01*
X22399441Y27143218D01*
X22627108Y26592220D01*
X23048303Y26170290D01*
X23049231Y26169905D01*
X22628590Y25749997D01*
X22591220Y25660000D01*
X22346360Y25660000D01*
X22055521Y25602148D01*
X21808959Y25437401D01*
X21594540Y25222982D01*
X21549053Y25223022D01*
X21205277Y25080977D01*
X20942028Y24818187D01*
X20799382Y24474659D01*
X20799058Y24102693D01*
X19777473Y24102693D01*
X19824258Y24215361D01*
X19824582Y24587327D01*
X19704202Y24878670D01*
X19769530Y24878670D01*
X20004847Y24922948D01*
X20220971Y25062020D01*
X20365961Y25274220D01*
X20416970Y25526110D01*
X20416970Y27123770D01*
X20372692Y27359087D01*
X20233620Y27575211D01*
X20021420Y27720201D01*
X19904734Y27743830D01*
X20004847Y27762668D01*
X20220971Y27901740D01*
X20365961Y28113940D01*
X20416970Y28365830D01*
X20416970Y29963490D01*
X20372692Y30198807D01*
X20233620Y30414931D01*
X20021420Y30559921D01*
X19769530Y30610930D01*
X17968670Y30610930D01*
X17733353Y30566652D01*
X17546840Y30446634D01*
X17546840Y32092460D01*
X18521979Y33067600D01*
X27511640Y33067600D01*
X27511640Y20812965D01*
X27511639Y20812960D01*
X27563429Y20552599D01*
X27579007Y20474285D01*
X27686934Y20312760D01*
X27770850Y20187170D01*
X29386760Y18571261D01*
X29386760Y18125400D01*
X29431038Y17890083D01*
X29570110Y17673959D01*
X29749200Y17551592D01*
X29749200Y13836200D01*
X29704360Y13845280D01*
X28504360Y13845280D01*
X28269043Y13801002D01*
X28052919Y13661930D01*
X28005226Y13592129D01*
X27968450Y13649281D01*
X27756250Y13794271D01*
X27504360Y13845280D01*
X26304360Y13845280D01*
X26069043Y13801002D01*
X25852919Y13661930D01*
X25707929Y13449730D01*
X25656920Y13197840D01*
X25656920Y12297840D01*
X25701198Y12062523D01*
X25840270Y11846399D01*
X26052470Y11701409D01*
X26304360Y11650400D01*
X26592700Y11650400D01*
X26592700Y11136863D01*
X26560508Y11104727D01*
X26417862Y10761199D01*
X26417538Y10389233D01*
X26559583Y10045457D01*
X26822373Y9782208D01*
X27165901Y9639562D01*
X27537867Y9639238D01*
X27617274Y9672048D01*
X27594260Y9558400D01*
X27594260Y9050400D01*
X27638538Y8815083D01*
X27732866Y8668493D01*
X27645269Y8540290D01*
X27594260Y8288400D01*
X27594260Y7780400D01*
X27638538Y7545083D01*
X27729304Y7404029D01*
X27703373Y7378098D01*
X27606700Y7144709D01*
X27606700Y7050150D01*
X27765450Y6891400D01*
X28686200Y6891400D01*
X28686200Y6911400D01*
X28940200Y6911400D01*
X28940200Y6891400D01*
X29860950Y6891400D01*
X30019700Y7050150D01*
X30019700Y7144709D01*
X29965980Y7274400D01*
X30580920Y7274400D01*
X30871759Y7332252D01*
X31118321Y7496999D01*
X31735201Y8113879D01*
X31899948Y8360441D01*
X31957800Y8651280D01*
X31957800Y9689400D01*
X33970788Y9689400D01*
X33944260Y9558400D01*
X33944260Y9050400D01*
X33988538Y8815083D01*
X34082866Y8668493D01*
X33995269Y8540290D01*
X33944260Y8288400D01*
X33944260Y7780400D01*
X33988538Y7545083D01*
X34082866Y7398493D01*
X33995269Y7270290D01*
X33944260Y7018400D01*
X33944260Y6510400D01*
X33988538Y6275083D01*
X34127610Y6058959D01*
X34339810Y5913969D01*
X34403200Y5901132D01*
X34403200Y5749000D01*
X34461052Y5458161D01*
X34625799Y5211599D01*
X35156959Y4680439D01*
X35403521Y4515692D01*
X35694360Y4457840D01*
X37639593Y4457840D01*
X37639441Y4283218D01*
X37867108Y3732220D01*
X38288303Y3310290D01*
X38289231Y3309905D01*
X37868590Y2889997D01*
X37868205Y2889069D01*
X37448297Y3309710D01*
X36897698Y3538339D01*
X36301518Y3538859D01*
X35750520Y3311192D01*
X35328590Y2889997D01*
X35328205Y2889069D01*
X34908297Y3309710D01*
X34357698Y3538339D01*
X33761518Y3538859D01*
X33210520Y3311192D01*
X32788590Y2889997D01*
X32771759Y2849463D01*
X32572105Y2914200D01*
X31697905Y2040000D01*
X31712048Y2025857D01*
X31532443Y1846252D01*
X31518300Y1860395D01*
X31504158Y1846252D01*
X31324553Y2025857D01*
X31338695Y2040000D01*
X30464495Y2914200D01*
X30211784Y2832259D01*
X30008052Y2271970D01*
X30034242Y1676365D01*
X30103944Y1508090D01*
X25303312Y1515846D01*
X25396639Y1740602D01*
X25397159Y2336782D01*
X25169492Y2887780D01*
X24963826Y3093805D01*
X30644100Y3093805D01*
X31518300Y2219605D01*
X32392500Y3093805D01*
X32310559Y3346516D01*
X31750270Y3550248D01*
X31154665Y3524058D01*
X30726041Y3346516D01*
X30644100Y3093805D01*
X24963826Y3093805D01*
X24748297Y3309710D01*
X24747369Y3310095D01*
X25168010Y3730003D01*
X25396639Y4280602D01*
X25397159Y4876782D01*
X25169492Y5427780D01*
X24748297Y5849710D01*
X24747369Y5850095D01*
X25168010Y6270003D01*
X25254647Y6478650D01*
X27606700Y6478650D01*
X27606700Y6384091D01*
X27703373Y6150702D01*
X27882001Y5972073D01*
X28115390Y5875400D01*
X28527450Y5875400D01*
X28686200Y6034150D01*
X28686200Y6637400D01*
X28940200Y6637400D01*
X28940200Y6034150D01*
X29098950Y5875400D01*
X29511010Y5875400D01*
X29744399Y5972073D01*
X29923027Y6150702D01*
X30019700Y6384091D01*
X30019700Y6478650D01*
X29860950Y6637400D01*
X28940200Y6637400D01*
X28686200Y6637400D01*
X27765450Y6637400D01*
X27606700Y6478650D01*
X25254647Y6478650D01*
X25396639Y6820602D01*
X25397159Y7416782D01*
X25169492Y7967780D01*
X24748297Y8389710D01*
X24747369Y8390095D01*
X25168010Y8810003D01*
X25396639Y9360602D01*
X25397159Y9956782D01*
X25169492Y10507780D01*
X24748297Y10929710D01*
X24747369Y10930095D01*
X25168010Y11350003D01*
X25396639Y11900602D01*
X25397159Y12496782D01*
X25169492Y13047780D01*
X24748297Y13469710D01*
X24747369Y13470095D01*
X25168010Y13890003D01*
X25396639Y14440602D01*
X25397159Y15036782D01*
X25169492Y15587780D01*
X24748297Y16009710D01*
X24747369Y16010095D01*
X25168010Y16430003D01*
X25396639Y16980602D01*
X25397159Y17576782D01*
X25169492Y18127780D01*
X24748297Y18549710D01*
X24747369Y18550095D01*
X25168010Y18970003D01*
X25396639Y19520602D01*
X25397159Y20116782D01*
X25169492Y20667780D01*
X24748297Y21089710D01*
X24707763Y21106541D01*
X24772500Y21306195D01*
X23898300Y22180395D01*
X23024100Y21306195D01*
X23088699Y21106967D01*
X23050520Y21091192D01*
X22628590Y20669997D01*
X22399961Y20119398D01*
X22399441Y19523218D01*
X22627108Y18972220D01*
X23048303Y18550290D01*
X23049231Y18549905D01*
X22628590Y18129997D01*
X22399961Y17579398D01*
X22399441Y16983218D01*
X22627108Y16432220D01*
X23048303Y16010290D01*
X23049231Y16009905D01*
X22628590Y15589997D01*
X22399961Y15039398D01*
X22399910Y14981302D01*
X22257462Y14981302D01*
X22416210Y15140050D01*
X22416210Y15780710D01*
X22319537Y16014099D01*
X22140908Y16192727D01*
X21907519Y16289400D01*
X20267370Y16289400D01*
X20108620Y16130650D01*
X20108620Y14981300D01*
X20128620Y14981300D01*
X20128620Y14727300D01*
X20108620Y14727300D01*
X20108620Y13577950D01*
X20267370Y13419200D01*
X21907519Y13419200D01*
X22140908Y13515873D01*
X22319537Y13694501D01*
X22416210Y13927890D01*
X22416210Y14402634D01*
X22627108Y13892220D01*
X23048303Y13470290D01*
X23049231Y13469905D01*
X22628590Y13049997D01*
X22399961Y12499398D01*
X22399441Y11903218D01*
X22627108Y11352220D01*
X23048303Y10930290D01*
X23049231Y10929905D01*
X22628590Y10509997D01*
X22399961Y9959398D01*
X22399441Y9363218D01*
X22627108Y8812220D01*
X23048303Y8390290D01*
X23049231Y8389905D01*
X22628590Y7969997D01*
X22399961Y7419398D01*
X22399441Y6823218D01*
X22627108Y6272220D01*
X23048303Y5850290D01*
X23049231Y5849905D01*
X22628590Y5429997D01*
X22399961Y4879398D01*
X22399441Y4283218D01*
X22627108Y3732220D01*
X23048303Y3310290D01*
X23049231Y3309905D01*
X22628590Y2889997D01*
X22399961Y2339398D01*
X22399441Y1743218D01*
X22491512Y1520389D01*
X21291131Y1522328D01*
X20157508Y2655952D01*
X20344161Y2776060D01*
X20489151Y2988260D01*
X20540160Y3240150D01*
X20540160Y6239890D01*
X20495882Y6475207D01*
X20356810Y6691331D01*
X20144610Y6836321D01*
X19892720Y6887330D01*
X18292520Y6887330D01*
X18057203Y6843052D01*
X17841079Y6703980D01*
X17696089Y6491780D01*
X17645080Y6239890D01*
X17645080Y5729160D01*
X16689262Y5729160D01*
X16569239Y5778998D01*
X16197273Y5779322D01*
X15853497Y5637277D01*
X15590248Y5374487D01*
X15447602Y5030959D01*
X15447278Y4658993D01*
X15589323Y4315217D01*
X15852113Y4051968D01*
X16195641Y3909322D01*
X16567607Y3908998D01*
X16689009Y3959160D01*
X17645080Y3959160D01*
X17645080Y3240150D01*
X17689358Y3004833D01*
X17828430Y2788709D01*
X18040630Y2643719D01*
X18207620Y2609903D01*
X18207620Y2469265D01*
X18207619Y2469260D01*
X18257280Y2219605D01*
X18274987Y2130585D01*
X18335514Y2040000D01*
X18466830Y1843470D01*
X19606901Y703400D01*
X18082450Y703400D01*
X6184239Y8853550D01*
X17657520Y8853550D01*
X17657520Y7513121D01*
X17754193Y7279732D01*
X17932821Y7101103D01*
X18166210Y7004430D01*
X18806870Y7004430D01*
X18965620Y7163180D01*
X18965620Y9012300D01*
X19219620Y9012300D01*
X19219620Y7163180D01*
X19378370Y7004430D01*
X20019030Y7004430D01*
X20252419Y7101103D01*
X20431047Y7279732D01*
X20527720Y7513121D01*
X20527720Y8853550D01*
X20368970Y9012300D01*
X19219620Y9012300D01*
X18965620Y9012300D01*
X17816270Y9012300D01*
X17657520Y8853550D01*
X6184239Y8853550D01*
X3393059Y10765479D01*
X17657520Y10765479D01*
X17657520Y9425050D01*
X17816270Y9266300D01*
X18965620Y9266300D01*
X18965620Y11115420D01*
X19219620Y11115420D01*
X19219620Y9266300D01*
X20368970Y9266300D01*
X20527720Y9425050D01*
X20527720Y10765479D01*
X20431047Y10998868D01*
X20252419Y11177497D01*
X20019030Y11274170D01*
X19378370Y11274170D01*
X19219620Y11115420D01*
X18965620Y11115420D01*
X18806870Y11274170D01*
X18166210Y11274170D01*
X17932821Y11177497D01*
X17754193Y10998868D01*
X17657520Y10765479D01*
X3393059Y10765479D01*
X815921Y12530791D01*
X3612257Y12530791D01*
X3913818Y11800957D01*
X4471720Y11242081D01*
X5201027Y10939246D01*
X5990709Y10938557D01*
X6720543Y11240118D01*
X7279419Y11798020D01*
X7582254Y12527327D01*
X7582943Y13317009D01*
X7281382Y14046843D01*
X6723480Y14605719D01*
X5994173Y14908554D01*
X5204491Y14909243D01*
X4474657Y14607682D01*
X3915781Y14049780D01*
X3612946Y13320473D01*
X3612257Y12530791D01*
X815921Y12530791D01*
X703100Y12608072D01*
X703100Y15021072D01*
X1967500Y15021072D01*
X1967500Y24649566D01*
X8539876Y24649566D01*
X8570856Y24521645D01*
X8884078Y23963683D01*
X9386980Y23568058D01*
X10003000Y23395000D01*
X11253000Y23395000D01*
X11253000Y24903000D01*
X8659223Y24903000D01*
X8539876Y24649566D01*
X1967500Y24649566D01*
X1967500Y25410434D01*
X8539876Y25410434D01*
X8659223Y25157000D01*
X11253000Y25157000D01*
X11253000Y26665000D01*
X10003000Y26665000D01*
X9386980Y26491942D01*
X8884078Y26096317D01*
X8570856Y25538355D01*
X8539876Y25410434D01*
X1967500Y25410434D01*
X1967500Y30936520D01*
X6445000Y30936520D01*
X6445000Y28323480D01*
X6569457Y27697793D01*
X6923880Y27167360D01*
X7454313Y26812937D01*
X8080000Y26688480D01*
X8705687Y26812937D01*
X9236120Y27167360D01*
X9590543Y27697793D01*
X9715000Y28323480D01*
X9715000Y30936520D01*
X9590543Y31562207D01*
X9236120Y32092640D01*
X8705687Y32447063D01*
X8080000Y32571520D01*
X7454313Y32447063D01*
X6923880Y32092640D01*
X6569457Y31562207D01*
X6445000Y30936520D01*
X1967500Y30936520D01*
X1967500Y34097900D01*
X17049121Y34097900D01*
X16036050Y33084830D01*
X16036050Y33084830D01*
G37*
X16036050Y33084830D02*
X15844207Y32797715D01*
X15844207Y32797714D01*
X15776839Y32459040D01*
X15776840Y32459035D01*
X15776840Y31732376D01*
X15536120Y32092640D01*
X15005687Y32447063D01*
X14380000Y32571520D01*
X13754313Y32447063D01*
X13223880Y32092640D01*
X12869457Y31562207D01*
X12745000Y30936520D01*
X12745000Y28323480D01*
X12869457Y27697793D01*
X13223880Y27167360D01*
X13754313Y26812937D01*
X14320000Y26700415D01*
X14320000Y25238356D01*
X14238646Y25157002D01*
X14100778Y25157002D01*
X14220124Y25410434D01*
X14189144Y25538355D01*
X13875922Y26096317D01*
X13373020Y26491942D01*
X12757000Y26665000D01*
X11507000Y26665000D01*
X11507000Y25157000D01*
X11527000Y25157000D01*
X11527000Y24903000D01*
X11507000Y24903000D01*
X11507000Y23395000D01*
X12476644Y23395000D01*
X11449084Y22367440D01*
X10660000Y22367440D01*
X10424683Y22323162D01*
X10208559Y22184090D01*
X10063569Y21971890D01*
X10012560Y21720000D01*
X10012560Y19420000D01*
X10056838Y19184683D01*
X10130634Y19070000D01*
X9389395Y19070000D01*
X9456431Y19168110D01*
X9507440Y19420000D01*
X9507440Y21720000D01*
X9463162Y21955317D01*
X9324090Y22171441D01*
X9111890Y22316431D01*
X8860000Y22367440D01*
X6460000Y22367440D01*
X6224683Y22323162D01*
X6008559Y22184090D01*
X5863569Y21971890D01*
X5812560Y21720000D01*
X5812560Y19420000D01*
X5856838Y19184683D01*
X5995910Y18968559D01*
X6208110Y18823569D01*
X6460000Y18772560D01*
X6669382Y18772560D01*
X6726882Y18483490D01*
X6945822Y18155822D01*
X7755822Y17345822D01*
X8083490Y17126882D01*
X8470000Y17050000D01*
X13311644Y17050000D01*
X13474360Y16887284D01*
X13474360Y16301840D01*
X12680390Y16301840D01*
X12445073Y16257562D01*
X12228949Y16118490D01*
X12083959Y15906290D01*
X12032950Y15654400D01*
X12032950Y14054200D01*
X12077228Y13818883D01*
X12216300Y13602759D01*
X12428500Y13457769D01*
X12680390Y13406760D01*
X16279570Y13406760D01*
X16514887Y13451038D01*
X16731011Y13590110D01*
X16876001Y13802310D01*
X16927010Y14054200D01*
X16927010Y14568550D01*
X17547030Y14568550D01*
X17547030Y13927890D01*
X17643703Y13694501D01*
X17822332Y13515873D01*
X18055721Y13419200D01*
X19695870Y13419200D01*
X19854620Y13577950D01*
X19854620Y14727300D01*
X17705780Y14727300D01*
X17547030Y14568550D01*
X16927010Y14568550D01*
X16927010Y15654400D01*
X16903244Y15780710D01*
X17547030Y15780710D01*
X17547030Y15140050D01*
X17705780Y14981300D01*
X19854620Y14981300D01*
X19854620Y16130650D01*
X19695870Y16289400D01*
X18055721Y16289400D01*
X17822332Y16192727D01*
X17643703Y16014099D01*
X17547030Y15780710D01*
X16903244Y15780710D01*
X16882732Y15889717D01*
X16743660Y16105841D01*
X16531460Y16250831D01*
X16279570Y16301840D01*
X15494360Y16301840D01*
X15494360Y17305640D01*
X15417478Y17692150D01*
X15198538Y18019818D01*
X14444178Y18774178D01*
X14116510Y18993118D01*
X13730000Y19070000D01*
X13589395Y19070000D01*
X13656431Y19168110D01*
X13707440Y19420000D01*
X13707440Y21720000D01*
X13699667Y21761311D01*
X13795710Y21857354D01*
X13795710Y20947760D01*
X13839988Y20712443D01*
X13979060Y20496319D01*
X14191260Y20351329D01*
X14443150Y20300320D01*
X15058020Y20300320D01*
X15058020Y20239185D01*
X15058019Y20239180D01*
X15107297Y19991450D01*
X15125387Y19900505D01*
X15237737Y19732361D01*
X15317230Y19613390D01*
X15801615Y19129005D01*
X15851243Y19008897D01*
X16114033Y18745648D01*
X16457561Y18603002D01*
X16829527Y18602678D01*
X17173303Y18744723D01*
X17436552Y19007513D01*
X17579198Y19351041D01*
X17579522Y19723007D01*
X17437477Y20066783D01*
X17204347Y20300320D01*
X17442890Y20300320D01*
X17678207Y20344598D01*
X17894331Y20483670D01*
X18039321Y20695870D01*
X18090330Y20947760D01*
X18090330Y21462110D01*
X18207430Y21462110D01*
X18207430Y20821450D01*
X18304103Y20588061D01*
X18482732Y20409433D01*
X18716121Y20312760D01*
X20056550Y20312760D01*
X20215300Y20471510D01*
X20215300Y21620860D01*
X20469300Y21620860D01*
X20469300Y20471510D01*
X20628050Y20312760D01*
X21968479Y20312760D01*
X22201868Y20409433D01*
X22380497Y20588061D01*
X22477170Y20821450D01*
X22477170Y21462110D01*
X22318420Y21620860D01*
X20469300Y21620860D01*
X20215300Y21620860D01*
X18366180Y21620860D01*
X18207430Y21462110D01*
X18090330Y21462110D01*
X18090330Y22547960D01*
X18066564Y22674270D01*
X18207430Y22674270D01*
X18207430Y22033610D01*
X18366180Y21874860D01*
X20215300Y21874860D01*
X20215300Y23024210D01*
X20469300Y23024210D01*
X20469300Y21874860D01*
X22318420Y21874860D01*
X22421764Y21978204D01*
X22591784Y21567741D01*
X22844495Y21485800D01*
X23718695Y22360000D01*
X24077905Y22360000D01*
X24952105Y21485800D01*
X25204816Y21567741D01*
X25408548Y22128030D01*
X25382358Y22723635D01*
X25204816Y23152259D01*
X24952105Y23234200D01*
X24077905Y22360000D01*
X23718695Y22360000D01*
X22844495Y23234200D01*
X22591784Y23152259D01*
X22445649Y22750369D01*
X22380497Y22907659D01*
X22201868Y23086287D01*
X21968479Y23182960D01*
X20628050Y23182960D01*
X20469300Y23024210D01*
X20215300Y23024210D01*
X20056550Y23182960D01*
X18716121Y23182960D01*
X18482732Y23086287D01*
X18304103Y22907659D01*
X18207430Y22674270D01*
X18066564Y22674270D01*
X18046052Y22783277D01*
X17906980Y22999401D01*
X17694780Y23144391D01*
X17546840Y23174350D01*
X17546840Y25045794D01*
X17716780Y24929679D01*
X17968670Y24878670D01*
X18074881Y24878670D01*
X17954582Y24588959D01*
X17954258Y24216993D01*
X18096303Y23873217D01*
X18359093Y23609968D01*
X18702621Y23467322D01*
X19074587Y23466998D01*
X19418363Y23609043D01*
X19681612Y23871833D01*
X19777473Y24102693D01*
X20799058Y24102693D01*
X20941103Y23758917D01*
X21203893Y23495668D01*
X21547421Y23353022D01*
X21919387Y23352698D01*
X22263163Y23494743D01*
X22526412Y23757533D01*
X22642412Y24036890D01*
X23048303Y23630290D01*
X23088837Y23613459D01*
X23024100Y23413805D01*
X23898300Y22539605D01*
X24772500Y23413805D01*
X24707901Y23613033D01*
X24746080Y23628808D01*
X25168010Y24050003D01*
X25396639Y24600602D01*
X25397159Y25196782D01*
X25169492Y25747780D01*
X24748297Y26169710D01*
X24747369Y26170095D01*
X25168010Y26590003D01*
X25396639Y27140602D01*
X25397159Y27736782D01*
X25169492Y28287780D01*
X24952775Y28504876D01*
X24997217Y28513238D01*
X25213341Y28652310D01*
X25358331Y28864510D01*
X25409340Y29116400D01*
X25409340Y30843600D01*
X25365062Y31078917D01*
X25225990Y31295041D01*
X25013790Y31440031D01*
X24761900Y31491040D01*
X23034700Y31491040D01*
X22799383Y31446762D01*
X22583259Y31307690D01*
X22438269Y31095490D01*
X22387260Y30843600D01*
X22387260Y29116400D01*
X22431538Y28881083D01*
X22570610Y28664959D01*
X22782810Y28519969D01*
X22846120Y28507148D01*
X22628590Y28289997D01*
X22399961Y27739398D01*
X22399441Y27143218D01*
X22627108Y26592220D01*
X23048303Y26170290D01*
X23049231Y26169905D01*
X22628590Y25749997D01*
X22591220Y25660000D01*
X22346360Y25660000D01*
X22055521Y25602148D01*
X21808959Y25437401D01*
X21594540Y25222982D01*
X21549053Y25223022D01*
X21205277Y25080977D01*
X20942028Y24818187D01*
X20799382Y24474659D01*
X20799058Y24102693D01*
X19777473Y24102693D01*
X19824258Y24215361D01*
X19824582Y24587327D01*
X19704202Y24878670D01*
X19769530Y24878670D01*
X20004847Y24922948D01*
X20220971Y25062020D01*
X20365961Y25274220D01*
X20416970Y25526110D01*
X20416970Y27123770D01*
X20372692Y27359087D01*
X20233620Y27575211D01*
X20021420Y27720201D01*
X19904734Y27743830D01*
X20004847Y27762668D01*
X20220971Y27901740D01*
X20365961Y28113940D01*
X20416970Y28365830D01*
X20416970Y29963490D01*
X20372692Y30198807D01*
X20233620Y30414931D01*
X20021420Y30559921D01*
X19769530Y30610930D01*
X17968670Y30610930D01*
X17733353Y30566652D01*
X17546840Y30446634D01*
X17546840Y32092460D01*
X18521979Y33067600D01*
X27511640Y33067600D01*
X27511640Y20812965D01*
X27511639Y20812960D01*
X27563429Y20552599D01*
X27579007Y20474285D01*
X27686934Y20312760D01*
X27770850Y20187170D01*
X29386760Y18571261D01*
X29386760Y18125400D01*
X29431038Y17890083D01*
X29570110Y17673959D01*
X29749200Y17551592D01*
X29749200Y13836200D01*
X29704360Y13845280D01*
X28504360Y13845280D01*
X28269043Y13801002D01*
X28052919Y13661930D01*
X28005226Y13592129D01*
X27968450Y13649281D01*
X27756250Y13794271D01*
X27504360Y13845280D01*
X26304360Y13845280D01*
X26069043Y13801002D01*
X25852919Y13661930D01*
X25707929Y13449730D01*
X25656920Y13197840D01*
X25656920Y12297840D01*
X25701198Y12062523D01*
X25840270Y11846399D01*
X26052470Y11701409D01*
X26304360Y11650400D01*
X26592700Y11650400D01*
X26592700Y11136863D01*
X26560508Y11104727D01*
X26417862Y10761199D01*
X26417538Y10389233D01*
X26559583Y10045457D01*
X26822373Y9782208D01*
X27165901Y9639562D01*
X27537867Y9639238D01*
X27617274Y9672048D01*
X27594260Y9558400D01*
X27594260Y9050400D01*
X27638538Y8815083D01*
X27732866Y8668493D01*
X27645269Y8540290D01*
X27594260Y8288400D01*
X27594260Y7780400D01*
X27638538Y7545083D01*
X27729304Y7404029D01*
X27703373Y7378098D01*
X27606700Y7144709D01*
X27606700Y7050150D01*
X27765450Y6891400D01*
X28686200Y6891400D01*
X28686200Y6911400D01*
X28940200Y6911400D01*
X28940200Y6891400D01*
X29860950Y6891400D01*
X30019700Y7050150D01*
X30019700Y7144709D01*
X29965980Y7274400D01*
X30580920Y7274400D01*
X30871759Y7332252D01*
X31118321Y7496999D01*
X31735201Y8113879D01*
X31899948Y8360441D01*
X31957800Y8651280D01*
X31957800Y9689400D01*
X33970788Y9689400D01*
X33944260Y9558400D01*
X33944260Y9050400D01*
X33988538Y8815083D01*
X34082866Y8668493D01*
X33995269Y8540290D01*
X33944260Y8288400D01*
X33944260Y7780400D01*
X33988538Y7545083D01*
X34082866Y7398493D01*
X33995269Y7270290D01*
X33944260Y7018400D01*
X33944260Y6510400D01*
X33988538Y6275083D01*
X34127610Y6058959D01*
X34339810Y5913969D01*
X34403200Y5901132D01*
X34403200Y5749000D01*
X34461052Y5458161D01*
X34625799Y5211599D01*
X35156959Y4680439D01*
X35403521Y4515692D01*
X35694360Y4457840D01*
X37639593Y4457840D01*
X37639441Y4283218D01*
X37867108Y3732220D01*
X38288303Y3310290D01*
X38289231Y3309905D01*
X37868590Y2889997D01*
X37868205Y2889069D01*
X37448297Y3309710D01*
X36897698Y3538339D01*
X36301518Y3538859D01*
X35750520Y3311192D01*
X35328590Y2889997D01*
X35328205Y2889069D01*
X34908297Y3309710D01*
X34357698Y3538339D01*
X33761518Y3538859D01*
X33210520Y3311192D01*
X32788590Y2889997D01*
X32771759Y2849463D01*
X32572105Y2914200D01*
X31697905Y2040000D01*
X31712048Y2025857D01*
X31532443Y1846252D01*
X31518300Y1860395D01*
X31504158Y1846252D01*
X31324553Y2025857D01*
X31338695Y2040000D01*
X30464495Y2914200D01*
X30211784Y2832259D01*
X30008052Y2271970D01*
X30034242Y1676365D01*
X30103944Y1508090D01*
X25303312Y1515846D01*
X25396639Y1740602D01*
X25397159Y2336782D01*
X25169492Y2887780D01*
X24963826Y3093805D01*
X30644100Y3093805D01*
X31518300Y2219605D01*
X32392500Y3093805D01*
X32310559Y3346516D01*
X31750270Y3550248D01*
X31154665Y3524058D01*
X30726041Y3346516D01*
X30644100Y3093805D01*
X24963826Y3093805D01*
X24748297Y3309710D01*
X24747369Y3310095D01*
X25168010Y3730003D01*
X25396639Y4280602D01*
X25397159Y4876782D01*
X25169492Y5427780D01*
X24748297Y5849710D01*
X24747369Y5850095D01*
X25168010Y6270003D01*
X25254647Y6478650D01*
X27606700Y6478650D01*
X27606700Y6384091D01*
X27703373Y6150702D01*
X27882001Y5972073D01*
X28115390Y5875400D01*
X28527450Y5875400D01*
X28686200Y6034150D01*
X28686200Y6637400D01*
X28940200Y6637400D01*
X28940200Y6034150D01*
X29098950Y5875400D01*
X29511010Y5875400D01*
X29744399Y5972073D01*
X29923027Y6150702D01*
X30019700Y6384091D01*
X30019700Y6478650D01*
X29860950Y6637400D01*
X28940200Y6637400D01*
X28686200Y6637400D01*
X27765450Y6637400D01*
X27606700Y6478650D01*
X25254647Y6478650D01*
X25396639Y6820602D01*
X25397159Y7416782D01*
X25169492Y7967780D01*
X24748297Y8389710D01*
X24747369Y8390095D01*
X25168010Y8810003D01*
X25396639Y9360602D01*
X25397159Y9956782D01*
X25169492Y10507780D01*
X24748297Y10929710D01*
X24747369Y10930095D01*
X25168010Y11350003D01*
X25396639Y11900602D01*
X25397159Y12496782D01*
X25169492Y13047780D01*
X24748297Y13469710D01*
X24747369Y13470095D01*
X25168010Y13890003D01*
X25396639Y14440602D01*
X25397159Y15036782D01*
X25169492Y15587780D01*
X24748297Y16009710D01*
X24747369Y16010095D01*
X25168010Y16430003D01*
X25396639Y16980602D01*
X25397159Y17576782D01*
X25169492Y18127780D01*
X24748297Y18549710D01*
X24747369Y18550095D01*
X25168010Y18970003D01*
X25396639Y19520602D01*
X25397159Y20116782D01*
X25169492Y20667780D01*
X24748297Y21089710D01*
X24707763Y21106541D01*
X24772500Y21306195D01*
X23898300Y22180395D01*
X23024100Y21306195D01*
X23088699Y21106967D01*
X23050520Y21091192D01*
X22628590Y20669997D01*
X22399961Y20119398D01*
X22399441Y19523218D01*
X22627108Y18972220D01*
X23048303Y18550290D01*
X23049231Y18549905D01*
X22628590Y18129997D01*
X22399961Y17579398D01*
X22399441Y16983218D01*
X22627108Y16432220D01*
X23048303Y16010290D01*
X23049231Y16009905D01*
X22628590Y15589997D01*
X22399961Y15039398D01*
X22399910Y14981302D01*
X22257462Y14981302D01*
X22416210Y15140050D01*
X22416210Y15780710D01*
X22319537Y16014099D01*
X22140908Y16192727D01*
X21907519Y16289400D01*
X20267370Y16289400D01*
X20108620Y16130650D01*
X20108620Y14981300D01*
X20128620Y14981300D01*
X20128620Y14727300D01*
X20108620Y14727300D01*
X20108620Y13577950D01*
X20267370Y13419200D01*
X21907519Y13419200D01*
X22140908Y13515873D01*
X22319537Y13694501D01*
X22416210Y13927890D01*
X22416210Y14402634D01*
X22627108Y13892220D01*
X23048303Y13470290D01*
X23049231Y13469905D01*
X22628590Y13049997D01*
X22399961Y12499398D01*
X22399441Y11903218D01*
X22627108Y11352220D01*
X23048303Y10930290D01*
X23049231Y10929905D01*
X22628590Y10509997D01*
X22399961Y9959398D01*
X22399441Y9363218D01*
X22627108Y8812220D01*
X23048303Y8390290D01*
X23049231Y8389905D01*
X22628590Y7969997D01*
X22399961Y7419398D01*
X22399441Y6823218D01*
X22627108Y6272220D01*
X23048303Y5850290D01*
X23049231Y5849905D01*
X22628590Y5429997D01*
X22399961Y4879398D01*
X22399441Y4283218D01*
X22627108Y3732220D01*
X23048303Y3310290D01*
X23049231Y3309905D01*
X22628590Y2889997D01*
X22399961Y2339398D01*
X22399441Y1743218D01*
X22491512Y1520389D01*
X21291131Y1522328D01*
X20157508Y2655952D01*
X20344161Y2776060D01*
X20489151Y2988260D01*
X20540160Y3240150D01*
X20540160Y6239890D01*
X20495882Y6475207D01*
X20356810Y6691331D01*
X20144610Y6836321D01*
X19892720Y6887330D01*
X18292520Y6887330D01*
X18057203Y6843052D01*
X17841079Y6703980D01*
X17696089Y6491780D01*
X17645080Y6239890D01*
X17645080Y5729160D01*
X16689262Y5729160D01*
X16569239Y5778998D01*
X16197273Y5779322D01*
X15853497Y5637277D01*
X15590248Y5374487D01*
X15447602Y5030959D01*
X15447278Y4658993D01*
X15589323Y4315217D01*
X15852113Y4051968D01*
X16195641Y3909322D01*
X16567607Y3908998D01*
X16689009Y3959160D01*
X17645080Y3959160D01*
X17645080Y3240150D01*
X17689358Y3004833D01*
X17828430Y2788709D01*
X18040630Y2643719D01*
X18207620Y2609903D01*
X18207620Y2469265D01*
X18207619Y2469260D01*
X18257280Y2219605D01*
X18274987Y2130585D01*
X18335514Y2040000D01*
X18466830Y1843470D01*
X19606901Y703400D01*
X18082450Y703400D01*
X6184239Y8853550D01*
X17657520Y8853550D01*
X17657520Y7513121D01*
X17754193Y7279732D01*
X17932821Y7101103D01*
X18166210Y7004430D01*
X18806870Y7004430D01*
X18965620Y7163180D01*
X18965620Y9012300D01*
X19219620Y9012300D01*
X19219620Y7163180D01*
X19378370Y7004430D01*
X20019030Y7004430D01*
X20252419Y7101103D01*
X20431047Y7279732D01*
X20527720Y7513121D01*
X20527720Y8853550D01*
X20368970Y9012300D01*
X19219620Y9012300D01*
X18965620Y9012300D01*
X17816270Y9012300D01*
X17657520Y8853550D01*
X6184239Y8853550D01*
X3393059Y10765479D01*
X17657520Y10765479D01*
X17657520Y9425050D01*
X17816270Y9266300D01*
X18965620Y9266300D01*
X18965620Y11115420D01*
X19219620Y11115420D01*
X19219620Y9266300D01*
X20368970Y9266300D01*
X20527720Y9425050D01*
X20527720Y10765479D01*
X20431047Y10998868D01*
X20252419Y11177497D01*
X20019030Y11274170D01*
X19378370Y11274170D01*
X19219620Y11115420D01*
X18965620Y11115420D01*
X18806870Y11274170D01*
X18166210Y11274170D01*
X17932821Y11177497D01*
X17754193Y10998868D01*
X17657520Y10765479D01*
X3393059Y10765479D01*
X815921Y12530791D01*
X3612257Y12530791D01*
X3913818Y11800957D01*
X4471720Y11242081D01*
X5201027Y10939246D01*
X5990709Y10938557D01*
X6720543Y11240118D01*
X7279419Y11798020D01*
X7582254Y12527327D01*
X7582943Y13317009D01*
X7281382Y14046843D01*
X6723480Y14605719D01*
X5994173Y14908554D01*
X5204491Y14909243D01*
X4474657Y14607682D01*
X3915781Y14049780D01*
X3612946Y13320473D01*
X3612257Y12530791D01*
X815921Y12530791D01*
X703100Y12608072D01*
X703100Y15021072D01*
X1967500Y15021072D01*
X1967500Y24649566D01*
X8539876Y24649566D01*
X8570856Y24521645D01*
X8884078Y23963683D01*
X9386980Y23568058D01*
X10003000Y23395000D01*
X11253000Y23395000D01*
X11253000Y24903000D01*
X8659223Y24903000D01*
X8539876Y24649566D01*
X1967500Y24649566D01*
X1967500Y25410434D01*
X8539876Y25410434D01*
X8659223Y25157000D01*
X11253000Y25157000D01*
X11253000Y26665000D01*
X10003000Y26665000D01*
X9386980Y26491942D01*
X8884078Y26096317D01*
X8570856Y25538355D01*
X8539876Y25410434D01*
X1967500Y25410434D01*
X1967500Y30936520D01*
X6445000Y30936520D01*
X6445000Y28323480D01*
X6569457Y27697793D01*
X6923880Y27167360D01*
X7454313Y26812937D01*
X8080000Y26688480D01*
X8705687Y26812937D01*
X9236120Y27167360D01*
X9590543Y27697793D01*
X9715000Y28323480D01*
X9715000Y30936520D01*
X9590543Y31562207D01*
X9236120Y32092640D01*
X8705687Y32447063D01*
X8080000Y32571520D01*
X7454313Y32447063D01*
X6923880Y32092640D01*
X6569457Y31562207D01*
X6445000Y30936520D01*
X1967500Y30936520D01*
X1967500Y34097900D01*
X17049121Y34097900D01*
X16036050Y33084830D01*
G36*
X47218858Y1480438D02*
X46824224Y1481076D01*
X46986390Y1557079D01*
X47380588Y1988953D01*
X47552858Y2404874D01*
X47431717Y2636900D01*
X46224900Y2636900D01*
X46224900Y2616900D01*
X45970900Y2616900D01*
X45970900Y2636900D01*
X45950900Y2636900D01*
X45950900Y2890900D01*
X45970900Y2890900D01*
X45970900Y2910900D01*
X46224900Y2910900D01*
X46224900Y2890900D01*
X47431717Y2890900D01*
X47552858Y3122926D01*
X47380588Y3538847D01*
X46986390Y3970721D01*
X46863672Y4028236D01*
X47186929Y4244230D01*
X47387162Y4543900D01*
X50282320Y4543900D01*
X47218858Y1480438D01*
X47218858Y1480438D01*
G37*
X47218858Y1480438D02*
X46824224Y1481076D01*
X46986390Y1557079D01*
X47380588Y1988953D01*
X47552858Y2404874D01*
X47431717Y2636900D01*
X46224900Y2636900D01*
X46224900Y2616900D01*
X45970900Y2616900D01*
X45970900Y2636900D01*
X45950900Y2636900D01*
X45950900Y2890900D01*
X45970900Y2890900D01*
X45970900Y2910900D01*
X46224900Y2910900D01*
X46224900Y2890900D01*
X47431717Y2890900D01*
X47552858Y3122926D01*
X47380588Y3538847D01*
X46986390Y3970721D01*
X46863672Y4028236D01*
X47186929Y4244230D01*
X47387162Y4543900D01*
X50282320Y4543900D01*
X47218858Y1480438D01*
G36*
X41445699Y3496499D02*
X41692261Y3331752D01*
X41983100Y3273900D01*
X42131386Y3273900D01*
X42029941Y2763900D01*
X42144015Y2190411D01*
X42468871Y1704230D01*
X42793098Y1487588D01*
X40533095Y1491240D01*
X40636639Y1740602D01*
X40637159Y2336782D01*
X40409492Y2887780D01*
X39988297Y3309710D01*
X39987369Y3310095D01*
X40408010Y3730003D01*
X40440107Y3807300D01*
X41134898Y3807300D01*
X41445699Y3496499D01*
X41445699Y3496499D01*
G37*
X41445699Y3496499D02*
X41692261Y3331752D01*
X41983100Y3273900D01*
X42131386Y3273900D01*
X42029941Y2763900D01*
X42144015Y2190411D01*
X42468871Y1704230D01*
X42793098Y1487588D01*
X40533095Y1491240D01*
X40636639Y1740602D01*
X40637159Y2336782D01*
X40409492Y2887780D01*
X39988297Y3309710D01*
X39987369Y3310095D01*
X40408010Y3730003D01*
X40440107Y3807300D01*
X41134898Y3807300D01*
X41445699Y3496499D01*
G36*
X43240660Y17255870D02*
X43284938Y17020553D01*
X43424010Y16804429D01*
X43636210Y16659439D01*
X43888100Y16608430D01*
X45488300Y16608430D01*
X45723617Y16652708D01*
X45939741Y16791780D01*
X46084731Y17003980D01*
X46135740Y17255870D01*
X46135740Y18951701D01*
X46677839Y19493800D01*
X48663300Y19493800D01*
X48663300Y18937350D01*
X48822050Y18778600D01*
X50034900Y18778600D01*
X50034900Y18798600D01*
X50288900Y18798600D01*
X50288900Y18778600D01*
X50308900Y18778600D01*
X50308900Y18524600D01*
X50288900Y18524600D01*
X50288900Y18504600D01*
X50034900Y18504600D01*
X50034900Y18524600D01*
X48822050Y18524600D01*
X48663300Y18365850D01*
X48663300Y17661691D01*
X48759973Y17428302D01*
X48938601Y17249673D01*
X49092426Y17185956D01*
X48777374Y16714448D01*
X48663300Y16140959D01*
X48663300Y16082241D01*
X48777374Y15508752D01*
X49102230Y15022571D01*
X49373072Y14841600D01*
X49102230Y14660629D01*
X48777374Y14174448D01*
X48663300Y13600959D01*
X48663300Y13542241D01*
X48777374Y12968752D01*
X49102230Y12482571D01*
X49373072Y12301600D01*
X49102230Y12120629D01*
X48777374Y11634448D01*
X48663300Y11060959D01*
X48663300Y11002241D01*
X48777374Y10428752D01*
X49102230Y9942571D01*
X49588411Y9617715D01*
X50161900Y9503641D01*
X50735389Y9617715D01*
X51221570Y9942571D01*
X51431900Y10257352D01*
X51642230Y9942571D01*
X52128411Y9617715D01*
X52701900Y9503641D01*
X53275389Y9617715D01*
X53500000Y9767795D01*
X53500000Y8484803D01*
X51079098Y6063900D01*
X47387162Y6063900D01*
X47186929Y6363570D01*
X46872148Y6573900D01*
X47186929Y6784230D01*
X47511785Y7270411D01*
X47625859Y7843900D01*
X47511785Y8417389D01*
X47186929Y8903570D01*
X46857900Y9123420D01*
X46857900Y10180700D01*
X46839540Y10273002D01*
X46800048Y10471540D01*
X46635301Y10718101D01*
X45911401Y11442001D01*
X45664839Y11606748D01*
X45374000Y11664600D01*
X40660682Y11664600D01*
X41187001Y12190919D01*
X41351748Y12437480D01*
X41409600Y12728320D01*
X41409600Y14070710D01*
X43253100Y14070710D01*
X43253100Y12730281D01*
X43349773Y12496892D01*
X43528401Y12318263D01*
X43761790Y12221590D01*
X44402450Y12221590D01*
X44561200Y12380340D01*
X44561200Y14229460D01*
X44815200Y14229460D01*
X44815200Y12380340D01*
X44973950Y12221590D01*
X45614610Y12221590D01*
X45847999Y12318263D01*
X46026627Y12496892D01*
X46123300Y12730281D01*
X46123300Y14070710D01*
X45964550Y14229460D01*
X44815200Y14229460D01*
X44561200Y14229460D01*
X43411850Y14229460D01*
X43253100Y14070710D01*
X41409600Y14070710D01*
X41409600Y15982639D01*
X43253100Y15982639D01*
X43253100Y14642210D01*
X43411850Y14483460D01*
X44561200Y14483460D01*
X44561200Y16332580D01*
X44815200Y16332580D01*
X44815200Y14483460D01*
X45964550Y14483460D01*
X46123300Y14642210D01*
X46123300Y15982639D01*
X46026627Y16216028D01*
X45847999Y16394657D01*
X45614610Y16491330D01*
X44973950Y16491330D01*
X44815200Y16332580D01*
X44561200Y16332580D01*
X44402450Y16491330D01*
X43761790Y16491330D01*
X43528401Y16394657D01*
X43349773Y16216028D01*
X43253100Y15982639D01*
X41409600Y15982639D01*
X41409600Y17554478D01*
X42203001Y18347879D01*
X42367748Y18594441D01*
X42425600Y18885280D01*
X42425600Y19708398D01*
X42772882Y20055680D01*
X43240660Y20055680D01*
X43240660Y17255870D01*
X43240660Y17255870D01*
G37*
X43240660Y17255870D02*
X43284938Y17020553D01*
X43424010Y16804429D01*
X43636210Y16659439D01*
X43888100Y16608430D01*
X45488300Y16608430D01*
X45723617Y16652708D01*
X45939741Y16791780D01*
X46084731Y17003980D01*
X46135740Y17255870D01*
X46135740Y18951701D01*
X46677839Y19493800D01*
X48663300Y19493800D01*
X48663300Y18937350D01*
X48822050Y18778600D01*
X50034900Y18778600D01*
X50034900Y18798600D01*
X50288900Y18798600D01*
X50288900Y18778600D01*
X50308900Y18778600D01*
X50308900Y18524600D01*
X50288900Y18524600D01*
X50288900Y18504600D01*
X50034900Y18504600D01*
X50034900Y18524600D01*
X48822050Y18524600D01*
X48663300Y18365850D01*
X48663300Y17661691D01*
X48759973Y17428302D01*
X48938601Y17249673D01*
X49092426Y17185956D01*
X48777374Y16714448D01*
X48663300Y16140959D01*
X48663300Y16082241D01*
X48777374Y15508752D01*
X49102230Y15022571D01*
X49373072Y14841600D01*
X49102230Y14660629D01*
X48777374Y14174448D01*
X48663300Y13600959D01*
X48663300Y13542241D01*
X48777374Y12968752D01*
X49102230Y12482571D01*
X49373072Y12301600D01*
X49102230Y12120629D01*
X48777374Y11634448D01*
X48663300Y11060959D01*
X48663300Y11002241D01*
X48777374Y10428752D01*
X49102230Y9942571D01*
X49588411Y9617715D01*
X50161900Y9503641D01*
X50735389Y9617715D01*
X51221570Y9942571D01*
X51431900Y10257352D01*
X51642230Y9942571D01*
X52128411Y9617715D01*
X52701900Y9503641D01*
X53275389Y9617715D01*
X53500000Y9767795D01*
X53500000Y8484803D01*
X51079098Y6063900D01*
X47387162Y6063900D01*
X47186929Y6363570D01*
X46872148Y6573900D01*
X47186929Y6784230D01*
X47511785Y7270411D01*
X47625859Y7843900D01*
X47511785Y8417389D01*
X47186929Y8903570D01*
X46857900Y9123420D01*
X46857900Y10180700D01*
X46839540Y10273002D01*
X46800048Y10471540D01*
X46635301Y10718101D01*
X45911401Y11442001D01*
X45664839Y11606748D01*
X45374000Y11664600D01*
X40660682Y11664600D01*
X41187001Y12190919D01*
X41351748Y12437480D01*
X41409600Y12728320D01*
X41409600Y14070710D01*
X43253100Y14070710D01*
X43253100Y12730281D01*
X43349773Y12496892D01*
X43528401Y12318263D01*
X43761790Y12221590D01*
X44402450Y12221590D01*
X44561200Y12380340D01*
X44561200Y14229460D01*
X44815200Y14229460D01*
X44815200Y12380340D01*
X44973950Y12221590D01*
X45614610Y12221590D01*
X45847999Y12318263D01*
X46026627Y12496892D01*
X46123300Y12730281D01*
X46123300Y14070710D01*
X45964550Y14229460D01*
X44815200Y14229460D01*
X44561200Y14229460D01*
X43411850Y14229460D01*
X43253100Y14070710D01*
X41409600Y14070710D01*
X41409600Y15982639D01*
X43253100Y15982639D01*
X43253100Y14642210D01*
X43411850Y14483460D01*
X44561200Y14483460D01*
X44561200Y16332580D01*
X44815200Y16332580D01*
X44815200Y14483460D01*
X45964550Y14483460D01*
X46123300Y14642210D01*
X46123300Y15982639D01*
X46026627Y16216028D01*
X45847999Y16394657D01*
X45614610Y16491330D01*
X44973950Y16491330D01*
X44815200Y16332580D01*
X44561200Y16332580D01*
X44402450Y16491330D01*
X43761790Y16491330D01*
X43528401Y16394657D01*
X43349773Y16216028D01*
X43253100Y15982639D01*
X41409600Y15982639D01*
X41409600Y17554478D01*
X42203001Y18347879D01*
X42367748Y18594441D01*
X42425600Y18885280D01*
X42425600Y19708398D01*
X42772882Y20055680D01*
X43240660Y20055680D01*
X43240660Y17255870D01*
G36*
X45337900Y9865898D02*
X45337900Y9123420D01*
X45029458Y8917326D01*
X45024662Y8942817D01*
X44885590Y9158941D01*
X44673390Y9303931D01*
X44421500Y9354940D01*
X42694300Y9354940D01*
X42458983Y9310662D01*
X42242859Y9171590D01*
X42097869Y8959390D01*
X42046860Y8707500D01*
X42046860Y8573706D01*
X41971661Y8558748D01*
X41725099Y8394001D01*
X41211098Y7880000D01*
X40445762Y7880000D01*
X40409492Y7967780D01*
X39988297Y8389710D01*
X39987369Y8390095D01*
X40408010Y8810003D01*
X40636639Y9360602D01*
X40637159Y9956782D01*
X40559554Y10144600D01*
X45059198Y10144600D01*
X45337900Y9865898D01*
X45337900Y9865898D01*
G37*
X45337900Y9865898D02*
X45337900Y9123420D01*
X45029458Y8917326D01*
X45024662Y8942817D01*
X44885590Y9158941D01*
X44673390Y9303931D01*
X44421500Y9354940D01*
X42694300Y9354940D01*
X42458983Y9310662D01*
X42242859Y9171590D01*
X42097869Y8959390D01*
X42046860Y8707500D01*
X42046860Y8573706D01*
X41971661Y8558748D01*
X41725099Y8394001D01*
X41211098Y7880000D01*
X40445762Y7880000D01*
X40409492Y7967780D01*
X39988297Y8389710D01*
X39987369Y8390095D01*
X40408010Y8810003D01*
X40636639Y9360602D01*
X40637159Y9956782D01*
X40559554Y10144600D01*
X45059198Y10144600D01*
X45337900Y9865898D01*
G36*
X34524199Y19282599D02*
X34770761Y19117852D01*
X35061600Y19060000D01*
X35187411Y19060000D01*
X35099961Y18849398D01*
X35099441Y18253218D01*
X35327108Y17702220D01*
X35748303Y17280290D01*
X36298902Y17051661D01*
X36895082Y17051141D01*
X37446080Y17278808D01*
X37639868Y17472258D01*
X37639441Y16983218D01*
X37867108Y16432220D01*
X38288303Y16010290D01*
X38289231Y16009905D01*
X37868590Y15589997D01*
X37639961Y15039398D01*
X37639441Y14443218D01*
X37867108Y13892220D01*
X38288303Y13470290D01*
X38289231Y13469905D01*
X37868590Y13049997D01*
X37639961Y12499398D01*
X37639441Y11903218D01*
X37813505Y11481949D01*
X37753719Y11442001D01*
X37646118Y11334400D01*
X36118940Y11334400D01*
X35986590Y11424831D01*
X35734700Y11475840D01*
X34892000Y11475840D01*
X34892000Y11779166D01*
X34967317Y11793338D01*
X35183441Y11932410D01*
X35328431Y12144610D01*
X35379440Y12396500D01*
X35379440Y13146500D01*
X35335162Y13381817D01*
X35196090Y13597941D01*
X34983890Y13742931D01*
X34732000Y13793940D01*
X33532000Y13793940D01*
X33296683Y13749662D01*
X33193354Y13683171D01*
X33191698Y13684827D01*
X32958309Y13781500D01*
X32517750Y13781500D01*
X32359000Y13622750D01*
X32359000Y12898500D01*
X32379000Y12898500D01*
X32379000Y12644500D01*
X32359000Y12644500D01*
X32359000Y11920250D01*
X32517750Y11761500D01*
X32958309Y11761500D01*
X33191698Y11858173D01*
X33193068Y11859543D01*
X33280110Y11800069D01*
X33372000Y11781461D01*
X33372000Y11459400D01*
X31564380Y11459400D01*
X31519200Y11504580D01*
X31519200Y11761500D01*
X31946250Y11761500D01*
X32105000Y11920250D01*
X32105000Y12644500D01*
X32085000Y12644500D01*
X32085000Y12898500D01*
X32105000Y12898500D01*
X32105000Y13622750D01*
X31946250Y13781500D01*
X31519200Y13781500D01*
X31519200Y17554208D01*
X31685641Y17661310D01*
X31733334Y17731111D01*
X31770110Y17673959D01*
X31982310Y17528969D01*
X32234200Y17477960D01*
X33434200Y17477960D01*
X33669517Y17522238D01*
X33885641Y17661310D01*
X34030631Y17873510D01*
X34081640Y18125400D01*
X34081640Y19025400D01*
X34037362Y19260717D01*
X33898290Y19476841D01*
X33686090Y19621831D01*
X33676200Y19623834D01*
X33688051Y19631460D01*
X33759207Y19735600D01*
X34071198Y19735600D01*
X34524199Y19282599D01*
X34524199Y19282599D01*
G37*
X34524199Y19282599D02*
X34770761Y19117852D01*
X35061600Y19060000D01*
X35187411Y19060000D01*
X35099961Y18849398D01*
X35099441Y18253218D01*
X35327108Y17702220D01*
X35748303Y17280290D01*
X36298902Y17051661D01*
X36895082Y17051141D01*
X37446080Y17278808D01*
X37639868Y17472258D01*
X37639441Y16983218D01*
X37867108Y16432220D01*
X38288303Y16010290D01*
X38289231Y16009905D01*
X37868590Y15589997D01*
X37639961Y15039398D01*
X37639441Y14443218D01*
X37867108Y13892220D01*
X38288303Y13470290D01*
X38289231Y13469905D01*
X37868590Y13049997D01*
X37639961Y12499398D01*
X37639441Y11903218D01*
X37813505Y11481949D01*
X37753719Y11442001D01*
X37646118Y11334400D01*
X36118940Y11334400D01*
X35986590Y11424831D01*
X35734700Y11475840D01*
X34892000Y11475840D01*
X34892000Y11779166D01*
X34967317Y11793338D01*
X35183441Y11932410D01*
X35328431Y12144610D01*
X35379440Y12396500D01*
X35379440Y13146500D01*
X35335162Y13381817D01*
X35196090Y13597941D01*
X34983890Y13742931D01*
X34732000Y13793940D01*
X33532000Y13793940D01*
X33296683Y13749662D01*
X33193354Y13683171D01*
X33191698Y13684827D01*
X32958309Y13781500D01*
X32517750Y13781500D01*
X32359000Y13622750D01*
X32359000Y12898500D01*
X32379000Y12898500D01*
X32379000Y12644500D01*
X32359000Y12644500D01*
X32359000Y11920250D01*
X32517750Y11761500D01*
X32958309Y11761500D01*
X33191698Y11858173D01*
X33193068Y11859543D01*
X33280110Y11800069D01*
X33372000Y11781461D01*
X33372000Y11459400D01*
X31564380Y11459400D01*
X31519200Y11504580D01*
X31519200Y11761500D01*
X31946250Y11761500D01*
X32105000Y11920250D01*
X32105000Y12644500D01*
X32085000Y12644500D01*
X32085000Y12898500D01*
X32105000Y12898500D01*
X32105000Y13622750D01*
X31946250Y13781500D01*
X31519200Y13781500D01*
X31519200Y17554208D01*
X31685641Y17661310D01*
X31733334Y17731111D01*
X31770110Y17673959D01*
X31982310Y17528969D01*
X32234200Y17477960D01*
X33434200Y17477960D01*
X33669517Y17522238D01*
X33885641Y17661310D01*
X34030631Y17873510D01*
X34081640Y18125400D01*
X34081640Y19025400D01*
X34037362Y19260717D01*
X33898290Y19476841D01*
X33686090Y19621831D01*
X33676200Y19623834D01*
X33688051Y19631460D01*
X33759207Y19735600D01*
X34071198Y19735600D01*
X34524199Y19282599D01*
G36*
X29468073Y25037799D02*
X29371400Y24804410D01*
X29371400Y24588850D01*
X29530150Y24430100D01*
X30479400Y24430100D01*
X30479400Y24450100D01*
X30733400Y24450100D01*
X30733400Y24430100D01*
X30753400Y24430100D01*
X30753400Y24176100D01*
X30733400Y24176100D01*
X30733400Y23451850D01*
X30892150Y23293100D01*
X31332709Y23293100D01*
X31566098Y23389773D01*
X31567468Y23391143D01*
X31654510Y23331669D01*
X31906400Y23280660D01*
X31951560Y23280660D01*
X31951560Y23210698D01*
X31840079Y23047540D01*
X31789070Y22795650D01*
X31789070Y22173690D01*
X31775957Y22205348D01*
X31597329Y22383977D01*
X31363940Y22480650D01*
X31123330Y22480650D01*
X30964580Y22321900D01*
X30964580Y21572600D01*
X31713880Y21572600D01*
X31860037Y21718757D01*
X31972420Y21544109D01*
X32117517Y21444968D01*
X31985069Y21359740D01*
X31858289Y21174191D01*
X31713880Y21318600D01*
X30964580Y21318600D01*
X30964580Y20569300D01*
X31123330Y20410550D01*
X31363940Y20410550D01*
X31597329Y20507223D01*
X31775957Y20685852D01*
X31789070Y20717510D01*
X31789070Y20095550D01*
X31833348Y19860233D01*
X31972420Y19644109D01*
X31996973Y19627333D01*
X31782759Y19489490D01*
X31735066Y19419689D01*
X31698290Y19476841D01*
X31486090Y19621831D01*
X31234200Y19672840D01*
X30788339Y19672840D01*
X29301330Y21159850D01*
X29802530Y21159850D01*
X29802530Y20919241D01*
X29899203Y20685852D01*
X30077831Y20507223D01*
X30311220Y20410550D01*
X30551830Y20410550D01*
X30710580Y20569300D01*
X30710580Y21318600D01*
X29961280Y21318600D01*
X29802530Y21159850D01*
X29301330Y21159850D01*
X29281640Y21179540D01*
X29281640Y21971959D01*
X29802530Y21971959D01*
X29802530Y21731350D01*
X29961280Y21572600D01*
X30710580Y21572600D01*
X30710580Y22321900D01*
X30551830Y22480650D01*
X30311220Y22480650D01*
X30077831Y22383977D01*
X29899203Y22205348D01*
X29802530Y21971959D01*
X29281640Y21971959D01*
X29281640Y24017350D01*
X29371400Y24017350D01*
X29371400Y23801790D01*
X29468073Y23568401D01*
X29646702Y23389773D01*
X29880091Y23293100D01*
X30320650Y23293100D01*
X30479400Y23451850D01*
X30479400Y24176100D01*
X29530150Y24176100D01*
X29371400Y24017350D01*
X29281640Y24017350D01*
X29281640Y25152840D01*
X29583115Y25152840D01*
X29468073Y25037799D01*
X29468073Y25037799D01*
G37*
X29468073Y25037799D02*
X29371400Y24804410D01*
X29371400Y24588850D01*
X29530150Y24430100D01*
X30479400Y24430100D01*
X30479400Y24450100D01*
X30733400Y24450100D01*
X30733400Y24430100D01*
X30753400Y24430100D01*
X30753400Y24176100D01*
X30733400Y24176100D01*
X30733400Y23451850D01*
X30892150Y23293100D01*
X31332709Y23293100D01*
X31566098Y23389773D01*
X31567468Y23391143D01*
X31654510Y23331669D01*
X31906400Y23280660D01*
X31951560Y23280660D01*
X31951560Y23210698D01*
X31840079Y23047540D01*
X31789070Y22795650D01*
X31789070Y22173690D01*
X31775957Y22205348D01*
X31597329Y22383977D01*
X31363940Y22480650D01*
X31123330Y22480650D01*
X30964580Y22321900D01*
X30964580Y21572600D01*
X31713880Y21572600D01*
X31860037Y21718757D01*
X31972420Y21544109D01*
X32117517Y21444968D01*
X31985069Y21359740D01*
X31858289Y21174191D01*
X31713880Y21318600D01*
X30964580Y21318600D01*
X30964580Y20569300D01*
X31123330Y20410550D01*
X31363940Y20410550D01*
X31597329Y20507223D01*
X31775957Y20685852D01*
X31789070Y20717510D01*
X31789070Y20095550D01*
X31833348Y19860233D01*
X31972420Y19644109D01*
X31996973Y19627333D01*
X31782759Y19489490D01*
X31735066Y19419689D01*
X31698290Y19476841D01*
X31486090Y19621831D01*
X31234200Y19672840D01*
X30788339Y19672840D01*
X29301330Y21159850D01*
X29802530Y21159850D01*
X29802530Y20919241D01*
X29899203Y20685852D01*
X30077831Y20507223D01*
X30311220Y20410550D01*
X30551830Y20410550D01*
X30710580Y20569300D01*
X30710580Y21318600D01*
X29961280Y21318600D01*
X29802530Y21159850D01*
X29301330Y21159850D01*
X29281640Y21179540D01*
X29281640Y21971959D01*
X29802530Y21971959D01*
X29802530Y21731350D01*
X29961280Y21572600D01*
X30710580Y21572600D01*
X30710580Y22321900D01*
X30551830Y22480650D01*
X30311220Y22480650D01*
X30077831Y22383977D01*
X29899203Y22205348D01*
X29802530Y21971959D01*
X29281640Y21971959D01*
X29281640Y24017350D01*
X29371400Y24017350D01*
X29371400Y23801790D01*
X29468073Y23568401D01*
X29646702Y23389773D01*
X29880091Y23293100D01*
X30320650Y23293100D01*
X30479400Y23451850D01*
X30479400Y24176100D01*
X29530150Y24176100D01*
X29371400Y24017350D01*
X29281640Y24017350D01*
X29281640Y25152840D01*
X29583115Y25152840D01*
X29468073Y25037799D01*
G36*
X35750520Y22361192D02*
X35328590Y21939997D01*
X35099961Y21389398D01*
X35099497Y20856905D01*
X34923401Y21033001D01*
X34676839Y21197748D01*
X34386000Y21255600D01*
X33759573Y21255600D01*
X33700700Y21347091D01*
X33555603Y21446232D01*
X33688051Y21531460D01*
X33833041Y21743660D01*
X33884050Y21995550D01*
X33884050Y22491000D01*
X36064680Y22491000D01*
X35750520Y22361192D01*
X35750520Y22361192D01*
G37*
X35750520Y22361192D02*
X35328590Y21939997D01*
X35099961Y21389398D01*
X35099497Y20856905D01*
X34923401Y21033001D01*
X34676839Y21197748D01*
X34386000Y21255600D01*
X33759573Y21255600D01*
X33700700Y21347091D01*
X33555603Y21446232D01*
X33688051Y21531460D01*
X33833041Y21743660D01*
X33884050Y21995550D01*
X33884050Y22491000D01*
X36064680Y22491000D01*
X35750520Y22361192D01*
G36*
X44693120Y32125920D02*
X44737398Y31890603D01*
X44876470Y31674479D01*
X44946271Y31626786D01*
X44889119Y31590010D01*
X44744129Y31377810D01*
X44693120Y31125920D01*
X44693120Y29925920D01*
X44737398Y29690603D01*
X44876470Y29474479D01*
X45000080Y29390020D01*
X45000080Y27716860D01*
X45057932Y27426021D01*
X45222679Y27179459D01*
X45862759Y26539379D01*
X46109321Y26374632D01*
X46400160Y26316780D01*
X47351238Y26316780D01*
X47291625Y26257167D01*
X47406293Y26142499D01*
X47153584Y26060559D01*
X46949852Y25500270D01*
X46976042Y24904665D01*
X47153584Y24476041D01*
X47406295Y24394100D01*
X48280495Y25268300D01*
X48266353Y25282442D01*
X48445958Y25462047D01*
X48460100Y25447905D01*
X48474243Y25462047D01*
X48653848Y25282442D01*
X48639705Y25268300D01*
X48653848Y25254157D01*
X48474243Y25074552D01*
X48460100Y25088695D01*
X47585900Y24214495D01*
X47650499Y24015267D01*
X47612320Y23999492D01*
X47190390Y23578297D01*
X47153020Y23488300D01*
X46766607Y23488300D01*
X46752522Y23563157D01*
X46686031Y23666486D01*
X46687687Y23668142D01*
X46784360Y23901531D01*
X46784360Y24342090D01*
X46625610Y24500840D01*
X45901360Y24500840D01*
X45901360Y24480840D01*
X45647360Y24480840D01*
X45647360Y24500840D01*
X44923110Y24500840D01*
X44764360Y24342090D01*
X44764360Y23901531D01*
X44861033Y23668142D01*
X44862403Y23666772D01*
X44802929Y23579730D01*
X44751920Y23327840D01*
X44751920Y23322010D01*
X44666959Y23265241D01*
X44473965Y23072247D01*
X44208630Y23469349D01*
X43937788Y23650320D01*
X44208630Y23831291D01*
X44533486Y24317472D01*
X44647560Y24890961D01*
X44647560Y24949679D01*
X44567106Y25354149D01*
X44764360Y25354149D01*
X44764360Y24913590D01*
X44923110Y24754840D01*
X45647360Y24754840D01*
X45647360Y25704090D01*
X45901360Y25704090D01*
X45901360Y24754840D01*
X46625610Y24754840D01*
X46784360Y24913590D01*
X46784360Y25354149D01*
X46687687Y25587538D01*
X46509059Y25766167D01*
X46275670Y25862840D01*
X46060110Y25862840D01*
X45901360Y25704090D01*
X45647360Y25704090D01*
X45488610Y25862840D01*
X45273050Y25862840D01*
X45039661Y25766167D01*
X44861033Y25587538D01*
X44764360Y25354149D01*
X44567106Y25354149D01*
X44533486Y25523168D01*
X44208630Y26009349D01*
X43937799Y26190312D01*
X44355781Y26571830D01*
X44603928Y27101293D01*
X44483429Y27333320D01*
X43275960Y27333320D01*
X43275960Y27313320D01*
X43021960Y27313320D01*
X43021960Y27333320D01*
X41814491Y27333320D01*
X41693992Y27101293D01*
X41942139Y26571830D01*
X42360121Y26190312D01*
X42089290Y26009349D01*
X41764434Y25523168D01*
X41761498Y25508410D01*
X41666959Y25445241D01*
X41106959Y24885241D01*
X40942212Y24638679D01*
X40884360Y24347840D01*
X40884360Y22032642D01*
X40701718Y21850000D01*
X40549189Y21850000D01*
X40636639Y22060602D01*
X40637159Y22656782D01*
X40409492Y23207780D01*
X39988297Y23629710D01*
X39987369Y23630095D01*
X40408010Y24050003D01*
X40636639Y24600602D01*
X40637159Y25196782D01*
X40409492Y25747780D01*
X39988297Y26169710D01*
X39947763Y26186541D01*
X40012500Y26386195D01*
X39138300Y27260395D01*
X38264100Y26386195D01*
X38328699Y26186967D01*
X38290520Y26171192D01*
X37868590Y25749997D01*
X37639961Y25199398D01*
X37639441Y24603218D01*
X37867108Y24052220D01*
X38288303Y23630290D01*
X38289231Y23629905D01*
X37942300Y23283579D01*
X37533008Y23692872D01*
X37557031Y23728030D01*
X37608040Y23979920D01*
X37608040Y25179920D01*
X37563762Y25415237D01*
X37497271Y25518566D01*
X37498927Y25520222D01*
X37595600Y25753611D01*
X37595600Y26194170D01*
X37436850Y26352920D01*
X36712600Y26352920D01*
X36712600Y26332920D01*
X36458600Y26332920D01*
X36458600Y26352920D01*
X35734350Y26352920D01*
X35575600Y26194170D01*
X35575600Y25753611D01*
X35672273Y25520222D01*
X35673643Y25518852D01*
X35614169Y25431810D01*
X35563160Y25179920D01*
X35563160Y24261000D01*
X33753840Y24261000D01*
X33753840Y24678100D01*
X33709562Y24913417D01*
X33570490Y25129541D01*
X33391400Y25251908D01*
X33391400Y25725795D01*
X33391401Y25725800D01*
X33324033Y26064475D01*
X33277923Y26133484D01*
X33132190Y26351590D01*
X33132187Y26351592D01*
X32820150Y26663630D01*
X32667435Y26765670D01*
X32533035Y26855473D01*
X32476844Y26866650D01*
X32194360Y26922841D01*
X32194355Y26922840D01*
X29281640Y26922840D01*
X29281640Y27206229D01*
X35575600Y27206229D01*
X35575600Y26765670D01*
X35734350Y26606920D01*
X36458600Y26606920D01*
X36458600Y27556170D01*
X36712600Y27556170D01*
X36712600Y26606920D01*
X37436850Y26606920D01*
X37595600Y26765670D01*
X37595600Y27206229D01*
X37498927Y27439618D01*
X37320299Y27618247D01*
X37190601Y27671970D01*
X37628052Y27671970D01*
X37654242Y27076365D01*
X37831784Y26647741D01*
X38084495Y26565800D01*
X38958695Y27440000D01*
X39317905Y27440000D01*
X40192105Y26565800D01*
X40444816Y26647741D01*
X40648548Y27208030D01*
X40622358Y27803635D01*
X40444816Y28232259D01*
X40192105Y28314200D01*
X39317905Y27440000D01*
X38958695Y27440000D01*
X38084495Y28314200D01*
X37831784Y28232259D01*
X37628052Y27671970D01*
X37190601Y27671970D01*
X37086910Y27714920D01*
X36871350Y27714920D01*
X36712600Y27556170D01*
X36458600Y27556170D01*
X36299850Y27714920D01*
X36084290Y27714920D01*
X35850901Y27618247D01*
X35672273Y27439618D01*
X35575600Y27206229D01*
X29281640Y27206229D01*
X29281640Y29790091D01*
X29736157Y29790091D01*
X30037718Y29060257D01*
X30595620Y28501381D01*
X31324927Y28198546D01*
X32114609Y28197857D01*
X32844443Y28499418D01*
X33403319Y29057320D01*
X33663214Y29683218D01*
X37639441Y29683218D01*
X37867108Y29132220D01*
X38288303Y28710290D01*
X38328837Y28693459D01*
X38264100Y28493805D01*
X39138300Y27619605D01*
X40012500Y28493805D01*
X39947901Y28693033D01*
X39986080Y28708808D01*
X40408010Y29130003D01*
X40636639Y29680602D01*
X40637159Y30276782D01*
X40409492Y30827780D01*
X40373415Y30863920D01*
X41637920Y30863920D01*
X41637920Y29136720D01*
X41682198Y28901403D01*
X41821270Y28685279D01*
X42033470Y28540289D01*
X42130411Y28520658D01*
X41942139Y28348810D01*
X41693992Y27819347D01*
X41814491Y27587320D01*
X43021960Y27587320D01*
X43021960Y27607320D01*
X43275960Y27607320D01*
X43275960Y27587320D01*
X44483429Y27587320D01*
X44603928Y27819347D01*
X44355781Y28348810D01*
X44169527Y28518815D01*
X44247877Y28533558D01*
X44464001Y28672630D01*
X44608991Y28884830D01*
X44660000Y29136720D01*
X44660000Y30863920D01*
X44615722Y31099237D01*
X44476650Y31315361D01*
X44264450Y31460351D01*
X44012560Y31511360D01*
X42285360Y31511360D01*
X42050043Y31467082D01*
X41833919Y31328010D01*
X41688929Y31115810D01*
X41637920Y30863920D01*
X40373415Y30863920D01*
X39988297Y31249710D01*
X39437698Y31478339D01*
X38841518Y31478859D01*
X38290520Y31251192D01*
X37868590Y30829997D01*
X37639961Y30279398D01*
X37639441Y29683218D01*
X33663214Y29683218D01*
X33706154Y29786627D01*
X33706843Y30576309D01*
X33405282Y31306143D01*
X32847380Y31865019D01*
X32118073Y32167854D01*
X31328391Y32168543D01*
X30598557Y31866982D01*
X30039681Y31309080D01*
X29736846Y30579773D01*
X29736157Y29790091D01*
X29281640Y29790091D01*
X29281640Y33067600D01*
X44693120Y33067600D01*
X44693120Y32125920D01*
X44693120Y32125920D01*
G37*
X44693120Y32125920D02*
X44737398Y31890603D01*
X44876470Y31674479D01*
X44946271Y31626786D01*
X44889119Y31590010D01*
X44744129Y31377810D01*
X44693120Y31125920D01*
X44693120Y29925920D01*
X44737398Y29690603D01*
X44876470Y29474479D01*
X45000080Y29390020D01*
X45000080Y27716860D01*
X45057932Y27426021D01*
X45222679Y27179459D01*
X45862759Y26539379D01*
X46109321Y26374632D01*
X46400160Y26316780D01*
X47351238Y26316780D01*
X47291625Y26257167D01*
X47406293Y26142499D01*
X47153584Y26060559D01*
X46949852Y25500270D01*
X46976042Y24904665D01*
X47153584Y24476041D01*
X47406295Y24394100D01*
X48280495Y25268300D01*
X48266353Y25282442D01*
X48445958Y25462047D01*
X48460100Y25447905D01*
X48474243Y25462047D01*
X48653848Y25282442D01*
X48639705Y25268300D01*
X48653848Y25254157D01*
X48474243Y25074552D01*
X48460100Y25088695D01*
X47585900Y24214495D01*
X47650499Y24015267D01*
X47612320Y23999492D01*
X47190390Y23578297D01*
X47153020Y23488300D01*
X46766607Y23488300D01*
X46752522Y23563157D01*
X46686031Y23666486D01*
X46687687Y23668142D01*
X46784360Y23901531D01*
X46784360Y24342090D01*
X46625610Y24500840D01*
X45901360Y24500840D01*
X45901360Y24480840D01*
X45647360Y24480840D01*
X45647360Y24500840D01*
X44923110Y24500840D01*
X44764360Y24342090D01*
X44764360Y23901531D01*
X44861033Y23668142D01*
X44862403Y23666772D01*
X44802929Y23579730D01*
X44751920Y23327840D01*
X44751920Y23322010D01*
X44666959Y23265241D01*
X44473965Y23072247D01*
X44208630Y23469349D01*
X43937788Y23650320D01*
X44208630Y23831291D01*
X44533486Y24317472D01*
X44647560Y24890961D01*
X44647560Y24949679D01*
X44567106Y25354149D01*
X44764360Y25354149D01*
X44764360Y24913590D01*
X44923110Y24754840D01*
X45647360Y24754840D01*
X45647360Y25704090D01*
X45901360Y25704090D01*
X45901360Y24754840D01*
X46625610Y24754840D01*
X46784360Y24913590D01*
X46784360Y25354149D01*
X46687687Y25587538D01*
X46509059Y25766167D01*
X46275670Y25862840D01*
X46060110Y25862840D01*
X45901360Y25704090D01*
X45647360Y25704090D01*
X45488610Y25862840D01*
X45273050Y25862840D01*
X45039661Y25766167D01*
X44861033Y25587538D01*
X44764360Y25354149D01*
X44567106Y25354149D01*
X44533486Y25523168D01*
X44208630Y26009349D01*
X43937799Y26190312D01*
X44355781Y26571830D01*
X44603928Y27101293D01*
X44483429Y27333320D01*
X43275960Y27333320D01*
X43275960Y27313320D01*
X43021960Y27313320D01*
X43021960Y27333320D01*
X41814491Y27333320D01*
X41693992Y27101293D01*
X41942139Y26571830D01*
X42360121Y26190312D01*
X42089290Y26009349D01*
X41764434Y25523168D01*
X41761498Y25508410D01*
X41666959Y25445241D01*
X41106959Y24885241D01*
X40942212Y24638679D01*
X40884360Y24347840D01*
X40884360Y22032642D01*
X40701718Y21850000D01*
X40549189Y21850000D01*
X40636639Y22060602D01*
X40637159Y22656782D01*
X40409492Y23207780D01*
X39988297Y23629710D01*
X39987369Y23630095D01*
X40408010Y24050003D01*
X40636639Y24600602D01*
X40637159Y25196782D01*
X40409492Y25747780D01*
X39988297Y26169710D01*
X39947763Y26186541D01*
X40012500Y26386195D01*
X39138300Y27260395D01*
X38264100Y26386195D01*
X38328699Y26186967D01*
X38290520Y26171192D01*
X37868590Y25749997D01*
X37639961Y25199398D01*
X37639441Y24603218D01*
X37867108Y24052220D01*
X38288303Y23630290D01*
X38289231Y23629905D01*
X37942300Y23283579D01*
X37533008Y23692872D01*
X37557031Y23728030D01*
X37608040Y23979920D01*
X37608040Y25179920D01*
X37563762Y25415237D01*
X37497271Y25518566D01*
X37498927Y25520222D01*
X37595600Y25753611D01*
X37595600Y26194170D01*
X37436850Y26352920D01*
X36712600Y26352920D01*
X36712600Y26332920D01*
X36458600Y26332920D01*
X36458600Y26352920D01*
X35734350Y26352920D01*
X35575600Y26194170D01*
X35575600Y25753611D01*
X35672273Y25520222D01*
X35673643Y25518852D01*
X35614169Y25431810D01*
X35563160Y25179920D01*
X35563160Y24261000D01*
X33753840Y24261000D01*
X33753840Y24678100D01*
X33709562Y24913417D01*
X33570490Y25129541D01*
X33391400Y25251908D01*
X33391400Y25725795D01*
X33391401Y25725800D01*
X33324033Y26064475D01*
X33277923Y26133484D01*
X33132190Y26351590D01*
X33132187Y26351592D01*
X32820150Y26663630D01*
X32667435Y26765670D01*
X32533035Y26855473D01*
X32476844Y26866650D01*
X32194360Y26922841D01*
X32194355Y26922840D01*
X29281640Y26922840D01*
X29281640Y27206229D01*
X35575600Y27206229D01*
X35575600Y26765670D01*
X35734350Y26606920D01*
X36458600Y26606920D01*
X36458600Y27556170D01*
X36712600Y27556170D01*
X36712600Y26606920D01*
X37436850Y26606920D01*
X37595600Y26765670D01*
X37595600Y27206229D01*
X37498927Y27439618D01*
X37320299Y27618247D01*
X37190601Y27671970D01*
X37628052Y27671970D01*
X37654242Y27076365D01*
X37831784Y26647741D01*
X38084495Y26565800D01*
X38958695Y27440000D01*
X39317905Y27440000D01*
X40192105Y26565800D01*
X40444816Y26647741D01*
X40648548Y27208030D01*
X40622358Y27803635D01*
X40444816Y28232259D01*
X40192105Y28314200D01*
X39317905Y27440000D01*
X38958695Y27440000D01*
X38084495Y28314200D01*
X37831784Y28232259D01*
X37628052Y27671970D01*
X37190601Y27671970D01*
X37086910Y27714920D01*
X36871350Y27714920D01*
X36712600Y27556170D01*
X36458600Y27556170D01*
X36299850Y27714920D01*
X36084290Y27714920D01*
X35850901Y27618247D01*
X35672273Y27439618D01*
X35575600Y27206229D01*
X29281640Y27206229D01*
X29281640Y29790091D01*
X29736157Y29790091D01*
X30037718Y29060257D01*
X30595620Y28501381D01*
X31324927Y28198546D01*
X32114609Y28197857D01*
X32844443Y28499418D01*
X33403319Y29057320D01*
X33663214Y29683218D01*
X37639441Y29683218D01*
X37867108Y29132220D01*
X38288303Y28710290D01*
X38328837Y28693459D01*
X38264100Y28493805D01*
X39138300Y27619605D01*
X40012500Y28493805D01*
X39947901Y28693033D01*
X39986080Y28708808D01*
X40408010Y29130003D01*
X40636639Y29680602D01*
X40637159Y30276782D01*
X40409492Y30827780D01*
X40373415Y30863920D01*
X41637920Y30863920D01*
X41637920Y29136720D01*
X41682198Y28901403D01*
X41821270Y28685279D01*
X42033470Y28540289D01*
X42130411Y28520658D01*
X41942139Y28348810D01*
X41693992Y27819347D01*
X41814491Y27587320D01*
X43021960Y27587320D01*
X43021960Y27607320D01*
X43275960Y27607320D01*
X43275960Y27587320D01*
X44483429Y27587320D01*
X44603928Y27819347D01*
X44355781Y28348810D01*
X44169527Y28518815D01*
X44247877Y28533558D01*
X44464001Y28672630D01*
X44608991Y28884830D01*
X44660000Y29136720D01*
X44660000Y30863920D01*
X44615722Y31099237D01*
X44476650Y31315361D01*
X44264450Y31460351D01*
X44012560Y31511360D01*
X42285360Y31511360D01*
X42050043Y31467082D01*
X41833919Y31328010D01*
X41688929Y31115810D01*
X41637920Y30863920D01*
X40373415Y30863920D01*
X39988297Y31249710D01*
X39437698Y31478339D01*
X38841518Y31478859D01*
X38290520Y31251192D01*
X37868590Y30829997D01*
X37639961Y30279398D01*
X37639441Y29683218D01*
X33663214Y29683218D01*
X33706154Y29786627D01*
X33706843Y30576309D01*
X33405282Y31306143D01*
X32847380Y31865019D01*
X32118073Y32167854D01*
X31328391Y32168543D01*
X30598557Y31866982D01*
X30039681Y31309080D01*
X29736846Y30579773D01*
X29736157Y29790091D01*
X29281640Y29790091D01*
X29281640Y33067600D01*
X44693120Y33067600D01*
X44693120Y32125920D01*
G36*
X57111360Y30824840D02*
X57131360Y30824840D01*
X57131360Y30570840D01*
X57111360Y30570840D01*
X57111360Y29621590D01*
X57270110Y29462840D01*
X57485670Y29462840D01*
X57719059Y29559513D01*
X57897687Y29738142D01*
X57923648Y29800817D01*
X58090080Y29687099D01*
X58206766Y29663470D01*
X58106653Y29644632D01*
X57890529Y29505560D01*
X57745539Y29293360D01*
X57694530Y29041470D01*
X57694530Y27443810D01*
X57738808Y27208493D01*
X57877880Y26992369D01*
X58090080Y26847379D01*
X58341970Y26796370D01*
X58357400Y26796370D01*
X58357400Y25096301D01*
X58198559Y24994090D01*
X58150866Y24924289D01*
X58114090Y24981441D01*
X57901890Y25126431D01*
X57810000Y25145039D01*
X57810000Y25960000D01*
X57789997Y26060559D01*
X57752148Y26250840D01*
X57587401Y26497401D01*
X56450301Y27634501D01*
X56353114Y27699439D01*
X56402420Y27942920D01*
X56402420Y28450920D01*
X56358142Y28686237D01*
X56263814Y28832827D01*
X56351411Y28961030D01*
X56402420Y29212920D01*
X56402420Y29496238D01*
X56483050Y29462840D01*
X56698610Y29462840D01*
X56857360Y29621590D01*
X56857360Y30570840D01*
X56837360Y30570840D01*
X56837360Y30824840D01*
X56857360Y30824840D01*
X56857360Y30844840D01*
X57111360Y30844840D01*
X57111360Y30824840D01*
X57111360Y30824840D01*
G37*
X57111360Y30824840D02*
X57131360Y30824840D01*
X57131360Y30570840D01*
X57111360Y30570840D01*
X57111360Y29621590D01*
X57270110Y29462840D01*
X57485670Y29462840D01*
X57719059Y29559513D01*
X57897687Y29738142D01*
X57923648Y29800817D01*
X58090080Y29687099D01*
X58206766Y29663470D01*
X58106653Y29644632D01*
X57890529Y29505560D01*
X57745539Y29293360D01*
X57694530Y29041470D01*
X57694530Y27443810D01*
X57738808Y27208493D01*
X57877880Y26992369D01*
X58090080Y26847379D01*
X58341970Y26796370D01*
X58357400Y26796370D01*
X58357400Y25096301D01*
X58198559Y24994090D01*
X58150866Y24924289D01*
X58114090Y24981441D01*
X57901890Y25126431D01*
X57810000Y25145039D01*
X57810000Y25960000D01*
X57789997Y26060559D01*
X57752148Y26250840D01*
X57587401Y26497401D01*
X56450301Y27634501D01*
X56353114Y27699439D01*
X56402420Y27942920D01*
X56402420Y28450920D01*
X56358142Y28686237D01*
X56263814Y28832827D01*
X56351411Y28961030D01*
X56402420Y29212920D01*
X56402420Y29496238D01*
X56483050Y29462840D01*
X56698610Y29462840D01*
X56857360Y29621590D01*
X56857360Y30570840D01*
X56837360Y30570840D01*
X56837360Y30824840D01*
X56857360Y30824840D01*
X56857360Y30844840D01*
X57111360Y30844840D01*
X57111360Y30824840D01*
G36*
X54191739Y32745087D02*
X54160539Y32725010D01*
X54015549Y32512810D01*
X53964540Y32260920D01*
X53964540Y31752920D01*
X54008818Y31517603D01*
X54022127Y31496920D01*
X53030000Y31496920D01*
X52739161Y31439068D01*
X52492599Y31274321D01*
X51822599Y30604321D01*
X51657852Y30357759D01*
X51600000Y30066920D01*
X51600000Y28218362D01*
X51218418Y27836780D01*
X50039980Y27836780D01*
X50039980Y27911170D01*
X49881230Y28069920D01*
X48960480Y28069920D01*
X48960480Y28049920D01*
X48706480Y28049920D01*
X48706480Y28069920D01*
X47785730Y28069920D01*
X47626980Y27911170D01*
X47626980Y27836780D01*
X46835258Y27836780D01*
X47096743Y27944823D01*
X47359992Y28207613D01*
X47502638Y28551141D01*
X47502962Y28923107D01*
X47396333Y29181170D01*
X47626980Y29181170D01*
X47626980Y29086611D01*
X47723653Y28853222D01*
X47744955Y28831920D01*
X47723653Y28810618D01*
X47626980Y28577229D01*
X47626980Y28482670D01*
X47785730Y28323920D01*
X48706480Y28323920D01*
X48706480Y29339920D01*
X48960480Y29339920D01*
X48960480Y28323920D01*
X49881230Y28323920D01*
X50039980Y28482670D01*
X50039980Y28577229D01*
X49943307Y28810618D01*
X49922005Y28831920D01*
X49943307Y28853222D01*
X50039980Y29086611D01*
X50039980Y29181170D01*
X49881230Y29339920D01*
X48960480Y29339920D01*
X48706480Y29339920D01*
X47785730Y29339920D01*
X47626980Y29181170D01*
X47396333Y29181170D01*
X47360917Y29266883D01*
X47098127Y29530132D01*
X46818115Y29646404D01*
X46836991Y29674030D01*
X46888000Y29925920D01*
X46888000Y30451170D01*
X47626980Y30451170D01*
X47626980Y30356611D01*
X47723653Y30123222D01*
X47744955Y30101920D01*
X47723653Y30080618D01*
X47626980Y29847229D01*
X47626980Y29752670D01*
X47785730Y29593920D01*
X48706480Y29593920D01*
X48706480Y30609920D01*
X48960480Y30609920D01*
X48960480Y29593920D01*
X49881230Y29593920D01*
X50039980Y29752670D01*
X50039980Y29847229D01*
X49943307Y30080618D01*
X49922005Y30101920D01*
X49943307Y30123222D01*
X50039980Y30356611D01*
X50039980Y30451170D01*
X49881230Y30609920D01*
X48960480Y30609920D01*
X48706480Y30609920D01*
X47785730Y30609920D01*
X47626980Y30451170D01*
X46888000Y30451170D01*
X46888000Y31125920D01*
X46843722Y31361237D01*
X46704650Y31577361D01*
X46634849Y31625054D01*
X46692001Y31661830D01*
X46836991Y31874030D01*
X46888000Y32125920D01*
X46888000Y32260920D01*
X47614540Y32260920D01*
X47614540Y31752920D01*
X47658818Y31517603D01*
X47749584Y31376549D01*
X47723653Y31350618D01*
X47626980Y31117229D01*
X47626980Y31022670D01*
X47785730Y30863920D01*
X48706480Y30863920D01*
X48706480Y30883920D01*
X48960480Y30883920D01*
X48960480Y30863920D01*
X49881230Y30863920D01*
X50039980Y31022670D01*
X50039980Y31117229D01*
X49943307Y31350618D01*
X49916771Y31377155D01*
X50001411Y31501030D01*
X50052420Y31752920D01*
X50052420Y32260920D01*
X50008142Y32496237D01*
X49869070Y32712361D01*
X49656870Y32857351D01*
X49404980Y32908360D01*
X48261980Y32908360D01*
X48026663Y32864082D01*
X47810539Y32725010D01*
X47665549Y32512810D01*
X47614540Y32260920D01*
X46888000Y32260920D01*
X46888000Y33063741D01*
X54191739Y33071717D01*
X54191739Y32745087D01*
X54191739Y32745087D01*
G37*
X54191739Y32745087D02*
X54160539Y32725010D01*
X54015549Y32512810D01*
X53964540Y32260920D01*
X53964540Y31752920D01*
X54008818Y31517603D01*
X54022127Y31496920D01*
X53030000Y31496920D01*
X52739161Y31439068D01*
X52492599Y31274321D01*
X51822599Y30604321D01*
X51657852Y30357759D01*
X51600000Y30066920D01*
X51600000Y28218362D01*
X51218418Y27836780D01*
X50039980Y27836780D01*
X50039980Y27911170D01*
X49881230Y28069920D01*
X48960480Y28069920D01*
X48960480Y28049920D01*
X48706480Y28049920D01*
X48706480Y28069920D01*
X47785730Y28069920D01*
X47626980Y27911170D01*
X47626980Y27836780D01*
X46835258Y27836780D01*
X47096743Y27944823D01*
X47359992Y28207613D01*
X47502638Y28551141D01*
X47502962Y28923107D01*
X47396333Y29181170D01*
X47626980Y29181170D01*
X47626980Y29086611D01*
X47723653Y28853222D01*
X47744955Y28831920D01*
X47723653Y28810618D01*
X47626980Y28577229D01*
X47626980Y28482670D01*
X47785730Y28323920D01*
X48706480Y28323920D01*
X48706480Y29339920D01*
X48960480Y29339920D01*
X48960480Y28323920D01*
X49881230Y28323920D01*
X50039980Y28482670D01*
X50039980Y28577229D01*
X49943307Y28810618D01*
X49922005Y28831920D01*
X49943307Y28853222D01*
X50039980Y29086611D01*
X50039980Y29181170D01*
X49881230Y29339920D01*
X48960480Y29339920D01*
X48706480Y29339920D01*
X47785730Y29339920D01*
X47626980Y29181170D01*
X47396333Y29181170D01*
X47360917Y29266883D01*
X47098127Y29530132D01*
X46818115Y29646404D01*
X46836991Y29674030D01*
X46888000Y29925920D01*
X46888000Y30451170D01*
X47626980Y30451170D01*
X47626980Y30356611D01*
X47723653Y30123222D01*
X47744955Y30101920D01*
X47723653Y30080618D01*
X47626980Y29847229D01*
X47626980Y29752670D01*
X47785730Y29593920D01*
X48706480Y29593920D01*
X48706480Y30609920D01*
X48960480Y30609920D01*
X48960480Y29593920D01*
X49881230Y29593920D01*
X50039980Y29752670D01*
X50039980Y29847229D01*
X49943307Y30080618D01*
X49922005Y30101920D01*
X49943307Y30123222D01*
X50039980Y30356611D01*
X50039980Y30451170D01*
X49881230Y30609920D01*
X48960480Y30609920D01*
X48706480Y30609920D01*
X47785730Y30609920D01*
X47626980Y30451170D01*
X46888000Y30451170D01*
X46888000Y31125920D01*
X46843722Y31361237D01*
X46704650Y31577361D01*
X46634849Y31625054D01*
X46692001Y31661830D01*
X46836991Y31874030D01*
X46888000Y32125920D01*
X46888000Y32260920D01*
X47614540Y32260920D01*
X47614540Y31752920D01*
X47658818Y31517603D01*
X47749584Y31376549D01*
X47723653Y31350618D01*
X47626980Y31117229D01*
X47626980Y31022670D01*
X47785730Y30863920D01*
X48706480Y30863920D01*
X48706480Y30883920D01*
X48960480Y30883920D01*
X48960480Y30863920D01*
X49881230Y30863920D01*
X50039980Y31022670D01*
X50039980Y31117229D01*
X49943307Y31350618D01*
X49916771Y31377155D01*
X50001411Y31501030D01*
X50052420Y31752920D01*
X50052420Y32260920D01*
X50008142Y32496237D01*
X49869070Y32712361D01*
X49656870Y32857351D01*
X49404980Y32908360D01*
X48261980Y32908360D01*
X48026663Y32864082D01*
X47810539Y32725010D01*
X47665549Y32512810D01*
X47614540Y32260920D01*
X46888000Y32260920D01*
X46888000Y33063741D01*
X54191739Y33071717D01*
X54191739Y32745087D01*
M02*
