M48
;DRILL file {KiCad 4.0.2-stable} date 2-3-2016 14:43:51
;FORMAT={-:-/ absolute / metric / decimal}
FMAT,2
METRIC,TZ
T1C0.400
T2C0.762
T3C0.800
T4C1.000
T5C1.016
T6C2.700
%
G90
G05
M71
T1
X1.66Y13.51
X4.6Y32.8
X4.6Y26.73
X7.917Y9.175
X8.14Y15.797
X14.484Y17.252
X16.382Y4.844
X16.644Y19.538
X18.889Y24.402
X21.16Y4.47
X21.734Y24.288
X27.165Y27.945
X27.204Y4.658
X27.353Y10.574
X27.844Y18.388
X30.04Y22.9
X30.344Y9.338
X34.439Y14.715
X34.574Y21.978
X34.574Y18.558
X36.052Y31.527
X41.249Y31.527
X41.55Y1.7
X44.69Y9.86
X46.245Y21.161
X46.568Y28.738
X46.784Y14.372
X47.495Y9.863
X47.833Y18.687
X50.65Y29.48
X51.14Y7.806
X53.17Y29.46
X56.96Y29.04
X58.72Y13.25
X59.255Y32.634
X60.868Y22.843
X63.789Y33.028
X64.691Y18.867
T2
X48.46Y25.268
X48.46Y22.728
X53.96Y25.268
X53.96Y22.728
X63.103Y30.183
X63.103Y27.643
X63.103Y25.103
T5
X23.898Y29.98
X23.898Y27.44
X23.898Y24.9
X23.898Y22.36
X23.898Y19.82
X23.898Y17.28
X23.898Y14.74
X23.898Y12.2
X23.898Y9.66
X23.898Y7.12
X23.898Y4.58
X23.898Y2.04
X31.518Y2.04
X34.058Y2.04
X36.598Y21.09
X36.598Y18.55
X36.598Y2.04
X39.138Y29.98
X39.138Y27.44
X39.138Y24.9
X39.138Y22.36
X39.138Y19.82
X39.138Y17.28
X39.138Y14.74
X39.138Y12.2
X39.138Y9.66
X39.138Y7.12
X39.138Y4.58
X39.138Y2.04
X43.149Y30.
X43.149Y27.46
X43.149Y24.92
X43.149Y22.38
X43.558Y7.844
X43.558Y5.304
X43.558Y2.764
X46.098Y7.844
X46.098Y5.304
X46.098Y2.764
X50.162Y18.652
X50.162Y16.112
X50.162Y13.572
X50.162Y11.032
X52.702Y18.652
X52.702Y16.112
X52.702Y13.572
X52.702Y11.032
T6
X5.598Y12.924
X31.721Y30.183
X61.084Y17.598
T3
X10.28Y25.03G85X12.48Y25.03
G05
T4
X8.08Y28.63G85X8.08Y30.63
G05
X14.38Y28.63G85X14.38Y30.63
G05
T0
M30
