G04 #@! TF.FileFunction,Legend,Top*
%FSLAX46Y46*%
G04 Gerber Fmt 4.6, Leading zero omitted, Abs format (unit mm)*
G04 Created by KiCad (PCBNEW 4.0.2-stable) date 2-3-2016 14:42:16*
%MOMM*%
G01*
G04 APERTURE LIST*
%ADD10C,0.100000*%
%ADD11C,0.125000*%
%ADD12C,0.150000*%
G04 APERTURE END LIST*
D10*
D11*
X1865238Y16624763D02*
X1841429Y16577143D01*
X1841429Y16481905D01*
X1865238Y16434286D01*
X1912857Y16386667D01*
X1960476Y16362858D01*
X2055714Y16362858D01*
X2103333Y16386667D01*
X2150952Y16434286D01*
X2174762Y16481905D01*
X2174762Y16577143D01*
X2150952Y16624763D01*
X1674762Y16529524D02*
X1698571Y16410477D01*
X1770000Y16291429D01*
X1889048Y16220001D01*
X2008095Y16196191D01*
X2127143Y16220001D01*
X2246190Y16291429D01*
X2317619Y16410477D01*
X2341429Y16529524D01*
X2317619Y16648572D01*
X2246190Y16767620D01*
X2127143Y16839048D01*
X2008095Y16862858D01*
X1889048Y16839048D01*
X1770000Y16767620D01*
X1698571Y16648572D01*
X1674762Y16529524D01*
X2366667Y17674286D02*
X2033333Y17424286D01*
X2366667Y17245714D02*
X1666667Y17245714D01*
X1666667Y17531429D01*
X1700000Y17602857D01*
X1733333Y17638572D01*
X1800000Y17674286D01*
X1900000Y17674286D01*
X1966667Y17638572D01*
X2000000Y17602857D01*
X2033333Y17531429D01*
X2033333Y17245714D01*
X2300000Y17995714D02*
X2333333Y18031429D01*
X2366667Y17995714D01*
X2333333Y17960000D01*
X2300000Y17995714D01*
X2366667Y17995714D01*
X2000000Y19174286D02*
X2033333Y19281429D01*
X2066667Y19317144D01*
X2133333Y19352858D01*
X2233333Y19352858D01*
X2300000Y19317144D01*
X2333333Y19281429D01*
X2366667Y19210001D01*
X2366667Y18924286D01*
X1666667Y18924286D01*
X1666667Y19174286D01*
X1700000Y19245715D01*
X1733333Y19281429D01*
X1800000Y19317144D01*
X1866667Y19317144D01*
X1933333Y19281429D01*
X1966667Y19245715D01*
X2000000Y19174286D01*
X2000000Y18924286D01*
X2366667Y19674286D02*
X1900000Y19674286D01*
X1666667Y19674286D02*
X1700000Y19638572D01*
X1733333Y19674286D01*
X1700000Y19710001D01*
X1666667Y19674286D01*
X1733333Y19674286D01*
X2333333Y19995715D02*
X2366667Y20067144D01*
X2366667Y20210001D01*
X2333333Y20281429D01*
X2266667Y20317144D01*
X2233333Y20317144D01*
X2166667Y20281429D01*
X2133333Y20210001D01*
X2133333Y20102858D01*
X2100000Y20031429D01*
X2033333Y19995715D01*
X2000000Y19995715D01*
X1933333Y20031429D01*
X1900000Y20102858D01*
X1900000Y20210001D01*
X1933333Y20281429D01*
X2333333Y20602858D02*
X2366667Y20674287D01*
X2366667Y20817144D01*
X2333333Y20888572D01*
X2266667Y20924287D01*
X2233333Y20924287D01*
X2166667Y20888572D01*
X2133333Y20817144D01*
X2133333Y20710001D01*
X2100000Y20638572D01*
X2033333Y20602858D01*
X2000000Y20602858D01*
X1933333Y20638572D01*
X1900000Y20710001D01*
X1900000Y20817144D01*
X1933333Y20888572D01*
X2333333Y21567144D02*
X2366667Y21495715D01*
X2366667Y21352858D01*
X2333333Y21281430D01*
X2300000Y21245715D01*
X2233333Y21210001D01*
X2033333Y21210001D01*
X1966667Y21245715D01*
X1933333Y21281430D01*
X1900000Y21352858D01*
X1900000Y21495715D01*
X1933333Y21567144D01*
X2366667Y21888572D02*
X1666667Y21888572D01*
X2366667Y22210001D02*
X2000000Y22210001D01*
X1933333Y22174287D01*
X1900000Y22102858D01*
X1900000Y21995715D01*
X1933333Y21924287D01*
X1966667Y21888572D01*
X2366667Y22674286D02*
X2333333Y22602858D01*
X2300000Y22567143D01*
X2233333Y22531429D01*
X2033333Y22531429D01*
X1966667Y22567143D01*
X1933333Y22602858D01*
X1900000Y22674286D01*
X1900000Y22781429D01*
X1933333Y22852858D01*
X1966667Y22888572D01*
X2033333Y22924286D01*
X2233333Y22924286D01*
X2300000Y22888572D01*
X2333333Y22852858D01*
X2366667Y22781429D01*
X2366667Y22674286D01*
X1900000Y23245714D02*
X2600000Y23245714D01*
X1933333Y23245714D02*
X1900000Y23317143D01*
X1900000Y23460000D01*
X1933333Y23531429D01*
X1966667Y23567143D01*
X2033333Y23602857D01*
X2233333Y23602857D01*
X2300000Y23567143D01*
X2333333Y23531429D01*
X2366667Y23460000D01*
X2366667Y23317143D01*
X2333333Y23245714D01*
X2333333Y23888571D02*
X2366667Y23960000D01*
X2366667Y24102857D01*
X2333333Y24174285D01*
X2266667Y24210000D01*
X2233333Y24210000D01*
X2166667Y24174285D01*
X2133333Y24102857D01*
X2133333Y23995714D01*
X2100000Y23924285D01*
X2033333Y23888571D01*
X2000000Y23888571D01*
X1933333Y23924285D01*
X1900000Y23995714D01*
X1900000Y24102857D01*
X1933333Y24174285D01*
X3211190Y17615714D02*
X3211190Y17258571D01*
X2711190Y17258571D01*
X3211190Y17865714D02*
X2877857Y17865714D01*
X2711190Y17865714D02*
X2735000Y17830000D01*
X2758810Y17865714D01*
X2735000Y17901429D01*
X2711190Y17865714D01*
X2758810Y17865714D01*
X3187381Y18544286D02*
X3211190Y18472857D01*
X3211190Y18330000D01*
X3187381Y18258572D01*
X3163571Y18222857D01*
X3115952Y18187143D01*
X2973095Y18187143D01*
X2925476Y18222857D01*
X2901667Y18258572D01*
X2877857Y18330000D01*
X2877857Y18472857D01*
X2901667Y18544286D01*
X3187381Y19151429D02*
X3211190Y19080000D01*
X3211190Y18937143D01*
X3187381Y18865714D01*
X3139762Y18830000D01*
X2949286Y18830000D01*
X2901667Y18865714D01*
X2877857Y18937143D01*
X2877857Y19080000D01*
X2901667Y19151429D01*
X2949286Y19187143D01*
X2996905Y19187143D01*
X3044524Y18830000D01*
X2877857Y19508571D02*
X3211190Y19508571D01*
X2925476Y19508571D02*
X2901667Y19544286D01*
X2877857Y19615714D01*
X2877857Y19722857D01*
X2901667Y19794286D01*
X2949286Y19830000D01*
X3211190Y19830000D01*
X3187381Y20151428D02*
X3211190Y20222857D01*
X3211190Y20365714D01*
X3187381Y20437142D01*
X3139762Y20472857D01*
X3115952Y20472857D01*
X3068333Y20437142D01*
X3044524Y20365714D01*
X3044524Y20258571D01*
X3020714Y20187142D01*
X2973095Y20151428D01*
X2949286Y20151428D01*
X2901667Y20187142D01*
X2877857Y20258571D01*
X2877857Y20365714D01*
X2901667Y20437142D01*
X3187381Y21080000D02*
X3211190Y21008571D01*
X3211190Y20865714D01*
X3187381Y20794285D01*
X3139762Y20758571D01*
X2949286Y20758571D01*
X2901667Y20794285D01*
X2877857Y20865714D01*
X2877857Y21008571D01*
X2901667Y21080000D01*
X2949286Y21115714D01*
X2996905Y21115714D01*
X3044524Y20758571D01*
X3211190Y21758571D02*
X2711190Y21758571D01*
X3187381Y21758571D02*
X3211190Y21687142D01*
X3211190Y21544285D01*
X3187381Y21472857D01*
X3163571Y21437142D01*
X3115952Y21401428D01*
X2973095Y21401428D01*
X2925476Y21437142D01*
X2901667Y21472857D01*
X2877857Y21544285D01*
X2877857Y21687142D01*
X2901667Y21758571D01*
X3702857Y17580000D02*
X4036190Y17580000D01*
X3702857Y17258571D02*
X3964762Y17258571D01*
X4012381Y17294286D01*
X4036190Y17365714D01*
X4036190Y17472857D01*
X4012381Y17544286D01*
X3988571Y17580000D01*
X3702857Y17937142D02*
X4036190Y17937142D01*
X3750476Y17937142D02*
X3726667Y17972857D01*
X3702857Y18044285D01*
X3702857Y18151428D01*
X3726667Y18222857D01*
X3774286Y18258571D01*
X4036190Y18258571D01*
X4036190Y18937142D02*
X3536190Y18937142D01*
X4012381Y18937142D02*
X4036190Y18865713D01*
X4036190Y18722856D01*
X4012381Y18651428D01*
X3988571Y18615713D01*
X3940952Y18579999D01*
X3798095Y18579999D01*
X3750476Y18615713D01*
X3726667Y18651428D01*
X3702857Y18722856D01*
X3702857Y18865713D01*
X3726667Y18937142D01*
X4012381Y19579999D02*
X4036190Y19508570D01*
X4036190Y19365713D01*
X4012381Y19294284D01*
X3964762Y19258570D01*
X3774286Y19258570D01*
X3726667Y19294284D01*
X3702857Y19365713D01*
X3702857Y19508570D01*
X3726667Y19579999D01*
X3774286Y19615713D01*
X3821905Y19615713D01*
X3869524Y19258570D01*
X4036190Y19937141D02*
X3702857Y19937141D01*
X3798095Y19937141D02*
X3750476Y19972856D01*
X3726667Y20008570D01*
X3702857Y20079999D01*
X3702857Y20151427D01*
X3988571Y21401428D02*
X4012381Y21365714D01*
X4036190Y21258571D01*
X4036190Y21187142D01*
X4012381Y21079999D01*
X3964762Y21008571D01*
X3917143Y20972856D01*
X3821905Y20937142D01*
X3750476Y20937142D01*
X3655238Y20972856D01*
X3607619Y21008571D01*
X3560000Y21079999D01*
X3536190Y21187142D01*
X3536190Y21258571D01*
X3560000Y21365714D01*
X3583810Y21401428D01*
X3774286Y21722856D02*
X3774286Y21972856D01*
X4036190Y22079999D02*
X4036190Y21722856D01*
X3536190Y21722856D01*
X3536190Y22079999D01*
X4036190Y22829999D02*
X3798095Y22579999D01*
X4036190Y22401427D02*
X3536190Y22401427D01*
X3536190Y22687142D01*
X3560000Y22758570D01*
X3583810Y22794285D01*
X3631429Y22829999D01*
X3702857Y22829999D01*
X3750476Y22794285D01*
X3774286Y22758570D01*
X3798095Y22687142D01*
X3798095Y22401427D01*
X4036190Y23151427D02*
X3536190Y23151427D01*
X4036190Y23579999D01*
X3536190Y23579999D01*
X4361190Y17401429D02*
X4361190Y17544286D01*
X4385000Y17615714D01*
X4432619Y17687143D01*
X4527857Y17722857D01*
X4694524Y17722857D01*
X4789762Y17687143D01*
X4837381Y17615714D01*
X4861190Y17544286D01*
X4861190Y17401429D01*
X4837381Y17330000D01*
X4789762Y17258571D01*
X4694524Y17222857D01*
X4527857Y17222857D01*
X4432619Y17258571D01*
X4385000Y17330000D01*
X4361190Y17401429D01*
X4861190Y18044285D02*
X4361190Y18044285D01*
X4599286Y18044285D02*
X4599286Y18472857D01*
X4861190Y18472857D02*
X4361190Y18472857D01*
X4861190Y19187142D02*
X4861190Y18829999D01*
X4361190Y18829999D01*
X4527857Y19937143D02*
X4861190Y20115714D01*
X4527857Y20294286D01*
X4813571Y20580000D02*
X4837381Y20615715D01*
X4861190Y20580000D01*
X4837381Y20544286D01*
X4813571Y20580000D01*
X4861190Y20580000D01*
X4861190Y21330001D02*
X4861190Y20901429D01*
X4861190Y21115715D02*
X4361190Y21115715D01*
X4432619Y21044286D01*
X4480238Y20972858D01*
X4504048Y20901429D01*
X4813571Y21651429D02*
X4837381Y21687144D01*
X4861190Y21651429D01*
X4837381Y21615715D01*
X4813571Y21651429D01*
X4861190Y21651429D01*
X4408810Y21972858D02*
X4385000Y22008572D01*
X4361190Y22080001D01*
X4361190Y22258572D01*
X4385000Y22330001D01*
X4408810Y22365715D01*
X4456429Y22401430D01*
X4504048Y22401430D01*
X4575476Y22365715D01*
X4861190Y21937144D01*
X4861190Y22401430D01*
D10*
X-6900Y12296500D02*
X17840000Y8000D01*
X50748700Y-6600D02*
X66336900Y18357500D01*
D12*
X53971900Y17381600D02*
X53971900Y9761600D01*
X53971900Y9761600D02*
X48891900Y9761600D01*
X48891900Y9761600D02*
X48891900Y19921600D01*
X48891900Y19921600D02*
X51431900Y19921600D01*
X53971900Y19921600D02*
X53971900Y17381600D01*
X51431900Y19921600D02*
X53971900Y19921600D01*
X31906400Y23703100D02*
X31206400Y23703100D01*
X31206400Y24903100D02*
X31906400Y24903100D01*
X35985600Y25179920D02*
X35985600Y25879920D01*
X37185600Y25879920D02*
X37185600Y25179920D01*
X55270000Y18800000D02*
X55270000Y19500000D01*
X56470000Y19500000D02*
X56470000Y18800000D01*
X33532000Y12171500D02*
X32832000Y12171500D01*
X32832000Y13371500D02*
X33532000Y13371500D01*
X57584360Y31997840D02*
X57584360Y31297840D01*
X56384360Y31297840D02*
X56384360Y31997840D01*
X45174360Y23327840D02*
X45174360Y24027840D01*
X46374360Y24027840D02*
X46374360Y23327840D01*
X42287900Y6573900D02*
X42287900Y1493900D01*
X42007900Y9393900D02*
X43557900Y9393900D01*
X44827900Y9113900D02*
X44827900Y6573900D01*
X44827900Y6573900D02*
X42287900Y6573900D01*
X42287900Y1493900D02*
X47367900Y1493900D01*
X47367900Y1493900D02*
X47367900Y6573900D01*
X42007900Y9393900D02*
X42007900Y7843900D01*
X47367900Y9113900D02*
X44827900Y9113900D01*
X47367900Y6573900D02*
X47367900Y9113900D01*
X32234200Y17900400D02*
X31234200Y17900400D01*
X31234200Y19250400D02*
X32234200Y19250400D01*
X27504360Y13422840D02*
X28504360Y13422840D01*
X28504360Y12072840D02*
X27504360Y12072840D01*
X57650000Y22715000D02*
X58650000Y22715000D01*
X58650000Y21365000D02*
X57650000Y21365000D01*
X57650000Y24755000D02*
X58650000Y24755000D01*
X58650000Y23405000D02*
X57650000Y23405000D01*
X45115560Y31125920D02*
X45115560Y32125920D01*
X46465560Y32125920D02*
X46465560Y31125920D01*
X31185560Y22744760D02*
X31185560Y22696500D01*
X31886600Y19945780D02*
X31185560Y19945780D01*
X31185560Y19945780D02*
X31185560Y20194700D01*
X31185560Y22744760D02*
X31185560Y22945420D01*
X31185560Y22945420D02*
X31886600Y22945420D01*
X34274200Y11209400D02*
X34274200Y6129400D01*
X34274200Y6129400D02*
X29702200Y6129400D01*
X29702200Y6129400D02*
X29702200Y11209400D01*
X29702200Y11209400D02*
X34274200Y11209400D01*
X32750200Y11209400D02*
X32750200Y10701400D01*
X32750200Y10701400D02*
X31480200Y10701400D01*
X31480200Y10701400D02*
X31480200Y11209400D01*
X54294480Y32641920D02*
X54294480Y27561920D01*
X54294480Y27561920D02*
X49722480Y27561920D01*
X49722480Y27561920D02*
X49722480Y32641920D01*
X49722480Y32641920D02*
X54294480Y32641920D01*
X52770480Y32641920D02*
X52770480Y32133920D01*
X52770480Y32133920D02*
X51500480Y32133920D01*
X51500480Y32133920D02*
X51500480Y32641920D01*
X19727620Y9225660D02*
X18330620Y9225660D01*
X19981620Y9098660D02*
X18203620Y9098660D01*
X20362620Y8971660D02*
X17822620Y8971660D01*
X17695620Y8844660D02*
X20489620Y8844660D01*
X20616620Y8717660D02*
X17568620Y8717660D01*
X17441620Y8590660D02*
X20743620Y8590660D01*
X20870620Y8463660D02*
X17314620Y8463660D01*
X21759620Y9606660D02*
X21759620Y5034660D01*
X21759620Y5034660D02*
X20997620Y4272660D01*
X20997620Y4272660D02*
X17187620Y4272660D01*
X17187620Y4272660D02*
X16425620Y5034660D01*
X16425620Y5034660D02*
X16425620Y9606660D01*
X16425620Y9606660D02*
X21759620Y9606660D01*
X19092620Y4780660D02*
X19092620Y5542660D01*
X19473620Y5161660D02*
X18711620Y5161660D01*
X21505620Y6939660D02*
G75*
G03X21505620Y6939660I-2413000J0D01*
G01*
X20428660Y21112860D02*
X20428660Y22509860D01*
X20301660Y20858860D02*
X20301660Y22636860D01*
X20174660Y20477860D02*
X20174660Y23017860D01*
X20047660Y23144860D02*
X20047660Y20350860D01*
X19920660Y20223860D02*
X19920660Y23271860D01*
X19793660Y23398860D02*
X19793660Y20096860D01*
X19666660Y19969860D02*
X19666660Y23525860D01*
X20809660Y19080860D02*
X16237660Y19080860D01*
X16237660Y19080860D02*
X15475660Y19842860D01*
X15475660Y19842860D02*
X15475660Y23652860D01*
X15475660Y23652860D02*
X16237660Y24414860D01*
X16237660Y24414860D02*
X20809660Y24414860D01*
X20809660Y24414860D02*
X20809660Y19080860D01*
X15983660Y21747860D02*
X16745660Y21747860D01*
X16364660Y21366860D02*
X16364660Y22128860D01*
X20555660Y21747860D02*
G75*
G03X20555660Y21747860I-2413000J0D01*
G01*
X44053200Y14270100D02*
X45450200Y14270100D01*
X43799200Y14397100D02*
X45577200Y14397100D01*
X43418200Y14524100D02*
X45958200Y14524100D01*
X46085200Y14651100D02*
X43291200Y14651100D01*
X43164200Y14778100D02*
X46212200Y14778100D01*
X46339200Y14905100D02*
X43037200Y14905100D01*
X42910200Y15032100D02*
X46466200Y15032100D01*
X42021200Y13889100D02*
X42021200Y18461100D01*
X42021200Y18461100D02*
X42783200Y19223100D01*
X42783200Y19223100D02*
X46593200Y19223100D01*
X46593200Y19223100D02*
X47355200Y18461100D01*
X47355200Y18461100D02*
X47355200Y13889100D01*
X47355200Y13889100D02*
X42021200Y13889100D01*
X44688200Y18715100D02*
X44688200Y17953100D01*
X44307200Y18334100D02*
X45069200Y18334100D01*
X47101200Y16556100D02*
G75*
G03X47101200Y16556100I-2413000J0D01*
G01*
X20151800Y14092300D02*
X20151800Y15616300D01*
X20024800Y15997300D02*
X20024800Y13711300D01*
X19897800Y13457300D02*
X19897800Y16251300D01*
X19770800Y16505300D02*
X19770800Y13203300D01*
X19643800Y13076300D02*
X19643800Y16632300D01*
X20532800Y11552300D02*
X20532800Y18156300D01*
X20532800Y18156300D02*
X14690800Y18156300D01*
X14690800Y18156300D02*
X13928800Y17394300D01*
X13928800Y17394300D02*
X13928800Y12314300D01*
X13928800Y12314300D02*
X14690800Y11552300D01*
X14690800Y11552300D02*
X20532800Y11552300D01*
X15071800Y14854300D02*
X15833800Y14854300D01*
X15452800Y14473300D02*
X15452800Y15235300D01*
X20278800Y14854300D02*
G75*
G03X20278800Y14854300I-3048000J0D01*
G01*
X65135200Y31199200D02*
X63865200Y31199200D01*
X64385900Y30411800D02*
X64639900Y30449900D01*
X64639900Y30449900D02*
X64919300Y30627700D01*
X64919300Y30627700D02*
X65135200Y30945200D01*
X65135200Y30945200D02*
X65147900Y31389700D01*
X65147900Y31389700D02*
X64944700Y31745300D01*
X64944700Y31745300D02*
X64652600Y31923100D01*
X64652600Y31923100D02*
X64335100Y31973900D01*
X64335100Y31973900D02*
X63928700Y31872300D01*
X63928700Y31872300D02*
X63674700Y31529400D01*
X63674700Y31529400D02*
X63585800Y31351600D01*
X61325200Y22817200D02*
X61325200Y32469200D01*
X64373200Y32469200D02*
X65643200Y32469200D01*
X65643200Y32469200D02*
X65643200Y22817200D01*
X65643200Y22817200D02*
X60563200Y22817200D01*
X60563200Y32469200D02*
X63103200Y32469200D01*
X63103200Y32469200D02*
X64373200Y32469200D01*
X22368300Y34044000D02*
X40402300Y34044000D01*
X40402300Y770000D02*
X40402300Y34044000D01*
X22368300Y770000D02*
X22368300Y34044000D01*
X22368300Y770000D02*
X40402300Y770000D01*
X44418960Y21110320D02*
X41878960Y21110320D01*
X44418960Y28730320D02*
X44418960Y21110320D01*
X41878960Y21110320D02*
X41878960Y31270320D01*
X41878960Y31270320D02*
X44418960Y31270320D01*
X44418960Y31270320D02*
X44418960Y28730320D01*
X19919100Y25594800D02*
X19919100Y29194800D01*
X17819100Y25594800D02*
X17819100Y29194800D01*
X18569100Y27644800D02*
X19169100Y27644800D01*
X19169100Y27644800D02*
X18869100Y27344800D01*
X18869100Y27344800D02*
X18669100Y27544800D01*
X18669100Y27544800D02*
X18919100Y27544800D01*
X18919100Y27544800D02*
X18869100Y27494800D01*
X18369100Y27244800D02*
X19369100Y27244800D01*
X18869100Y27744800D02*
X18869100Y28244800D01*
X18869100Y27244800D02*
X18369100Y27744800D01*
X18369100Y27744800D02*
X19369100Y27744800D01*
X19369100Y27744800D02*
X18869100Y27244800D01*
X58192400Y31812500D02*
X58192400Y28212500D01*
X60292400Y31812500D02*
X60292400Y28212500D01*
X59542400Y29762500D02*
X58942400Y29762500D01*
X58942400Y29762500D02*
X59242400Y30062500D01*
X59242400Y30062500D02*
X59442400Y29862500D01*
X59442400Y29862500D02*
X59192400Y29862500D01*
X59192400Y29862500D02*
X59242400Y29912500D01*
X59742400Y30162500D02*
X58742400Y30162500D01*
X59242400Y29662500D02*
X59242400Y29162500D01*
X59242400Y30162500D02*
X59742400Y29662500D01*
X59742400Y29662500D02*
X58742400Y29662500D01*
X58742400Y29662500D02*
X59242400Y30162500D01*
X13260000Y18970000D02*
X6260000Y18970000D01*
X6260000Y22170000D02*
X13260000Y22170000D01*
X14180000Y25130000D02*
X14180000Y34130000D01*
X14180000Y34130000D02*
X580000Y34130000D01*
X580000Y25130000D02*
X580000Y34130000D01*
X14180000Y25130000D02*
X580000Y25130000D01*
X56565000Y14000000D02*
X56565000Y13000000D01*
X55215000Y13000000D02*
X55215000Y14000000D01*
D10*
X53515500Y18651600D02*
G75*
G03X53515500Y18651600I-813600J0D01*
G01*
X52701900Y16925200D02*
X52701900Y16925200D01*
X52701900Y15298000D02*
X52701900Y15298000D01*
X52701900Y16925200D02*
G75*
G03X52701900Y15298000I0J-813600D01*
G01*
X52701900Y15298000D02*
G75*
G03X52701900Y16925200I0J813600D01*
G01*
X50161900Y16925200D02*
X50161900Y16925200D01*
X50161900Y15298000D02*
X50161900Y15298000D01*
X50161900Y16925200D02*
G75*
G03X50161900Y15298000I0J-813600D01*
G01*
X50161900Y15298000D02*
G75*
G03X50161900Y16925200I0J813600D01*
G01*
X52701900Y14385200D02*
X52701900Y14385200D01*
X52701900Y12758000D02*
X52701900Y12758000D01*
X52701900Y14385200D02*
G75*
G03X52701900Y12758000I0J-813600D01*
G01*
X52701900Y12758000D02*
G75*
G03X52701900Y14385200I0J813600D01*
G01*
X50161900Y14385200D02*
X50161900Y14385200D01*
X50161900Y12758000D02*
X50161900Y12758000D01*
X50161900Y14385200D02*
G75*
G03X50161900Y12758000I0J-813600D01*
G01*
X50161900Y12758000D02*
G75*
G03X50161900Y14385200I0J813600D01*
G01*
X52701900Y11845200D02*
X52701900Y11845200D01*
X52701900Y10218000D02*
X52701900Y10218000D01*
X52701900Y11845200D02*
G75*
G03X52701900Y10218000I0J-813600D01*
G01*
X52701900Y10218000D02*
G75*
G03X52701900Y11845200I0J813600D01*
G01*
X50161900Y11845200D02*
X50161900Y11845200D01*
X50161900Y10218000D02*
X50161900Y10218000D01*
X50161900Y11845200D02*
G75*
G03X50161900Y10218000I0J-813600D01*
G01*
X50161900Y10218000D02*
G75*
G03X50161900Y11845200I0J813600D01*
G01*
X45284300Y7843900D02*
X45284300Y7843900D01*
X46911500Y7843900D02*
X46911500Y7843900D01*
X45284300Y7843900D02*
G75*
G03X46911500Y7843900I813600J0D01*
G01*
X46911500Y7843900D02*
G75*
G03X45284300Y7843900I-813600J0D01*
G01*
X42744300Y5303900D02*
X42744300Y5303900D01*
X44371500Y5303900D02*
X44371500Y5303900D01*
X42744300Y5303900D02*
G75*
G03X44371500Y5303900I813600J0D01*
G01*
X44371500Y5303900D02*
G75*
G03X42744300Y5303900I-813600J0D01*
G01*
X45284300Y5303900D02*
X45284300Y5303900D01*
X46911500Y5303900D02*
X46911500Y5303900D01*
X45284300Y5303900D02*
G75*
G03X46911500Y5303900I813600J0D01*
G01*
X46911500Y5303900D02*
G75*
G03X45284300Y5303900I-813600J0D01*
G01*
X42744300Y2763900D02*
X42744300Y2763900D01*
X44371500Y2763900D02*
X44371500Y2763900D01*
X42744300Y2763900D02*
G75*
G03X44371500Y2763900I813600J0D01*
G01*
X44371500Y2763900D02*
G75*
G03X42744300Y2763900I-813600J0D01*
G01*
X45284300Y2763900D02*
X45284300Y2763900D01*
X46911500Y2763900D02*
X46911500Y2763900D01*
X45284300Y2763900D02*
G75*
G03X46911500Y2763900I813600J0D01*
G01*
X46911500Y2763900D02*
G75*
G03X45284300Y2763900I-813600J0D01*
G01*
X63815200Y27643200D02*
G75*
G03X63815200Y27643200I-712000J0D01*
G01*
X63815200Y25103200D02*
G75*
G03X63815200Y25103200I-712000J0D01*
G01*
X63815200Y30183200D02*
G75*
G03X63815200Y30183200I-712000J0D01*
G01*
X39951900Y2040000D02*
G75*
G03X39951900Y2040000I-813600J0D01*
G01*
X39951900Y4580000D02*
G75*
G03X39951900Y4580000I-813600J0D01*
G01*
X39951900Y7120000D02*
G75*
G03X39951900Y7120000I-813600J0D01*
G01*
X39951900Y9660000D02*
G75*
G03X39951900Y9660000I-813600J0D01*
G01*
X39951900Y12200000D02*
G75*
G03X39951900Y12200000I-813600J0D01*
G01*
X39951900Y14740000D02*
G75*
G03X39951900Y14740000I-813600J0D01*
G01*
X39951900Y17280000D02*
G75*
G03X39951900Y17280000I-813600J0D01*
G01*
X39951900Y19820000D02*
G75*
G03X39951900Y19820000I-813600J0D01*
G01*
X39951900Y22360000D02*
G75*
G03X39951900Y22360000I-813600J0D01*
G01*
X39951900Y24900000D02*
G75*
G03X39951900Y24900000I-813600J0D01*
G01*
X39951900Y27440000D02*
G75*
G03X39951900Y27440000I-813600J0D01*
G01*
X39951900Y29980000D02*
G75*
G03X39951900Y29980000I-813600J0D01*
G01*
X37411900Y2040000D02*
G75*
G03X37411900Y2040000I-813600J0D01*
G01*
X34871900Y2040000D02*
G75*
G03X34871900Y2040000I-813600J0D01*
G01*
X32331900Y2040000D02*
G75*
G03X32331900Y2040000I-813600J0D01*
G01*
X24711900Y27440000D02*
G75*
G03X24711900Y27440000I-813600J0D01*
G01*
X24711900Y24900000D02*
G75*
G03X24711900Y24900000I-813600J0D01*
G01*
X24711900Y22360000D02*
G75*
G03X24711900Y22360000I-813600J0D01*
G01*
X24711900Y19820000D02*
G75*
G03X24711900Y19820000I-813600J0D01*
G01*
X24711900Y17280000D02*
G75*
G03X24711900Y17280000I-813600J0D01*
G01*
X24711900Y14740000D02*
G75*
G03X24711900Y14740000I-813600J0D01*
G01*
X24711900Y12200000D02*
G75*
G03X24711900Y12200000I-813600J0D01*
G01*
X24711900Y9660000D02*
G75*
G03X24711900Y9660000I-813600J0D01*
G01*
X24711900Y7120000D02*
G75*
G03X24711900Y7120000I-813600J0D01*
G01*
X24711900Y4580000D02*
G75*
G03X24711900Y4580000I-813600J0D01*
G01*
X24711900Y2040000D02*
G75*
G03X24711900Y2040000I-813600J0D01*
G01*
X37411900Y21090000D02*
G75*
G03X37411900Y21090000I-813600J0D01*
G01*
X37411900Y18550000D02*
G75*
G03X37411900Y18550000I-813600J0D01*
G01*
X43148960Y28273920D02*
X43148960Y28273920D01*
X43148960Y26646720D02*
X43148960Y26646720D01*
X43148960Y28273920D02*
G75*
G03X43148960Y26646720I0J-813600D01*
G01*
X43148960Y26646720D02*
G75*
G03X43148960Y28273920I0J813600D01*
G01*
X43148960Y25733920D02*
X43148960Y25733920D01*
X43148960Y24106720D02*
X43148960Y24106720D01*
X43148960Y25733920D02*
G75*
G03X43148960Y24106720I0J-813600D01*
G01*
X43148960Y24106720D02*
G75*
G03X43148960Y25733920I0J813600D01*
G01*
X43148960Y23193920D02*
X43148960Y23193920D01*
X43148960Y21566720D02*
X43148960Y21566720D01*
X43148960Y23193920D02*
G75*
G03X43148960Y21566720I0J-813600D01*
G01*
X43148960Y21566720D02*
G75*
G03X43148960Y23193920I0J813600D01*
G01*
D12*
X49507981Y8140819D02*
X49174647Y8617010D01*
X48936552Y8140819D02*
X48936552Y9140819D01*
X49317505Y9140819D01*
X49412743Y9093200D01*
X49460362Y9045581D01*
X49507981Y8950343D01*
X49507981Y8807486D01*
X49460362Y8712248D01*
X49412743Y8664629D01*
X49317505Y8617010D01*
X48936552Y8617010D01*
X49936552Y8664629D02*
X50269886Y8664629D01*
X50412743Y8140819D02*
X49936552Y8140819D01*
X49936552Y9140819D01*
X50412743Y9140819D01*
X51174648Y8664629D02*
X50841314Y8664629D01*
X50841314Y8140819D02*
X50841314Y9140819D01*
X51317505Y9140819D01*
X51650838Y9045581D02*
X51698457Y9093200D01*
X51793695Y9140819D01*
X52031791Y9140819D01*
X52127029Y9093200D01*
X52174648Y9045581D01*
X52222267Y8950343D01*
X52222267Y8855105D01*
X52174648Y8712248D01*
X51603219Y8140819D01*
X52222267Y8140819D01*
X31467694Y25550697D02*
X31420075Y25503078D01*
X31277218Y25455459D01*
X31181980Y25455459D01*
X31039122Y25503078D01*
X30943884Y25598316D01*
X30896265Y25693554D01*
X30848646Y25884030D01*
X30848646Y26026888D01*
X30896265Y26217364D01*
X30943884Y26312602D01*
X31039122Y26407840D01*
X31181980Y26455459D01*
X31277218Y26455459D01*
X31420075Y26407840D01*
X31467694Y26360221D01*
X31801027Y26455459D02*
X32467694Y26455459D01*
X32039122Y25455459D01*
X34547694Y25390697D02*
X34500075Y25343078D01*
X34357218Y25295459D01*
X34261980Y25295459D01*
X34119122Y25343078D01*
X34023884Y25438316D01*
X33976265Y25533554D01*
X33928646Y25724030D01*
X33928646Y25866888D01*
X33976265Y26057364D01*
X34023884Y26152602D01*
X34119122Y26247840D01*
X34261980Y26295459D01*
X34357218Y26295459D01*
X34500075Y26247840D01*
X34547694Y26200221D01*
X35119122Y25866888D02*
X35023884Y25914507D01*
X34976265Y25962126D01*
X34928646Y26057364D01*
X34928646Y26104983D01*
X34976265Y26200221D01*
X35023884Y26247840D01*
X35119122Y26295459D01*
X35309599Y26295459D01*
X35404837Y26247840D01*
X35452456Y26200221D01*
X35500075Y26104983D01*
X35500075Y26057364D01*
X35452456Y25962126D01*
X35404837Y25914507D01*
X35309599Y25866888D01*
X35119122Y25866888D01*
X35023884Y25819269D01*
X34976265Y25771650D01*
X34928646Y25676411D01*
X34928646Y25485935D01*
X34976265Y25390697D01*
X35023884Y25343078D01*
X35119122Y25295459D01*
X35309599Y25295459D01*
X35404837Y25343078D01*
X35452456Y25390697D01*
X35500075Y25485935D01*
X35500075Y25676411D01*
X35452456Y25771650D01*
X35404837Y25819269D01*
X35309599Y25866888D01*
X55608143Y16125857D02*
X55560524Y16078238D01*
X55417667Y16030619D01*
X55322429Y16030619D01*
X55179571Y16078238D01*
X55084333Y16173476D01*
X55036714Y16268714D01*
X54989095Y16459190D01*
X54989095Y16602048D01*
X55036714Y16792524D01*
X55084333Y16887762D01*
X55179571Y16983000D01*
X55322429Y17030619D01*
X55417667Y17030619D01*
X55560524Y16983000D01*
X55608143Y16935381D01*
X56560524Y16030619D02*
X55989095Y16030619D01*
X56274809Y16030619D02*
X56274809Y17030619D01*
X56179571Y16887762D01*
X56084333Y16792524D01*
X55989095Y16744905D01*
X57179571Y17030619D02*
X57274810Y17030619D01*
X57370048Y16983000D01*
X57417667Y16935381D01*
X57465286Y16840143D01*
X57512905Y16649667D01*
X57512905Y16411571D01*
X57465286Y16221095D01*
X57417667Y16125857D01*
X57370048Y16078238D01*
X57274810Y16030619D01*
X57179571Y16030619D01*
X57084333Y16078238D01*
X57036714Y16125857D01*
X56989095Y16221095D01*
X56941476Y16411571D01*
X56941476Y16649667D01*
X56989095Y16840143D01*
X57036714Y16935381D01*
X57084333Y16983000D01*
X57179571Y17030619D01*
X32451503Y13990697D02*
X32403884Y13943078D01*
X32261027Y13895459D01*
X32165789Y13895459D01*
X32022931Y13943078D01*
X31927693Y14038316D01*
X31880074Y14133554D01*
X31832455Y14324030D01*
X31832455Y14466888D01*
X31880074Y14657364D01*
X31927693Y14752602D01*
X32022931Y14847840D01*
X32165789Y14895459D01*
X32261027Y14895459D01*
X32403884Y14847840D01*
X32451503Y14800221D01*
X33403884Y13895459D02*
X32832455Y13895459D01*
X33118169Y13895459D02*
X33118169Y14895459D01*
X33022931Y14752602D01*
X32927693Y14657364D01*
X32832455Y14609745D01*
X34356265Y13895459D02*
X33784836Y13895459D01*
X34070550Y13895459D02*
X34070550Y14895459D01*
X33975312Y14752602D01*
X33880074Y14657364D01*
X33784836Y14609745D01*
X55366143Y28867537D02*
X55318524Y28819918D01*
X55175667Y28772299D01*
X55080429Y28772299D01*
X54937571Y28819918D01*
X54842333Y28915156D01*
X54794714Y29010394D01*
X54747095Y29200870D01*
X54747095Y29343728D01*
X54794714Y29534204D01*
X54842333Y29629442D01*
X54937571Y29724680D01*
X55080429Y29772299D01*
X55175667Y29772299D01*
X55318524Y29724680D01*
X55366143Y29677061D01*
X56318524Y28772299D02*
X55747095Y28772299D01*
X56032809Y28772299D02*
X56032809Y29772299D01*
X55937571Y29629442D01*
X55842333Y29534204D01*
X55747095Y29486585D01*
X56699476Y29677061D02*
X56747095Y29724680D01*
X56842333Y29772299D01*
X57080429Y29772299D01*
X57175667Y29724680D01*
X57223286Y29677061D01*
X57270905Y29581823D01*
X57270905Y29486585D01*
X57223286Y29343728D01*
X56651857Y28772299D01*
X57270905Y28772299D01*
X45691503Y21530697D02*
X45643884Y21483078D01*
X45501027Y21435459D01*
X45405789Y21435459D01*
X45262931Y21483078D01*
X45167693Y21578316D01*
X45120074Y21673554D01*
X45072455Y21864030D01*
X45072455Y22006888D01*
X45120074Y22197364D01*
X45167693Y22292602D01*
X45262931Y22387840D01*
X45405789Y22435459D01*
X45501027Y22435459D01*
X45643884Y22387840D01*
X45691503Y22340221D01*
X46643884Y21435459D02*
X46072455Y21435459D01*
X46358169Y21435459D02*
X46358169Y22435459D01*
X46262931Y22292602D01*
X46167693Y22197364D01*
X46072455Y22149745D01*
X46977217Y22435459D02*
X47596265Y22435459D01*
X47262931Y22054507D01*
X47405789Y22054507D01*
X47501027Y22006888D01*
X47548646Y21959269D01*
X47596265Y21864030D01*
X47596265Y21625935D01*
X47548646Y21530697D01*
X47501027Y21483078D01*
X47405789Y21435459D01*
X47120074Y21435459D01*
X47024836Y21483078D01*
X46977217Y21530697D01*
X45986265Y9535459D02*
X45986265Y10535459D01*
X46367218Y10535459D01*
X46462456Y10487840D01*
X46510075Y10440221D01*
X46557694Y10344983D01*
X46557694Y10202126D01*
X46510075Y10106888D01*
X46462456Y10059269D01*
X46367218Y10011650D01*
X45986265Y10011650D01*
X47510075Y9535459D02*
X46938646Y9535459D01*
X47224360Y9535459D02*
X47224360Y10535459D01*
X47129122Y10392602D01*
X47033884Y10297364D01*
X46938646Y10249745D01*
X31807694Y16345459D02*
X31474360Y16821650D01*
X31236265Y16345459D02*
X31236265Y17345459D01*
X31617218Y17345459D01*
X31712456Y17297840D01*
X31760075Y17250221D01*
X31807694Y17154983D01*
X31807694Y17012126D01*
X31760075Y16916888D01*
X31712456Y16869269D01*
X31617218Y16821650D01*
X31236265Y16821650D01*
X32188646Y17250221D02*
X32236265Y17297840D01*
X32331503Y17345459D01*
X32569599Y17345459D01*
X32664837Y17297840D01*
X32712456Y17250221D01*
X32760075Y17154983D01*
X32760075Y17059745D01*
X32712456Y16916888D01*
X32141027Y16345459D01*
X32760075Y16345459D01*
X26947694Y10595459D02*
X26614360Y11071650D01*
X26376265Y10595459D02*
X26376265Y11595459D01*
X26757218Y11595459D01*
X26852456Y11547840D01*
X26900075Y11500221D01*
X26947694Y11404983D01*
X26947694Y11262126D01*
X26900075Y11166888D01*
X26852456Y11119269D01*
X26757218Y11071650D01*
X26376265Y11071650D01*
X27281027Y11595459D02*
X27900075Y11595459D01*
X27566741Y11214507D01*
X27709599Y11214507D01*
X27804837Y11166888D01*
X27852456Y11119269D01*
X27900075Y11024030D01*
X27900075Y10785935D01*
X27852456Y10690697D01*
X27804837Y10643078D01*
X27709599Y10595459D01*
X27423884Y10595459D01*
X27328646Y10643078D01*
X27281027Y10690697D01*
X59215234Y19962019D02*
X58881900Y20438210D01*
X58643805Y19962019D02*
X58643805Y20962019D01*
X59024758Y20962019D01*
X59119996Y20914400D01*
X59167615Y20866781D01*
X59215234Y20771543D01*
X59215234Y20628686D01*
X59167615Y20533448D01*
X59119996Y20485829D01*
X59024758Y20438210D01*
X58643805Y20438210D01*
X60072377Y20628686D02*
X60072377Y19962019D01*
X59834281Y21009638D02*
X59596186Y20295352D01*
X60215234Y20295352D01*
X59075534Y25088119D02*
X58742200Y25564310D01*
X58504105Y25088119D02*
X58504105Y26088119D01*
X58885058Y26088119D01*
X58980296Y26040500D01*
X59027915Y25992881D01*
X59075534Y25897643D01*
X59075534Y25754786D01*
X59027915Y25659548D01*
X58980296Y25611929D01*
X58885058Y25564310D01*
X58504105Y25564310D01*
X59980296Y26088119D02*
X59504105Y26088119D01*
X59456486Y25611929D01*
X59504105Y25659548D01*
X59599343Y25707167D01*
X59837439Y25707167D01*
X59932677Y25659548D01*
X59980296Y25611929D01*
X60027915Y25516690D01*
X60027915Y25278595D01*
X59980296Y25183357D01*
X59932677Y25135738D01*
X59837439Y25088119D01*
X59599343Y25088119D01*
X59504105Y25135738D01*
X59456486Y25183357D01*
X47285054Y29649539D02*
X46951720Y30125730D01*
X46713625Y29649539D02*
X46713625Y30649539D01*
X47094578Y30649539D01*
X47189816Y30601920D01*
X47237435Y30554301D01*
X47285054Y30459063D01*
X47285054Y30316206D01*
X47237435Y30220968D01*
X47189816Y30173349D01*
X47094578Y30125730D01*
X46713625Y30125730D01*
X47618387Y30649539D02*
X48285054Y30649539D01*
X47856482Y29649539D01*
X29032455Y20755459D02*
X29032455Y19945935D01*
X29080074Y19850697D01*
X29127693Y19803078D01*
X29222931Y19755459D01*
X29413408Y19755459D01*
X29508646Y19803078D01*
X29556265Y19850697D01*
X29603884Y19945935D01*
X29603884Y20755459D01*
X29984836Y20755459D02*
X30603884Y20755459D01*
X30270550Y20374507D01*
X30413408Y20374507D01*
X30508646Y20326888D01*
X30556265Y20279269D01*
X30603884Y20184030D01*
X30603884Y19945935D01*
X30556265Y19850697D01*
X30508646Y19803078D01*
X30413408Y19755459D01*
X30127693Y19755459D01*
X30032455Y19803078D01*
X29984836Y19850697D01*
X29816595Y5749919D02*
X29816595Y4940395D01*
X29864214Y4845157D01*
X29911833Y4797538D01*
X30007071Y4749919D01*
X30197548Y4749919D01*
X30292786Y4797538D01*
X30340405Y4845157D01*
X30388024Y4940395D01*
X30388024Y5749919D01*
X31292786Y5416586D02*
X31292786Y4749919D01*
X31054690Y5797538D02*
X30816595Y5083252D01*
X31435643Y5083252D01*
X48909775Y34027739D02*
X48909775Y33218215D01*
X48957394Y33122977D01*
X49005013Y33075358D01*
X49100251Y33027739D01*
X49290728Y33027739D01*
X49385966Y33075358D01*
X49433585Y33122977D01*
X49481204Y33218215D01*
X49481204Y34027739D01*
X50385966Y34027739D02*
X50195489Y34027739D01*
X50100251Y33980120D01*
X50052632Y33932501D01*
X49957394Y33789644D01*
X49909775Y33599168D01*
X49909775Y33218215D01*
X49957394Y33122977D01*
X50005013Y33075358D01*
X50100251Y33027739D01*
X50290728Y33027739D01*
X50385966Y33075358D01*
X50433585Y33122977D01*
X50481204Y33218215D01*
X50481204Y33456310D01*
X50433585Y33551549D01*
X50385966Y33599168D01*
X50290728Y33646787D01*
X50100251Y33646787D01*
X50005013Y33599168D01*
X49957394Y33551549D01*
X49909775Y33456310D01*
X18214754Y2886817D02*
X18167135Y2839198D01*
X18024278Y2791579D01*
X17929040Y2791579D01*
X17786182Y2839198D01*
X17690944Y2934436D01*
X17643325Y3029674D01*
X17595706Y3220150D01*
X17595706Y3363008D01*
X17643325Y3553484D01*
X17690944Y3648722D01*
X17786182Y3743960D01*
X17929040Y3791579D01*
X18024278Y3791579D01*
X18167135Y3743960D01*
X18214754Y3696341D01*
X19071897Y3791579D02*
X18881420Y3791579D01*
X18786182Y3743960D01*
X18738563Y3696341D01*
X18643325Y3553484D01*
X18595706Y3363008D01*
X18595706Y2982055D01*
X18643325Y2886817D01*
X18690944Y2839198D01*
X18786182Y2791579D01*
X18976659Y2791579D01*
X19071897Y2839198D01*
X19119516Y2886817D01*
X19167135Y2982055D01*
X19167135Y3220150D01*
X19119516Y3315389D01*
X19071897Y3363008D01*
X18976659Y3410627D01*
X18786182Y3410627D01*
X18690944Y3363008D01*
X18643325Y3315389D01*
X18595706Y3220150D01*
X14387694Y18710697D02*
X14340075Y18663078D01*
X14197218Y18615459D01*
X14101980Y18615459D01*
X13959122Y18663078D01*
X13863884Y18758316D01*
X13816265Y18853554D01*
X13768646Y19044030D01*
X13768646Y19186888D01*
X13816265Y19377364D01*
X13863884Y19472602D01*
X13959122Y19567840D01*
X14101980Y19615459D01*
X14197218Y19615459D01*
X14340075Y19567840D01*
X14387694Y19520221D01*
X14721027Y19615459D02*
X15340075Y19615459D01*
X15006741Y19234507D01*
X15149599Y19234507D01*
X15244837Y19186888D01*
X15292456Y19139269D01*
X15340075Y19044030D01*
X15340075Y18805935D01*
X15292456Y18710697D01*
X15244837Y18663078D01*
X15149599Y18615459D01*
X14863884Y18615459D01*
X14768646Y18663078D01*
X14721027Y18710697D01*
X42260934Y12427057D02*
X42213315Y12379438D01*
X42070458Y12331819D01*
X41975220Y12331819D01*
X41832362Y12379438D01*
X41737124Y12474676D01*
X41689505Y12569914D01*
X41641886Y12760390D01*
X41641886Y12903248D01*
X41689505Y13093724D01*
X41737124Y13188962D01*
X41832362Y13284200D01*
X41975220Y13331819D01*
X42070458Y13331819D01*
X42213315Y13284200D01*
X42260934Y13236581D01*
X42737124Y12331819D02*
X42927600Y12331819D01*
X43022839Y12379438D01*
X43070458Y12427057D01*
X43165696Y12569914D01*
X43213315Y12760390D01*
X43213315Y13141343D01*
X43165696Y13236581D01*
X43118077Y13284200D01*
X43022839Y13331819D01*
X42832362Y13331819D01*
X42737124Y13284200D01*
X42689505Y13236581D01*
X42641886Y13141343D01*
X42641886Y12903248D01*
X42689505Y12808010D01*
X42737124Y12760390D01*
X42832362Y12712771D01*
X43022839Y12712771D01*
X43118077Y12760390D01*
X43165696Y12808010D01*
X43213315Y12903248D01*
X15107694Y10360697D02*
X15060075Y10313078D01*
X14917218Y10265459D01*
X14821980Y10265459D01*
X14679122Y10313078D01*
X14583884Y10408316D01*
X14536265Y10503554D01*
X14488646Y10694030D01*
X14488646Y10836888D01*
X14536265Y11027364D01*
X14583884Y11122602D01*
X14679122Y11217840D01*
X14821980Y11265459D01*
X14917218Y11265459D01*
X15060075Y11217840D01*
X15107694Y11170221D01*
X15488646Y11170221D02*
X15536265Y11217840D01*
X15631503Y11265459D01*
X15869599Y11265459D01*
X15964837Y11217840D01*
X16012456Y11170221D01*
X16060075Y11074983D01*
X16060075Y10979745D01*
X16012456Y10836888D01*
X15441027Y10265459D01*
X16060075Y10265459D01*
X62377734Y21399619D02*
X62044400Y21875810D01*
X61806305Y21399619D02*
X61806305Y22399619D01*
X62187258Y22399619D01*
X62282496Y22352000D01*
X62330115Y22304381D01*
X62377734Y22209143D01*
X62377734Y22066286D01*
X62330115Y21971048D01*
X62282496Y21923429D01*
X62187258Y21875810D01*
X61806305Y21875810D01*
X63234877Y22399619D02*
X63044400Y22399619D01*
X62949162Y22352000D01*
X62901543Y22304381D01*
X62806305Y22161524D01*
X62758686Y21971048D01*
X62758686Y21590095D01*
X62806305Y21494857D01*
X62853924Y21447238D01*
X62949162Y21399619D01*
X63139639Y21399619D01*
X63234877Y21447238D01*
X63282496Y21494857D01*
X63330115Y21590095D01*
X63330115Y21828190D01*
X63282496Y21923429D01*
X63234877Y21971048D01*
X63139639Y22018667D01*
X62949162Y22018667D01*
X62853924Y21971048D01*
X62806305Y21923429D01*
X62758686Y21828190D01*
X23436741Y32555459D02*
X23103407Y33031650D01*
X22865312Y32555459D02*
X22865312Y33555459D01*
X23246265Y33555459D01*
X23341503Y33507840D01*
X23389122Y33460221D01*
X23436741Y33364983D01*
X23436741Y33222126D01*
X23389122Y33126888D01*
X23341503Y33079269D01*
X23246265Y33031650D01*
X22865312Y33031650D01*
X23865312Y33079269D02*
X24198646Y33079269D01*
X24341503Y32555459D02*
X23865312Y32555459D01*
X23865312Y33555459D01*
X24341503Y33555459D01*
X25103408Y33079269D02*
X24770074Y33079269D01*
X24770074Y32555459D02*
X24770074Y33555459D01*
X25246265Y33555459D01*
X26151027Y32555459D02*
X25579598Y32555459D01*
X25865312Y32555459D02*
X25865312Y33555459D01*
X25770074Y33412602D01*
X25674836Y33317364D01*
X25579598Y33269745D01*
X41942455Y20705459D02*
X41942455Y19895935D01*
X41990074Y19800697D01*
X42037693Y19753078D01*
X42132931Y19705459D01*
X42323408Y19705459D01*
X42418646Y19753078D01*
X42466265Y19800697D01*
X42513884Y19895935D01*
X42513884Y20705459D01*
X42894836Y20705459D02*
X43561503Y20705459D01*
X43132931Y19705459D01*
X20505905Y25400119D02*
X20505905Y26400119D01*
X20744000Y26400119D01*
X20886858Y26352500D01*
X20982096Y26257262D01*
X21029715Y26162024D01*
X21077334Y25971548D01*
X21077334Y25828690D01*
X21029715Y25638214D01*
X20982096Y25542976D01*
X20886858Y25447738D01*
X20744000Y25400119D01*
X20505905Y25400119D01*
X21458286Y26304881D02*
X21505905Y26352500D01*
X21601143Y26400119D01*
X21839239Y26400119D01*
X21934477Y26352500D01*
X21982096Y26304881D01*
X22029715Y26209643D01*
X22029715Y26114405D01*
X21982096Y25971548D01*
X21410667Y25400119D01*
X22029715Y25400119D01*
X56129405Y31102419D02*
X56129405Y32102419D01*
X56367500Y32102419D01*
X56510358Y32054800D01*
X56605596Y31959562D01*
X56653215Y31864324D01*
X56700834Y31673848D01*
X56700834Y31530990D01*
X56653215Y31340514D01*
X56605596Y31245276D01*
X56510358Y31150038D01*
X56367500Y31102419D01*
X56129405Y31102419D01*
X57034167Y32102419D02*
X57653215Y32102419D01*
X57319881Y31721467D01*
X57462739Y31721467D01*
X57557977Y31673848D01*
X57605596Y31626229D01*
X57653215Y31530990D01*
X57653215Y31292895D01*
X57605596Y31197657D01*
X57557977Y31150038D01*
X57462739Y31102419D01*
X57177024Y31102419D01*
X57081786Y31150038D01*
X57034167Y31197657D01*
X7202381Y22531905D02*
X6202381Y22531905D01*
X6202381Y22770000D01*
X6250000Y22912858D01*
X6345238Y23008096D01*
X6440476Y23055715D01*
X6630952Y23103334D01*
X6773810Y23103334D01*
X6964286Y23055715D01*
X7059524Y23008096D01*
X7154762Y22912858D01*
X7202381Y22770000D01*
X7202381Y22531905D01*
X7202381Y24055715D02*
X7202381Y23484286D01*
X7202381Y23770000D02*
X6202381Y23770000D01*
X6345238Y23674762D01*
X6440476Y23579524D01*
X6488095Y23484286D01*
X17432903Y27782645D02*
X17480522Y27735026D01*
X17528141Y27592169D01*
X17528141Y27496931D01*
X17480522Y27354073D01*
X17385284Y27258835D01*
X17290046Y27211216D01*
X17099570Y27163597D01*
X16956712Y27163597D01*
X16766236Y27211216D01*
X16670998Y27258835D01*
X16575760Y27354073D01*
X16528141Y27496931D01*
X16528141Y27592169D01*
X16575760Y27735026D01*
X16623379Y27782645D01*
X16528141Y28401692D02*
X16528141Y28592169D01*
X16575760Y28687407D01*
X16670998Y28782645D01*
X16861474Y28830264D01*
X17194808Y28830264D01*
X17385284Y28782645D01*
X17480522Y28687407D01*
X17528141Y28592169D01*
X17528141Y28401692D01*
X17480522Y28306454D01*
X17385284Y28211216D01*
X17194808Y28163597D01*
X16861474Y28163597D01*
X16670998Y28211216D01*
X16575760Y28306454D01*
X16528141Y28401692D01*
X17528141Y29258835D02*
X16528141Y29258835D01*
X17528141Y29830264D01*
X16528141Y29830264D01*
X17528141Y30306454D02*
X16528141Y30306454D01*
X17528141Y30877883D01*
X16528141Y30877883D01*
X17528141Y31877883D02*
X17528141Y31306454D01*
X17528141Y31592168D02*
X16528141Y31592168D01*
X16670998Y31496930D01*
X16766236Y31401692D01*
X16813855Y31306454D01*
X55693334Y10327619D02*
X55360000Y10803810D01*
X55121905Y10327619D02*
X55121905Y11327619D01*
X55502858Y11327619D01*
X55598096Y11280000D01*
X55645715Y11232381D01*
X55693334Y11137143D01*
X55693334Y10994286D01*
X55645715Y10899048D01*
X55598096Y10851429D01*
X55502858Y10803810D01*
X55121905Y10803810D01*
X56169524Y10327619D02*
X56360000Y10327619D01*
X56455239Y10375238D01*
X56502858Y10422857D01*
X56598096Y10565714D01*
X56645715Y10756190D01*
X56645715Y11137143D01*
X56598096Y11232381D01*
X56550477Y11280000D01*
X56455239Y11327619D01*
X56264762Y11327619D01*
X56169524Y11280000D01*
X56121905Y11232381D01*
X56074286Y11137143D01*
X56074286Y10899048D01*
X56121905Y10803810D01*
X56169524Y10756190D01*
X56264762Y10708571D01*
X56455239Y10708571D01*
X56550477Y10756190D01*
X56598096Y10803810D01*
X56645715Y10899048D01*
M02*
