G04 #@! TF.FileFunction,Soldermask,Top*
%FSLAX46Y46*%
G04 Gerber Fmt 4.6, Leading zero omitted, Abs format (unit mm)*
G04 Created by KiCad (PCBNEW 4.0.2-stable) date 2-3-2016 10:14:05*
%MOMM*%
G01*
G04 APERTURE LIST*
%ADD10C,0.100000*%
%ADD11C,2.127200*%
%ADD12R,2.127200X2.127200*%
%ADD13O,2.127200X2.127200*%
%ADD14R,1.600000X1.150000*%
%ADD15R,1.150000X1.600000*%
%ADD16R,1.600000X1.300000*%
%ADD17R,1.300000X1.600000*%
%ADD18R,1.200100X1.200100*%
%ADD19R,1.543000X0.908000*%
%ADD20R,2.000200X3.399740*%
%ADD21R,3.399740X2.000200*%
%ADD22R,3.999180X2.000200*%
%ADD23C,1.924000*%
%ADD24R,2.200860X1.997660*%
%ADD25R,2.800000X2.700000*%
%ADD26O,2.400000X4.900000*%
%ADD27O,4.900000X2.400000*%
G04 APERTURE END LIST*
D10*
D11*
X52701900Y18651600D03*
D12*
X50161900Y18651600D03*
D13*
X52701900Y16111600D03*
X50161900Y16111600D03*
X52701900Y13571600D03*
X50161900Y13571600D03*
X52701900Y11031600D03*
X50161900Y11031600D03*
D14*
X32506400Y24303100D03*
X30606400Y24303100D03*
D15*
X36585600Y24579920D03*
X36585600Y26479920D03*
X55870000Y18200000D03*
X55870000Y20100000D03*
D14*
X34132000Y12771500D03*
X32232000Y12771500D03*
D15*
X56984360Y32597840D03*
X56984360Y30697840D03*
X45774360Y22727840D03*
X45774360Y24627840D03*
D12*
X43557900Y7843900D03*
D13*
X46097900Y7843900D03*
X43557900Y5303900D03*
X46097900Y5303900D03*
X43557900Y2763900D03*
X46097900Y2763900D03*
D16*
X30634200Y18575400D03*
X32834200Y18575400D03*
X29104360Y12747840D03*
X26904360Y12747840D03*
X59250000Y22040000D03*
X57050000Y22040000D03*
X59250000Y24080000D03*
X57050000Y24080000D03*
D17*
X45790560Y32725920D03*
X45790560Y30525920D03*
D18*
X32836560Y20495600D03*
X32836560Y22395600D03*
X30837580Y21445600D03*
D19*
X35163200Y10574400D03*
X35163200Y9304400D03*
X35163200Y8034400D03*
X35163200Y6764400D03*
X28813200Y6764400D03*
X28813200Y8034400D03*
X28813200Y9304400D03*
X28813200Y10574400D03*
X55183480Y32006920D03*
X55183480Y30736920D03*
X55183480Y29466920D03*
X55183480Y28196920D03*
X48833480Y28196920D03*
X48833480Y29466920D03*
X48833480Y30736920D03*
X48833480Y32006920D03*
D20*
X19092620Y4740020D03*
X19092620Y9139300D03*
D21*
X15943020Y21747860D03*
X20342300Y21747860D03*
D20*
X44688200Y18755740D03*
X44688200Y14356460D03*
D22*
X14479980Y14854300D03*
X19981620Y14854300D03*
D23*
X63103200Y27643200D03*
X63103200Y25103200D03*
X63103200Y30183200D03*
D11*
X39138300Y2040000D03*
X39138300Y4580000D03*
X39138300Y7120000D03*
X39138300Y9660000D03*
X39138300Y12200000D03*
X39138300Y14740000D03*
X39138300Y17280000D03*
X39138300Y19820000D03*
X39138300Y22360000D03*
X39138300Y24900000D03*
X39138300Y27440000D03*
X39138300Y29980000D03*
X36598300Y2040000D03*
X34058300Y2040000D03*
X31518300Y2040000D03*
D12*
X23898300Y29980000D03*
D11*
X23898300Y27440000D03*
X23898300Y24900000D03*
X23898300Y22360000D03*
X23898300Y19820000D03*
X23898300Y17280000D03*
X23898300Y14740000D03*
X23898300Y12200000D03*
X23898300Y9660000D03*
X23898300Y7120000D03*
X23898300Y4580000D03*
X23898300Y2040000D03*
X36598300Y21090000D03*
X36598300Y18550000D03*
X53960100Y22728300D03*
X53960100Y25268300D03*
X48460100Y22728300D03*
X48460100Y25268300D03*
D12*
X43148960Y30000320D03*
D13*
X43148960Y27460320D03*
X43148960Y24920320D03*
X43148960Y22380320D03*
D24*
X18869100Y29164660D03*
X18869100Y26324940D03*
X59242400Y28242640D03*
X59242400Y31082360D03*
D25*
X11860000Y20570000D03*
X7660000Y20570000D03*
D26*
X14380000Y29630000D03*
X8080000Y29630000D03*
D27*
X11380000Y25030000D03*
D17*
X55890000Y12400000D03*
X55890000Y14600000D03*
M02*
