G04 #@! TF.FileFunction,Soldermask,Bot*
%FSLAX46Y46*%
G04 Gerber Fmt 4.6, Leading zero omitted, Abs format (unit mm)*
G04 Created by KiCad (PCBNEW 4.0.2-stable) date 2-3-2016 10:14:05*
%MOMM*%
G01*
G04 APERTURE LIST*
%ADD10C,0.100000*%
%ADD11C,2.127200*%
%ADD12R,2.127200X2.127200*%
%ADD13O,2.127200X2.127200*%
%ADD14R,1.600000X1.150000*%
%ADD15R,1.150000X1.600000*%
%ADD16R,1.600000X1.300000*%
%ADD17R,2.432000X4.057600*%
%ADD18R,2.432000X1.416000*%
%ADD19C,1.924000*%
%ADD20O,2.400000X4.900000*%
%ADD21O,4.900000X2.400000*%
G04 APERTURE END LIST*
D10*
D11*
X52701900Y18651600D03*
D12*
X50161900Y18651600D03*
D13*
X52701900Y16111600D03*
X50161900Y16111600D03*
X52701900Y13571600D03*
X50161900Y13571600D03*
X52701900Y11031600D03*
X50161900Y11031600D03*
D14*
X16664360Y17307840D03*
X18564360Y17307840D03*
X16664360Y20997840D03*
X18564360Y20997840D03*
D15*
X10296600Y9980000D03*
X10296600Y11880000D03*
D12*
X43557900Y7843900D03*
D13*
X46097900Y7843900D03*
X43557900Y5303900D03*
X46097900Y5303900D03*
X43557900Y2763900D03*
X46097900Y2763900D03*
D16*
X16364360Y23047840D03*
X18564360Y23047840D03*
X54792500Y32621600D03*
X52592500Y32621600D03*
D17*
X5472360Y19537840D03*
D18*
X12076360Y19537840D03*
X12076360Y17251840D03*
X12076360Y21823840D03*
D17*
X19326300Y9901300D03*
D18*
X12722300Y9901300D03*
X12722300Y12187300D03*
X12722300Y7615300D03*
D19*
X63103200Y27643200D03*
X63103200Y25103200D03*
X63103200Y30183200D03*
D11*
X39138300Y2040000D03*
X39138300Y4580000D03*
X39138300Y7120000D03*
X39138300Y9660000D03*
X39138300Y12200000D03*
X39138300Y14740000D03*
X39138300Y17280000D03*
X39138300Y19820000D03*
X39138300Y22360000D03*
X39138300Y24900000D03*
X39138300Y27440000D03*
X39138300Y29980000D03*
X36598300Y2040000D03*
X34058300Y2040000D03*
X31518300Y2040000D03*
D12*
X23898300Y29980000D03*
D11*
X23898300Y27440000D03*
X23898300Y24900000D03*
X23898300Y22360000D03*
X23898300Y19820000D03*
X23898300Y17280000D03*
X23898300Y14740000D03*
X23898300Y12200000D03*
X23898300Y9660000D03*
X23898300Y7120000D03*
X23898300Y4580000D03*
X23898300Y2040000D03*
X36598300Y21090000D03*
X36598300Y18550000D03*
X53960100Y22728300D03*
X53960100Y25268300D03*
X48460100Y22728300D03*
X48460100Y25268300D03*
D12*
X43148960Y30000320D03*
D13*
X43148960Y27460320D03*
X43148960Y24920320D03*
X43148960Y22380320D03*
D20*
X14380000Y29630000D03*
X8080000Y29630000D03*
D21*
X11380000Y25030000D03*
M02*
